<svg width="290" height="604" viewBox="0 0 290 604" fill="none" xmlns="http://www.w3.org/2000/svg">
<line x1="151.516" y1="365.874" x2="206.516" y2="153.874" stroke="#467599"/>
<path d="M152.293 356.25L136.399 278.397L129.417 220.896L113.948 230.898L116.085 294.265L140.774 359.919C139.981 361.43 139.655 363.143 139.837 364.839C140.02 366.535 140.703 368.139 141.8 369.447C142.897 370.754 144.358 371.706 145.998 372.181C147.637 372.656 149.381 372.633 151.007 372.114C152.634 371.596 154.069 370.606 155.131 369.271C156.193 367.935 156.834 366.314 156.972 364.613C157.11 362.912 156.739 361.209 155.905 359.72C155.072 358.231 153.815 357.023 152.293 356.249V356.25Z" fill="#FFB7B7"/>
<path d="M3.63239 362.269L8.03209 282.934L6.57478 225.029L27.0247 232.677L30.4386 295.681L15.563 364.226C16.5678 365.605 17.1396 367.252 17.2057 368.957C17.2717 370.662 16.829 372.348 15.9339 373.801C15.0388 375.254 13.7317 376.408 12.1788 377.116C10.6258 377.824 8.89728 378.055 7.21283 377.779C5.52839 377.502 3.96416 376.732 2.71905 375.565C1.47394 374.397 0.604184 372.886 0.220374 371.224C-0.163437 369.561 -0.0439634 367.822 0.563601 366.228C1.17116 364.633 2.23937 363.255 3.6324 362.269L3.63239 362.269Z" fill="#FFB7B7"/>
<path d="M46.4625 592.925L56.9112 592.924L61.8824 552.637L46.4606 552.638L46.4625 592.925Z" fill="#FFB7B7"/>
<path d="M43.7967 589.515L64.3751 589.514H64.376C67.854 589.514 71.1895 590.895 73.6488 593.354C76.1082 595.812 77.4899 599.146 77.4902 602.623V603.049L43.7973 603.05L43.7967 589.515Z" fill="#2F2E41"/>
<path d="M86.0406 588.303L96.3666 589.899L107.442 550.846L92.2019 548.489L86.0406 588.303Z" fill="#FFB7B7"/>
<path d="M83.928 584.525L104.265 587.67L104.265 587.67C107.703 588.202 110.788 590.077 112.842 592.882C114.896 595.687 115.752 599.193 115.22 602.629L115.155 603.05L81.8583 597.901L83.928 584.525Z" fill="#2F2E41"/>
<path d="M43.3928 580.896L43.3387 580.604L5.51047 376.164C2.50756 359.752 4.90278 342.808 12.3376 327.87L35.2335 282.098L103.553 291.35L111.615 349.625L140.348 460.795L140.32 460.885L103.507 577.773L79.3801 579.359L100.752 475.021L61.619 386.174L64.3792 579.307L43.3928 580.896Z" fill="#2F2E41"/>
<path d="M105.143 298.808L104.692 298.101C104.611 297.974 96.3123 285.476 73.7297 293.821C50.6766 302.341 32.8138 285.885 32.636 285.718L32.5475 285.635L27.3267 239.121L21.1635 201.361L40.7824 197.92L50.4277 192.136L88.7825 191.453L98.8756 199.388L115.446 201.193L116.963 235.599L116.956 235.637L105.143 298.808Z" fill="#467599"/>
<path d="M110.64 238.927V209.466L115.3 200.966L115.489 200.96C119.157 201.096 122.624 202.671 125.14 205.343C129.827 210.103 131.951 218.034 131.451 228.915L131.442 229.114L110.64 238.927Z" fill="#467599"/>
<path d="M29.4194 235.725L5.66904 232.876L5.65046 232.603C4.84017 220.764 6.90743 211.976 11.7947 206.483C16.2303 201.498 21.3127 201.197 21.5269 201.186L21.664 201.18L28.0933 207.022L29.4194 235.725Z" fill="#467599"/>
<path d="M98.1717 179.582H35.6747C34.3891 179.58 33.1566 179.069 32.2476 178.161C31.3385 177.252 30.8272 176.02 30.8258 174.735V152.116C30.8258 142.546 34.6289 133.369 41.3985 126.602C48.168 119.835 57.3496 116.033 66.9232 116.033C76.4968 116.033 85.6784 119.835 92.4479 126.602C99.2175 133.369 103.021 142.546 103.021 152.116V174.735C103.019 176.02 102.508 177.252 101.599 178.161C100.69 179.069 99.4573 179.58 98.1717 179.582V179.582Z" fill="#2F2E41"/>
<path d="M91.5962 165.594C98.6071 152.774 93.8937 136.7 81.0684 129.692C68.2432 122.684 52.1628 127.396 45.1519 140.216C38.141 153.036 42.8545 169.109 55.6797 176.117C68.505 183.125 84.5853 178.414 91.5962 165.594Z" fill="#FFB7B7"/>
<path d="M93.5299 153.732H58.5891C57.9327 153.731 57.2991 153.491 56.807 153.056C56.315 152.622 55.9982 152.023 55.9161 151.372L55.4636 147.755C55.4202 147.407 55.2648 147.083 55.0208 146.831C54.7768 146.579 54.4576 146.414 54.1112 146.359C53.7648 146.305 53.41 146.364 53.1005 146.529C52.791 146.694 52.5434 146.955 52.3952 147.272L50.1046 152.178C49.8867 152.642 49.5416 153.034 49.1095 153.309C48.6773 153.584 48.1759 153.73 47.6636 153.732H42.3561C41.9807 153.732 41.6094 153.653 41.266 153.502C40.9226 153.35 40.6148 153.128 40.3623 152.85C40.1098 152.572 39.9181 152.245 39.7997 151.889C39.6812 151.533 39.6386 151.156 39.6744 150.782L41.7671 128.932C41.8119 128.465 41.9774 128.017 42.2472 127.633C42.5171 127.248 42.8821 126.94 43.3066 126.739C59.3084 119.272 75.5353 119.282 91.5371 126.768C91.943 126.958 92.295 127.247 92.5611 127.608C92.8272 127.969 92.9992 128.39 93.0613 128.834L96.1963 150.656C96.2513 151.038 96.2235 151.428 96.1148 151.798C96.006 152.168 95.8188 152.511 95.5659 152.803C95.313 153.094 95.0003 153.328 94.649 153.489C94.2977 153.649 93.916 153.732 93.5298 153.732L93.5299 153.732Z" fill="#2F2E41"/>
<ellipse cx="215" cy="81.5" rx="75" ry="81.5" fill="#9ED8DB"/>
<path d="M166.242 87.1602H174.328V89H163.98V71.9375H166.242V87.1602ZM175.98 82.543C175.98 81.3008 176.223 80.1836 176.707 79.1914C177.199 78.1992 177.879 77.4336 178.746 76.8945C179.621 76.3555 180.617 76.0859 181.734 76.0859C183.461 76.0859 184.855 76.6836 185.918 77.8789C186.988 79.0742 187.523 80.6641 187.523 82.6484V82.8008C187.523 84.0352 187.285 85.1445 186.809 86.1289C186.34 87.1055 185.664 87.8672 184.781 88.4141C183.906 88.9609 182.898 89.2344 181.758 89.2344C180.039 89.2344 178.645 88.6367 177.574 87.4414C176.512 86.2461 175.98 84.6641 175.98 82.6953V82.543ZM178.16 82.8008C178.16 84.207 178.484 85.3359 179.133 86.1875C179.789 87.0391 180.664 87.4648 181.758 87.4648C182.859 87.4648 183.734 87.0352 184.383 86.1758C185.031 85.3086 185.355 84.0977 185.355 82.543C185.355 81.1523 185.023 80.0273 184.359 79.168C183.703 78.3008 182.828 77.8672 181.734 77.8672C180.664 77.8672 179.801 78.293 179.145 79.1445C178.488 79.9961 178.16 81.2148 178.16 82.8008ZM198.07 89C197.945 88.75 197.844 88.3047 197.766 87.6641C196.758 88.7109 195.555 89.2344 194.156 89.2344C192.906 89.2344 191.879 88.8828 191.074 88.1797C190.277 87.4688 189.879 86.5703 189.879 85.4844C189.879 84.1641 190.379 83.1406 191.379 82.4141C192.387 81.6797 193.801 81.3125 195.621 81.3125H197.73V80.3164C197.73 79.5586 197.504 78.957 197.051 78.5117C196.598 78.0586 195.93 77.832 195.047 77.832C194.273 77.832 193.625 78.0273 193.102 78.418C192.578 78.8086 192.316 79.2812 192.316 79.8359H190.137C190.137 79.2031 190.359 78.5938 190.805 78.0078C191.258 77.4141 191.867 76.9453 192.633 76.6016C193.406 76.2578 194.254 76.0859 195.176 76.0859C196.637 76.0859 197.781 76.4531 198.609 77.1875C199.438 77.9141 199.867 78.918 199.898 80.1992V86.0352C199.898 87.1992 200.047 88.125 200.344 88.8125V89H198.07ZM194.473 87.3477C195.152 87.3477 195.797 87.1719 196.406 86.8203C197.016 86.4688 197.457 86.0117 197.73 85.4492V82.8477H196.031C193.375 82.8477 192.047 83.625 192.047 85.1797C192.047 85.8594 192.273 86.3906 192.727 86.7734C193.18 87.1562 193.762 87.3477 194.473 87.3477ZM202.77 82.5547C202.77 80.6094 203.23 79.0469 204.152 77.8672C205.074 76.6797 206.281 76.0859 207.773 76.0859C209.258 76.0859 210.434 76.5938 211.301 77.6094V71H213.469V89H211.477L211.371 87.6406C210.504 88.7031 209.297 89.2344 207.75 89.2344C206.281 89.2344 205.082 88.6328 204.152 87.4297C203.23 86.2266 202.77 84.6562 202.77 82.7188V82.5547ZM204.938 82.8008C204.938 84.2383 205.234 85.3633 205.828 86.1758C206.422 86.9883 207.242 87.3945 208.289 87.3945C209.664 87.3945 210.668 86.7773 211.301 85.543V79.7188C210.652 78.5234 209.656 77.9258 208.312 77.9258C207.25 77.9258 206.422 78.3359 205.828 79.1562C205.234 79.9766 204.938 81.1914 204.938 82.8008ZM219.199 89H217.031V76.3203H219.199V89ZM216.855 72.957C216.855 72.6055 216.961 72.3086 217.172 72.0664C217.391 71.8242 217.711 71.7031 218.133 71.7031C218.555 71.7031 218.875 71.8242 219.094 72.0664C219.312 72.3086 219.422 72.6055 219.422 72.957C219.422 73.3086 219.312 73.6016 219.094 73.8359C218.875 74.0703 218.555 74.1875 218.133 74.1875C217.711 74.1875 217.391 74.0703 217.172 73.8359C216.961 73.6016 216.855 73.3086 216.855 72.957ZM224.73 76.3203L224.801 77.9141C225.77 76.6953 227.035 76.0859 228.598 76.0859C231.277 76.0859 232.629 77.5977 232.652 80.6211V89H230.484V80.6094C230.477 79.6953 230.266 79.0195 229.852 78.582C229.445 78.1445 228.809 77.9258 227.941 77.9258C227.238 77.9258 226.621 78.1133 226.09 78.4883C225.559 78.8633 225.145 79.3555 224.848 79.9648V89H222.68V76.3203H224.73ZM235.406 82.5547C235.406 80.5781 235.863 79.0078 236.777 77.8438C237.691 76.6719 238.902 76.0859 240.41 76.0859C241.957 76.0859 243.164 76.6328 244.031 77.7266L244.137 76.3203H246.117V88.6953C246.117 90.3359 245.629 91.6289 244.652 92.5742C243.684 93.5195 242.379 93.9922 240.738 93.9922C239.824 93.9922 238.93 93.7969 238.055 93.4062C237.18 93.0156 236.512 92.4805 236.051 91.8008L237.176 90.5C238.105 91.6484 239.242 92.2227 240.586 92.2227C241.641 92.2227 242.461 91.9258 243.047 91.332C243.641 90.7383 243.938 89.9023 243.938 88.8242V87.7344C243.07 88.7344 241.887 89.2344 240.387 89.2344C238.902 89.2344 237.699 88.6367 236.777 87.4414C235.863 86.2461 235.406 84.6172 235.406 82.5547ZM237.586 82.8008C237.586 84.2305 237.879 85.3555 238.465 86.1758C239.051 86.9883 239.871 87.3945 240.926 87.3945C242.293 87.3945 243.297 86.7734 243.938 85.5312V79.7422C243.273 78.5312 242.277 77.9258 240.949 77.9258C239.895 77.9258 239.07 78.3359 238.477 79.1562C237.883 79.9766 237.586 81.1914 237.586 82.8008ZM249.445 87.8633C249.445 87.4883 249.555 87.1758 249.773 86.9258C250 86.6758 250.336 86.5508 250.781 86.5508C251.227 86.5508 251.562 86.6758 251.789 86.9258C252.023 87.1758 252.141 87.4883 252.141 87.8633C252.141 88.2227 252.023 88.5234 251.789 88.7656C251.562 89.0078 251.227 89.1289 250.781 89.1289C250.336 89.1289 250 89.0078 249.773 88.7656C249.555 88.5234 249.445 88.2227 249.445 87.8633ZM255.773 87.8633C255.773 87.4883 255.883 87.1758 256.102 86.9258C256.328 86.6758 256.664 86.5508 257.109 86.5508C257.555 86.5508 257.891 86.6758 258.117 86.9258C258.352 87.1758 258.469 87.4883 258.469 87.8633C258.469 88.2227 258.352 88.5234 258.117 88.7656C257.891 89.0078 257.555 89.1289 257.109 89.1289C256.664 89.1289 256.328 89.0078 256.102 88.7656C255.883 88.5234 255.773 88.2227 255.773 87.8633ZM262.102 87.8633C262.102 87.4883 262.211 87.1758 262.43 86.9258C262.656 86.6758 262.992 86.5508 263.438 86.5508C263.883 86.5508 264.219 86.6758 264.445 86.9258C264.68 87.1758 264.797 87.4883 264.797 87.8633C264.797 88.2227 264.68 88.5234 264.445 88.7656C264.219 89.0078 263.883 89.1289 263.438 89.1289C262.992 89.1289 262.656 89.0078 262.43 88.7656C262.211 88.5234 262.102 88.2227 262.102 87.8633Z" fill="#1D3354"/>
</svg>
