<svg width="348" height="580" viewBox="0 0 348 580" fill="none" xmlns="http://www.w3.org/2000/svg">
<path d="M104.427 266.598C118.871 258.702 123.972 240.211 115.82 225.297C107.667 210.383 89.3483 204.694 74.9035 212.591C60.4587 220.487 55.3579 238.978 63.5104 253.892C71.663 268.805 89.9817 274.494 104.427 266.598Z" fill="#2F2E41"/>
<path d="M89.665 272.062C103.23 272.062 114.226 261.066 114.226 247.501C114.226 233.936 103.23 222.94 89.665 222.94C76.1003 222.94 65.104 233.936 65.104 247.501C65.104 261.066 76.1003 272.062 89.665 272.062Z" fill="#FFB8B8"/>
<path d="M76.4957 285.07L73.3373 294.004L77.983 320.893L97.1292 336.801L112.333 313.291L105.013 291.047L99.5225 284.853C99.5764 284.296 99.5146 283.734 99.341 283.203C99.1675 282.671 98.8858 282.181 98.5139 281.763C98.1419 281.345 97.6876 281.009 97.1795 280.775C96.6713 280.541 96.1203 280.414 95.5611 280.404L83.5703 280.17C82.0258 280.14 80.5112 280.597 79.2412 281.477C77.9713 282.356 77.0107 283.613 76.4957 285.07Z" fill="#CCCCCC"/>
<path d="M127.376 568.297L139.636 568.295L141.329 521.007L127.372 521.009L127.376 568.297Z" fill="#FFB8B8"/>
<path d="M163.281 579.677L124.75 579.681L124.749 564.794L148.393 564.792C152.341 564.792 156.128 566.36 158.92 569.151C161.712 571.943 163.28 575.729 163.281 579.677Z" fill="#2F2E41"/>
<path d="M41.493 568.297L53.753 568.295L59.583 521.007L41.489 521.009L41.493 568.297Z" fill="#FFB8B8"/>
<path d="M77.3978 579.677L38.8671 579.681L38.8657 564.794L62.5096 564.792C66.4578 564.792 70.2445 566.36 73.0366 569.151C75.8287 571.943 77.3975 575.729 77.3978 579.677Z" fill="#2F2E41"/>
<path d="M149.289 236.207C150.547 236.968 151.622 237.995 152.44 239.217C153.258 240.438 153.798 241.824 154.022 243.277C154.247 244.73 154.15 246.214 153.738 247.626C153.327 249.037 152.611 250.341 151.641 251.446L161.781 272.067L150.752 281.285L136.842 251.963C135.094 250.211 134.05 247.878 133.907 245.407C133.764 242.936 134.533 240.499 136.067 238.556C137.601 236.614 139.795 235.302 142.231 234.869C144.668 234.436 147.179 234.912 149.289 236.207Z" fill="#FFB8B8"/>
<path d="M76.1927 397.68C70.216 397.602 64.2496 397.162 58.3262 396.362C57.3126 396.234 56.3382 395.89 55.4687 395.354C54.5993 394.818 53.8549 394.101 53.286 393.253C52.7171 392.404 52.3367 391.444 52.1706 390.436C52.0046 389.428 52.0567 388.396 52.3234 387.41L65.5947 338.269L54.907 308.285C53.7554 305.046 53.8845 301.491 55.2677 298.344C56.6509 295.198 59.1838 292.699 62.3484 291.359L77.029 285.152L81.4412 312.465L91.9533 325.72C92.3023 326.16 92.7545 326.507 93.2697 326.731C93.785 326.954 94.3474 327.048 94.9072 327.002C95.4671 326.957 96.0072 326.774 96.4796 326.471C96.9521 326.167 97.3425 325.751 97.6161 325.261L105.599 310.952L99.0783 284.66L108.8 285.81C111.938 286.192 114.906 287.447 117.366 289.434C119.826 291.42 121.678 294.057 122.712 297.045C125.699 305.733 125.96 315.127 123.458 323.968L119.43 338.28L126.504 384.001C126.697 385.247 126.636 386.519 126.323 387.741C126.01 388.962 125.453 390.107 124.684 391.107C123.916 392.106 122.953 392.94 121.853 393.556C120.753 394.172 119.54 394.559 118.286 394.692C113.766 395.213 109.214 395.403 104.666 395.262C100.54 395.086 97.6413 392.57 96.2844 387.985C96.2107 387.716 96.0512 387.479 95.8303 387.31C95.6094 387.141 95.3392 387.049 95.0609 387.047C94.7826 387.046 94.5115 387.135 94.2888 387.302C94.0662 387.469 93.9043 387.704 93.8278 387.972C93.4522 389.304 93.039 390.786 92.5883 392.42C91.4953 396.387 84.651 397.68 76.1927 397.68Z" fill="#2F2E41"/>
<path d="M118.849 308.979C117.63 308.983 116.423 308.744 115.297 308.278C113.974 307.73 112.807 306.865 111.897 305.76C110.987 304.655 110.362 303.343 110.078 301.94C109.65 299.714 109.948 297.41 110.929 295.367C111.91 293.324 113.522 291.65 115.526 290.593L144.173 275.039L142.606 268.844C142.389 267.894 142.456 266.901 142.799 265.988C143.141 265.076 143.743 264.284 144.531 263.71L151.918 258.223C152.479 257.793 153.13 257.493 153.822 257.347C154.514 257.201 155.23 257.212 155.918 257.378C156.523 257.531 157.088 257.817 157.569 258.215C158.05 258.614 158.435 259.115 158.697 259.683L162.535 267.968C165.571 274.523 162.975 282.597 156.496 286.747L124.367 307.33C122.723 308.395 120.808 308.968 118.849 308.979Z" fill="#2F2E41"/>
<path d="M58.4955 546.314C58.3958 546.314 58.2955 546.311 58.1947 546.305L42.5858 545.678C41.9804 545.64 41.3889 545.48 40.8468 545.208C40.3048 544.936 39.8233 544.557 39.4314 544.094C39.0395 543.631 38.7453 543.093 38.5663 542.514C38.3874 541.934 38.3275 541.324 38.3902 540.721L54.2323 388.31L95.8082 373.191L120.292 387.046L147.077 534.726C147.288 535.856 147.058 537.024 146.434 537.99C145.811 538.956 144.842 539.647 143.725 539.921L143.661 539.937L127.682 539.544C126.581 539.793 125.426 539.621 124.446 539.06C123.466 538.5 122.731 537.592 122.387 536.517L88.3583 417.103C88.2562 416.792 88.0546 416.522 87.7846 416.336C87.5146 416.149 87.1911 416.057 86.8634 416.072C86.5357 416.087 86.222 416.209 85.9704 416.42C85.7187 416.63 85.543 416.917 85.4701 417.237L62.8799 542.79C62.6605 543.79 62.1061 544.684 61.3087 545.325C60.5112 545.966 59.5186 546.315 58.4955 546.314Z" fill="#2F2E41"/>
<path d="M68.2134 231.996C64.3063 237.111 67.2798 245.817 73.4996 247.474C79.7195 249.131 86.6298 243.056 85.7845 236.675C84.4422 243.37 90.1719 250.376 96.9739 250.971C103.776 251.567 110.39 246.237 111.878 239.573C113.366 232.91 110.045 225.629 104.391 221.801C98.7368 217.972 91.1656 217.475 84.7683 219.862C78.2378 222.304 72.5088 226.503 68.2134 231.996Z" fill="#2F2E41"/>
<path d="M97.821 210.162C94.1829 202.527 90.4449 194.746 84.5647 188.667C78.6845 182.588 70.1782 178.401 61.843 179.834C53.5079 181.268 46.3301 189.68 48.1762 197.934C49.114 202.126 45.5242 206.28 41.3863 207.435C37.2485 208.59 32.8386 207.51 28.748 206.198C24.6574 204.885 20.5134 203.318 16.2213 203.503C7.61518 203.873 0.419858 212.02 0.117518 220.628C-0.184822 229.237 5.67131 237.432 13.5282 240.963C21.3851 244.495 30.7832 243.704 38.533 239.943C46.2827 236.182 52.4793 229.698 57.0105 222.372C63.7061 211.546 80.5318 208.876 90.2498 217.097C91.2905 217.914 92.6008 218.309 93.9197 218.203C95.2385 218.098 96.4691 217.499 97.3663 216.526C99.085 214.521 98.8359 211.138 97.821 210.162Z" fill="#2F2E41"/>
<path d="M77.3709 354.124C76.9032 352.73 76.1355 351.456 75.1221 350.391C74.1086 349.326 72.874 348.496 71.5052 347.96C70.1364 347.424 68.6667 347.195 67.1995 347.288C65.7324 347.381 64.3036 347.795 63.0137 348.5L45.0396 334.998L40.7008 347.35L59.2763 362.829C60.6046 364.917 62.653 366.446 65.033 367.125C67.4131 367.804 69.9596 367.586 72.19 366.513C74.4204 365.44 76.1797 363.587 77.1346 361.303C78.0895 359.02 78.1735 356.465 77.3709 354.124Z" fill="#FFB8B8"/>
<path d="M51.5991 358.383C50.8074 358.383 50.0319 358.158 49.3631 357.734L41.6442 352.855C35.5368 348.996 33.3375 340.806 36.5284 333.804L52.3518 299.082C52.9868 297.627 53.9646 296.347 55.2017 295.351C56.4388 294.356 57.8985 293.675 59.456 293.366C60.8643 293.108 62.3143 293.201 63.6784 293.635C65.0425 294.07 66.2788 294.833 67.2784 295.858C68.8458 297.495 69.8455 299.593 70.1299 301.841C70.4143 304.09 69.9684 306.37 68.858 308.346L53.232 336.954L57.9096 341.307C58.6072 341.988 59.0896 342.858 59.2973 343.81C59.5049 344.763 59.4285 345.755 59.0776 346.664L55.8496 355.281C55.6113 355.947 55.2271 356.551 54.725 357.05C54.2229 357.548 53.6158 357.928 52.948 358.161C52.5133 358.308 52.0578 358.382 51.5991 358.383Z" fill="#2F2E41"/>
<path d="M99 32.2857V145.286C99 163.043 113.006 177.571 130.125 177.571H192.375V226L254.625 177.571H316.875C334.009 177.571 348 163.043 348 145.286V32.2857C348 14.5286 334.009 0 316.875 0H130.125C113.006 0 99 14.5286 99 32.2857Z" fill="#467599"/>
<path d="M114.76 50.4932C112.348 49.7998 110.59 48.9502 109.486 47.9443C108.393 46.9287 107.846 45.6787 107.846 44.1943C107.846 42.5146 108.515 41.1279 109.853 40.0342C111.2 38.9307 112.948 38.3789 115.097 38.3789C116.562 38.3789 117.865 38.6621 119.008 39.2285C120.16 39.7949 121.049 40.5762 121.674 41.5723C122.309 42.5684 122.626 43.6572 122.626 44.8389H119.799C119.799 43.5498 119.389 42.5391 118.568 41.8066C117.748 41.0645 116.591 40.6934 115.097 40.6934C113.71 40.6934 112.626 41.001 111.845 41.6162C111.073 42.2217 110.688 43.0664 110.688 44.1504C110.688 45.0195 111.054 45.7568 111.786 46.3623C112.528 46.958 113.783 47.5049 115.551 48.0029C117.328 48.501 118.715 49.0527 119.711 49.6582C120.717 50.2539 121.459 50.9521 121.938 51.7529C122.426 52.5537 122.67 53.4961 122.67 54.5801C122.67 56.3086 121.996 57.6953 120.648 58.7402C119.301 59.7754 117.499 60.293 115.243 60.293C113.778 60.293 112.411 60.0146 111.142 59.458C109.872 58.8916 108.891 58.1201 108.197 57.1436C107.514 56.167 107.172 55.0586 107.172 53.8184H109.999C109.999 55.1074 110.473 56.1279 111.42 56.8799C112.377 57.6221 113.651 57.9932 115.243 57.9932C116.728 57.9932 117.865 57.6904 118.656 57.085C119.447 56.4795 119.843 55.6543 119.843 54.6094C119.843 53.5645 119.477 52.7588 118.744 52.1924C118.012 51.6162 116.684 51.0498 114.76 50.4932ZM132.44 60.293C130.292 60.293 128.544 59.5898 127.196 58.1836C125.849 56.7676 125.175 54.8779 125.175 52.5146V52.0166C125.175 50.4443 125.473 49.043 126.068 47.8125C126.674 46.5723 127.514 45.6055 128.588 44.9121C129.672 44.209 130.844 43.8574 132.104 43.8574C134.164 43.8574 135.766 44.5361 136.908 45.8936C138.051 47.251 138.622 49.1943 138.622 51.7236V52.8516H127.885C127.924 54.4141 128.378 55.6787 129.247 56.6455C130.126 57.6025 131.239 58.0811 132.587 58.0811C133.544 58.0811 134.354 57.8857 135.019 57.4951C135.683 57.1045 136.264 56.5869 136.762 55.9424L138.417 57.2314C137.089 59.2725 135.097 60.293 132.44 60.293ZM132.104 46.084C131.01 46.084 130.092 46.4844 129.35 47.2852C128.607 48.0762 128.148 49.1895 127.973 50.625H135.912V50.4199C135.834 49.043 135.463 47.9785 134.799 47.2266C134.135 46.4648 133.236 46.084 132.104 46.084ZM144.335 44.1504L144.423 46.1426C145.634 44.6191 147.216 43.8574 149.169 43.8574C152.519 43.8574 154.208 45.7471 154.237 49.5264V60H151.527V49.5117C151.518 48.3691 151.254 47.5244 150.736 46.9775C150.229 46.4307 149.433 46.1572 148.349 46.1572C147.47 46.1572 146.698 46.3916 146.034 46.8604C145.37 47.3291 144.853 47.9443 144.481 48.7061V60H141.771V44.1504H144.335ZM157.665 51.9434C157.665 49.5117 158.241 47.5586 159.394 46.084C160.546 44.5996 162.055 43.8574 163.92 43.8574C165.775 43.8574 167.245 44.4922 168.329 45.7617V37.5H171.039V60H168.549L168.417 58.3008C167.333 59.6289 165.824 60.293 163.891 60.293C162.055 60.293 160.556 59.541 159.394 58.0371C158.241 56.5332 157.665 54.5703 157.665 52.1484V51.9434ZM160.375 52.251C160.375 54.0479 160.746 55.4541 161.488 56.4697C162.23 57.4854 163.256 57.9932 164.564 57.9932C166.283 57.9932 167.538 57.2217 168.329 55.6787V48.3984C167.519 46.9043 166.273 46.1572 164.594 46.1572C163.266 46.1572 162.23 46.6699 161.488 47.6953C160.746 48.7207 160.375 50.2393 160.375 52.251ZM187.885 56.0303L191.576 44.1504H194.477L188.104 62.4463C187.118 65.083 185.551 66.4014 183.402 66.4014L182.89 66.3574L181.879 66.167V63.9697L182.611 64.0283C183.529 64.0283 184.242 63.8428 184.75 63.4717C185.268 63.1006 185.692 62.4219 186.024 61.4355L186.625 59.8242L180.971 44.1504H183.93L187.885 56.0303ZM195.956 51.9287C195.956 50.376 196.259 48.9795 196.864 47.7393C197.479 46.499 198.329 45.542 199.413 44.8682C200.507 44.1943 201.752 43.8574 203.148 43.8574C205.307 43.8574 207.05 44.6045 208.378 46.0986C209.716 47.5928 210.385 49.5801 210.385 52.0605V52.251C210.385 53.7939 210.087 55.1807 209.491 56.4111C208.905 57.6318 208.061 58.584 206.957 59.2676C205.863 59.9512 204.604 60.293 203.178 60.293C201.029 60.293 199.286 59.5459 197.948 58.0518C196.62 56.5576 195.956 54.5801 195.956 52.1191V51.9287ZM198.681 52.251C198.681 54.0088 199.086 55.4199 199.896 56.4844C200.717 57.5488 201.811 58.0811 203.178 58.0811C204.555 58.0811 205.648 57.5439 206.459 56.4697C207.27 55.3857 207.675 53.8721 207.675 51.9287C207.675 50.1904 207.26 48.7842 206.43 47.71C205.609 46.626 204.516 46.084 203.148 46.084C201.811 46.084 200.731 46.6162 199.911 47.6807C199.091 48.7451 198.681 50.2686 198.681 52.251ZM223.568 58.4326C222.514 59.6729 220.966 60.293 218.925 60.293C217.235 60.293 215.946 59.8047 215.058 58.8281C214.179 57.8418 213.734 56.3867 213.725 54.4629V44.1504H216.435V54.3896C216.435 56.792 217.411 57.9932 219.364 57.9932C221.435 57.9932 222.812 57.2217 223.495 55.6787V44.1504H226.205V60H223.627L223.568 58.4326ZM237.997 46.582C237.587 46.5137 237.143 46.4795 236.664 46.4795C234.887 46.4795 233.681 47.2363 233.046 48.75V60H230.336V44.1504H232.973L233.017 45.9814C233.905 44.5654 235.165 43.8574 236.796 43.8574C237.323 43.8574 237.724 43.9258 237.997 44.0625V46.582ZM249.276 60V46.2451H246.771V44.1504H249.276V42.5244C249.276 40.8252 249.73 39.5117 250.639 38.584C251.547 37.6562 252.831 37.1924 254.491 37.1924C255.116 37.1924 255.736 37.2754 256.352 37.4414L256.205 39.6387C255.746 39.5508 255.258 39.5068 254.74 39.5068C253.861 39.5068 253.183 39.7656 252.704 40.2832C252.226 40.791 251.986 41.5234 251.986 42.4805V44.1504H255.37V46.2451H251.986V60H249.276ZM266.034 46.582C265.624 46.5137 265.18 46.4795 264.701 46.4795C262.924 46.4795 261.718 47.2363 261.083 48.75V60H258.373V44.1504H261.01L261.054 45.9814C261.942 44.5654 263.202 43.8574 264.833 43.8574C265.36 43.8574 265.761 43.9258 266.034 44.0625V46.582ZM271.483 60H268.773V44.1504H271.483V60ZM268.554 39.9463C268.554 39.5068 268.686 39.1357 268.949 38.833C269.223 38.5303 269.623 38.3789 270.15 38.3789C270.678 38.3789 271.078 38.5303 271.352 38.833C271.625 39.1357 271.762 39.5068 271.762 39.9463C271.762 40.3857 271.625 40.752 271.352 41.0449C271.078 41.3379 270.678 41.4844 270.15 41.4844C269.623 41.4844 269.223 41.3379 268.949 41.0449C268.686 40.752 268.554 40.3857 268.554 39.9463ZM282.411 60.293C280.263 60.293 278.515 59.5898 277.167 58.1836C275.819 56.7676 275.146 54.8779 275.146 52.5146V52.0166C275.146 50.4443 275.443 49.043 276.039 47.8125C276.645 46.5723 277.484 45.6055 278.559 44.9121C279.643 44.209 280.814 43.8574 282.074 43.8574C284.135 43.8574 285.736 44.5361 286.879 45.8936C288.021 47.251 288.593 49.1943 288.593 51.7236V52.8516H277.855C277.895 54.4141 278.349 55.6787 279.218 56.6455C280.097 57.6025 281.21 58.0811 282.558 58.0811C283.515 58.0811 284.325 57.8857 284.989 57.4951C285.653 57.1045 286.234 56.5869 286.732 55.9424L288.388 57.2314C287.06 59.2725 285.067 60.293 282.411 60.293ZM282.074 46.084C280.98 46.084 280.062 46.4844 279.32 47.2852C278.578 48.0762 278.119 49.1895 277.943 50.625H285.883V50.4199C285.805 49.043 285.434 47.9785 284.77 47.2266C284.105 46.4648 283.207 46.084 282.074 46.084ZM294.306 44.1504L294.394 46.1426C295.604 44.6191 297.187 43.8574 299.14 43.8574C302.489 43.8574 304.179 45.7471 304.208 49.5264V60H301.498V49.5117C301.488 48.3691 301.225 47.5244 300.707 46.9775C300.199 46.4307 299.403 46.1572 298.319 46.1572C297.44 46.1572 296.669 46.3916 296.005 46.8604C295.341 47.3291 294.823 47.9443 294.452 48.7061V60H291.742V44.1504H294.306ZM307.636 51.9434C307.636 49.5117 308.212 47.5586 309.364 46.084C310.517 44.5996 312.025 43.8574 313.891 43.8574C315.746 43.8574 317.216 44.4922 318.3 45.7617V37.5H321.01V60H318.52L318.388 58.3008C317.304 59.6289 315.795 60.293 313.861 60.293C312.025 60.293 310.526 59.541 309.364 58.0371C308.212 56.5332 307.636 54.5703 307.636 52.1484V51.9434ZM310.346 52.251C310.346 54.0479 310.717 55.4541 311.459 56.4697C312.201 57.4854 313.227 57.9932 314.535 57.9932C316.254 57.9932 317.509 57.2217 318.3 55.6787V48.3984C317.489 46.9043 316.244 46.1572 314.564 46.1572C313.236 46.1572 312.201 46.6699 311.459 47.6953C310.717 48.7207 310.346 50.2393 310.346 52.251ZM334.457 55.7959C334.457 55.0635 334.179 54.4971 333.622 54.0967C333.075 53.6865 332.113 53.335 330.736 53.042C329.369 52.749 328.28 52.3975 327.47 51.9873C326.669 51.5771 326.073 51.0889 325.683 50.5225C325.302 49.9561 325.111 49.2822 325.111 48.501C325.111 47.2021 325.658 46.1035 326.752 45.2051C327.855 44.3066 329.262 43.8574 330.971 43.8574C332.768 43.8574 334.223 44.3213 335.336 45.249C336.459 46.1768 337.021 47.3633 337.021 48.8086H334.296C334.296 48.0664 333.979 47.4268 333.344 46.8896C332.719 46.3525 331.928 46.084 330.971 46.084C329.984 46.084 329.213 46.2988 328.656 46.7285C328.1 47.1582 327.821 47.7197 327.821 48.4131C327.821 49.0674 328.08 49.5605 328.598 49.8926C329.115 50.2246 330.048 50.542 331.396 50.8447C332.753 51.1475 333.852 51.5088 334.691 51.9287C335.531 52.3486 336.151 52.8564 336.552 53.4521C336.962 54.0381 337.167 54.7559 337.167 55.6055C337.167 57.0215 336.601 58.1592 335.468 59.0186C334.335 59.8682 332.865 60.293 331.059 60.293C329.789 60.293 328.666 60.0684 327.689 59.6191C326.713 59.1699 325.946 58.5449 325.39 57.7441C324.843 56.9336 324.569 56.0596 324.569 55.1221H327.279C327.328 56.0303 327.689 56.7529 328.363 57.29C329.047 57.8174 329.945 58.0811 331.059 58.0811C332.084 58.0811 332.904 57.876 333.52 57.4658C334.145 57.0459 334.457 56.4893 334.457 55.7959ZM110.6 79.1504L110.673 80.9082C111.835 79.541 113.402 78.8574 115.375 78.8574C117.592 78.8574 119.101 79.707 119.901 81.4062C120.429 80.6445 121.112 80.0293 121.952 79.5605C122.802 79.0918 123.803 78.8574 124.955 78.8574C128.432 78.8574 130.199 80.6982 130.258 84.3799V95H127.548V84.541C127.548 83.4082 127.289 82.5635 126.771 82.0068C126.254 81.4404 125.385 81.1572 124.164 81.1572C123.158 81.1572 122.323 81.46 121.659 82.0654C120.995 82.6611 120.609 83.4668 120.502 84.4824V95H117.777V84.6143C117.777 82.3096 116.649 81.1572 114.394 81.1572C112.616 81.1572 111.4 81.9141 110.746 83.4277V95H108.036V79.1504H110.6ZM140.937 95.293C138.788 95.293 137.04 94.5898 135.692 93.1836C134.345 91.7676 133.671 89.8779 133.671 87.5146V87.0166C133.671 85.4443 133.969 84.043 134.564 82.8125C135.17 81.5723 136.01 80.6055 137.084 79.9121C138.168 79.209 139.34 78.8574 140.6 78.8574C142.66 78.8574 144.262 79.5361 145.404 80.8936C146.547 82.251 147.118 84.1943 147.118 86.7236V87.8516H136.381C136.42 89.4141 136.874 90.6787 137.743 91.6455C138.622 92.6025 139.735 93.0811 141.083 93.0811C142.04 93.0811 142.851 92.8857 143.515 92.4951C144.179 92.1045 144.76 91.5869 145.258 90.9424L146.913 92.2314C145.585 94.2725 143.593 95.293 140.937 95.293ZM140.6 81.084C139.506 81.084 138.588 81.4844 137.846 82.2852C137.104 83.0762 136.645 84.1895 136.469 85.625H144.408V85.4199C144.33 84.043 143.959 82.9785 143.295 82.2266C142.631 81.4648 141.732 81.084 140.6 81.084ZM159.496 90.7959C159.496 90.0635 159.218 89.4971 158.661 89.0967C158.114 88.6865 157.152 88.335 155.775 88.042C154.408 87.749 153.319 87.3975 152.509 86.9873C151.708 86.5771 151.112 86.0889 150.722 85.5225C150.341 84.9561 150.15 84.2822 150.15 83.501C150.15 82.2021 150.697 81.1035 151.791 80.2051C152.895 79.3066 154.301 78.8574 156.01 78.8574C157.807 78.8574 159.262 79.3213 160.375 80.249C161.498 81.1768 162.06 82.3633 162.06 83.8086H159.335C159.335 83.0664 159.018 82.4268 158.383 81.8896C157.758 81.3525 156.967 81.084 156.01 81.084C155.023 81.084 154.252 81.2988 153.695 81.7285C153.139 82.1582 152.86 82.7197 152.86 83.4131C152.86 84.0674 153.119 84.5605 153.637 84.8926C154.154 85.2246 155.087 85.542 156.435 85.8447C157.792 86.1475 158.891 86.5088 159.73 86.9287C160.57 87.3486 161.19 87.8564 161.591 88.4521C162.001 89.0381 162.206 89.7559 162.206 90.6055C162.206 92.0215 161.64 93.1592 160.507 94.0186C159.374 94.8682 157.904 95.293 156.098 95.293C154.828 95.293 153.705 95.0684 152.729 94.6191C151.752 94.1699 150.985 93.5449 150.429 92.7441C149.882 91.9336 149.608 91.0596 149.608 90.1221H152.318C152.367 91.0303 152.729 91.7529 153.402 92.29C154.086 92.8174 154.984 93.0811 156.098 93.0811C157.123 93.0811 157.943 92.876 158.559 92.4658C159.184 92.0459 159.496 91.4893 159.496 90.7959ZM174.965 90.7959C174.965 90.0635 174.687 89.4971 174.13 89.0967C173.583 88.6865 172.621 88.335 171.244 88.042C169.877 87.749 168.788 87.3975 167.978 86.9873C167.177 86.5771 166.581 86.0889 166.19 85.5225C165.81 84.9561 165.619 84.2822 165.619 83.501C165.619 82.2021 166.166 81.1035 167.26 80.2051C168.363 79.3066 169.77 78.8574 171.479 78.8574C173.275 78.8574 174.73 79.3213 175.844 80.249C176.967 81.1768 177.528 82.3633 177.528 83.8086H174.804C174.804 83.0664 174.486 82.4268 173.852 81.8896C173.227 81.3525 172.436 81.084 171.479 81.084C170.492 81.084 169.721 81.2988 169.164 81.7285C168.607 82.1582 168.329 82.7197 168.329 83.4131C168.329 84.0674 168.588 84.5605 169.105 84.8926C169.623 85.2246 170.556 85.542 171.903 85.8447C173.261 86.1475 174.359 86.5088 175.199 86.9287C176.039 87.3486 176.659 87.8564 177.06 88.4521C177.47 89.0381 177.675 89.7559 177.675 90.6055C177.675 92.0215 177.108 93.1592 175.976 94.0186C174.843 94.8682 173.373 95.293 171.566 95.293C170.297 95.293 169.174 95.0684 168.197 94.6191C167.221 94.1699 166.454 93.5449 165.897 92.7441C165.351 91.9336 165.077 91.0596 165.077 90.1221H167.787C167.836 91.0303 168.197 91.7529 168.871 92.29C169.555 92.8174 170.453 93.0811 171.566 93.0811C172.592 93.0811 173.412 92.876 174.027 92.4658C174.652 92.0459 174.965 91.4893 174.965 90.7959ZM190.99 95C190.834 94.6875 190.707 94.1309 190.609 93.3301C189.35 94.6387 187.846 95.293 186.098 95.293C184.535 95.293 183.251 94.8535 182.245 93.9746C181.249 93.0859 180.751 91.9629 180.751 90.6055C180.751 88.9551 181.376 87.6758 182.626 86.7676C183.886 85.8496 185.653 85.3906 187.929 85.3906H190.565V84.1455C190.565 83.1982 190.282 82.4463 189.716 81.8896C189.149 81.3232 188.314 81.04 187.211 81.04C186.244 81.04 185.434 81.2842 184.779 81.7725C184.125 82.2607 183.798 82.8516 183.798 83.5449H181.073C181.073 82.7539 181.352 81.9922 181.908 81.2598C182.475 80.5176 183.236 79.9316 184.193 79.502C185.16 79.0723 186.22 78.8574 187.372 78.8574C189.198 78.8574 190.629 79.3164 191.664 80.2344C192.699 81.1426 193.236 82.3975 193.275 83.999V91.2939C193.275 92.749 193.461 93.9062 193.832 94.7656V95H190.99ZM186.493 92.9346C187.343 92.9346 188.148 92.7148 188.91 92.2754C189.672 91.8359 190.224 91.2646 190.565 90.5615V87.3096H188.441C185.121 87.3096 183.461 88.2812 183.461 90.2246C183.461 91.0742 183.744 91.7383 184.311 92.2168C184.877 92.6953 185.604 92.9346 186.493 92.9346ZM196.879 86.9434C196.879 84.4727 197.45 82.5098 198.593 81.0547C199.735 79.5898 201.249 78.8574 203.134 78.8574C205.067 78.8574 206.576 79.541 207.66 80.9082L207.792 79.1504H210.268V94.6191C210.268 96.6699 209.657 98.2861 208.437 99.4678C207.226 100.649 205.595 101.24 203.544 101.24C202.401 101.24 201.283 100.996 200.189 100.508C199.096 100.02 198.261 99.3506 197.685 98.501L199.091 96.875C200.253 98.3105 201.674 99.0283 203.354 99.0283C204.672 99.0283 205.697 98.6572 206.43 97.915C207.172 97.1729 207.543 96.1279 207.543 94.7803V93.418C206.459 94.668 204.979 95.293 203.104 95.293C201.249 95.293 199.745 94.5459 198.593 93.0518C197.45 91.5576 196.879 89.5215 196.879 86.9434ZM199.604 87.251C199.604 89.0381 199.97 90.4443 200.702 91.4697C201.435 92.4854 202.46 92.9932 203.778 92.9932C205.487 92.9932 206.742 92.2168 207.543 90.6641V83.4277C206.713 81.9141 205.468 81.1572 203.808 81.1572C202.489 81.1572 201.459 81.6699 200.717 82.6953C199.975 83.7207 199.604 85.2393 199.604 87.251ZM220.946 95.293C218.798 95.293 217.05 94.5898 215.702 93.1836C214.354 91.7676 213.681 89.8779 213.681 87.5146V87.0166C213.681 85.4443 213.979 84.043 214.574 82.8125C215.18 81.5723 216.02 80.6055 217.094 79.9121C218.178 79.209 219.35 78.8574 220.609 78.8574C222.67 78.8574 224.271 79.5361 225.414 80.8936C226.557 82.251 227.128 84.1943 227.128 86.7236V87.8516H216.391C216.43 89.4141 216.884 90.6787 217.753 91.6455C218.632 92.6025 219.745 93.0811 221.093 93.0811C222.05 93.0811 222.86 92.8857 223.524 92.4951C224.188 92.1045 224.77 91.5869 225.268 90.9424L226.923 92.2314C225.595 94.2725 223.603 95.293 220.946 95.293ZM220.609 81.084C219.516 81.084 218.598 81.4844 217.855 82.2852C217.113 83.0762 216.654 84.1895 216.479 85.625H224.418V85.4199C224.34 84.043 223.969 82.9785 223.305 82.2266C222.641 81.4648 221.742 81.084 220.609 81.084ZM239.506 90.7959C239.506 90.0635 239.228 89.4971 238.671 89.0967C238.124 88.6865 237.162 88.335 235.785 88.042C234.418 87.749 233.329 87.3975 232.519 86.9873C231.718 86.5771 231.122 86.0889 230.731 85.5225C230.351 84.9561 230.16 84.2822 230.16 83.501C230.16 82.2021 230.707 81.1035 231.801 80.2051C232.904 79.3066 234.311 78.8574 236.02 78.8574C237.816 78.8574 239.271 79.3213 240.385 80.249C241.508 81.1768 242.069 82.3633 242.069 83.8086H239.345C239.345 83.0664 239.027 82.4268 238.393 81.8896C237.768 81.3525 236.977 81.084 236.02 81.084C235.033 81.084 234.262 81.2988 233.705 81.7285C233.148 82.1582 232.87 82.7197 232.87 83.4131C232.87 84.0674 233.129 84.5605 233.646 84.8926C234.164 85.2246 235.097 85.542 236.444 85.8447C237.802 86.1475 238.9 86.5088 239.74 86.9287C240.58 87.3486 241.2 87.8564 241.601 88.4521C242.011 89.0381 242.216 89.7559 242.216 90.6055C242.216 92.0215 241.649 93.1592 240.517 94.0186C239.384 94.8682 237.914 95.293 236.107 95.293C234.838 95.293 233.715 95.0684 232.738 94.6191C231.762 94.1699 230.995 93.5449 230.438 92.7441C229.892 91.9336 229.618 91.0596 229.618 90.1221H232.328C232.377 91.0303 232.738 91.7529 233.412 92.29C234.096 92.8174 234.994 93.0811 236.107 93.0811C237.133 93.0811 237.953 92.876 238.568 92.4658C239.193 92.0459 239.506 91.4893 239.506 90.7959ZM256.864 75.3125V79.1504H259.823V81.2451H256.864V91.0742C256.864 91.709 256.996 92.1875 257.26 92.5098C257.523 92.8223 257.973 92.9785 258.607 92.9785C258.92 92.9785 259.35 92.9199 259.896 92.8027V95C259.184 95.1953 258.49 95.293 257.816 95.293C256.605 95.293 255.692 94.9268 255.077 94.1943C254.462 93.4619 254.154 92.4219 254.154 91.0742V81.2451H251.269V79.1504H254.154V75.3125H256.864ZM261.991 86.9287C261.991 85.376 262.294 83.9795 262.899 82.7393C263.515 81.499 264.364 80.542 265.448 79.8682C266.542 79.1943 267.787 78.8574 269.184 78.8574C271.342 78.8574 273.085 79.6045 274.413 81.0986C275.751 82.5928 276.42 84.5801 276.42 87.0605V87.251C276.42 88.7939 276.122 90.1807 275.526 91.4111C274.94 92.6318 274.096 93.584 272.992 94.2676C271.898 94.9512 270.639 95.293 269.213 95.293C267.064 95.293 265.321 94.5459 263.983 93.0518C262.655 91.5576 261.991 89.5801 261.991 87.1191V86.9287ZM264.716 87.251C264.716 89.0088 265.121 90.4199 265.932 91.4844C266.752 92.5488 267.846 93.0811 269.213 93.0811C270.59 93.0811 271.684 92.5439 272.494 91.4697C273.305 90.3857 273.71 88.8721 273.71 86.9287C273.71 85.1904 273.295 83.7842 272.465 82.71C271.645 81.626 270.551 81.084 269.184 81.084C267.846 81.084 266.767 81.6162 265.946 82.6807C265.126 83.7451 264.716 85.2686 264.716 87.251ZM297.045 95C296.889 94.6875 296.762 94.1309 296.664 93.3301C295.404 94.6387 293.9 95.293 292.152 95.293C290.59 95.293 289.306 94.8535 288.3 93.9746C287.304 93.0859 286.806 91.9629 286.806 90.6055C286.806 88.9551 287.431 87.6758 288.681 86.7676C289.94 85.8496 291.708 85.3906 293.983 85.3906H296.62V84.1455C296.62 83.1982 296.337 82.4463 295.771 81.8896C295.204 81.3232 294.369 81.04 293.266 81.04C292.299 81.04 291.488 81.2842 290.834 81.7725C290.18 82.2607 289.853 82.8516 289.853 83.5449H287.128C287.128 82.7539 287.406 81.9922 287.963 81.2598C288.529 80.5176 289.291 79.9316 290.248 79.502C291.215 79.0723 292.274 78.8574 293.427 78.8574C295.253 78.8574 296.684 79.3164 297.719 80.2344C298.754 81.1426 299.291 82.3975 299.33 83.999V91.2939C299.33 92.749 299.516 93.9062 299.887 94.7656V95H297.045ZM292.548 92.9346C293.397 92.9346 294.203 92.7148 294.965 92.2754C295.727 91.8359 296.278 91.2646 296.62 90.5615V87.3096H294.496C291.176 87.3096 289.516 88.2812 289.516 90.2246C289.516 91.0742 289.799 91.7383 290.365 92.2168C290.932 92.6953 291.659 92.9346 292.548 92.9346ZM302.919 86.9434C302.919 84.5117 303.495 82.5586 304.647 81.084C305.8 79.5996 307.309 78.8574 309.174 78.8574C311.029 78.8574 312.499 79.4922 313.583 80.7617V72.5H316.293V95H313.803L313.671 93.3008C312.587 94.6289 311.078 95.293 309.145 95.293C307.309 95.293 305.81 94.541 304.647 93.0371C303.495 91.5332 302.919 89.5703 302.919 87.1484V86.9434ZM305.629 87.251C305.629 89.0479 306 90.4541 306.742 91.4697C307.484 92.4854 308.51 92.9932 309.818 92.9932C311.537 92.9932 312.792 92.2217 313.583 90.6787V83.3984C312.772 81.9043 311.527 81.1572 309.848 81.1572C308.52 81.1572 307.484 81.6699 306.742 82.6953C306 83.7207 305.629 85.2393 305.629 87.251ZM319.853 86.9434C319.853 84.5117 320.429 82.5586 321.581 81.084C322.733 79.5996 324.242 78.8574 326.107 78.8574C327.963 78.8574 329.433 79.4922 330.517 80.7617V72.5H333.227V95H330.736L330.604 93.3008C329.521 94.6289 328.012 95.293 326.078 95.293C324.242 95.293 322.743 94.541 321.581 93.0371C320.429 91.5332 319.853 89.5703 319.853 87.1484V86.9434ZM322.562 87.251C322.562 89.0479 322.934 90.4541 323.676 91.4697C324.418 92.4854 325.443 92.9932 326.752 92.9932C328.471 92.9932 329.726 92.2217 330.517 90.6787V83.3984C329.706 81.9043 328.461 81.1572 326.781 81.1572C325.453 81.1572 324.418 81.6699 323.676 82.6953C322.934 83.7207 322.562 85.2393 322.562 87.251ZM111.728 110.312V114.15H114.687V116.245H111.728V126.074C111.728 126.709 111.859 127.188 112.123 127.51C112.387 127.822 112.836 127.979 113.471 127.979C113.783 127.979 114.213 127.92 114.76 127.803V130C114.047 130.195 113.354 130.293 112.68 130.293C111.469 130.293 110.556 129.927 109.94 129.194C109.325 128.462 109.018 127.422 109.018 126.074V116.245H106.132V114.15H109.018V110.312H111.728ZM120.575 116.069C121.776 114.595 123.339 113.857 125.263 113.857C128.612 113.857 130.302 115.747 130.331 119.526V130H127.621V119.512C127.611 118.369 127.348 117.524 126.83 116.978C126.322 116.431 125.526 116.157 124.442 116.157C123.563 116.157 122.792 116.392 122.128 116.86C121.464 117.329 120.946 117.944 120.575 118.706V130H117.865V107.5H120.575V116.069ZM140.966 130.293C138.817 130.293 137.069 129.59 135.722 128.184C134.374 126.768 133.7 124.878 133.7 122.515V122.017C133.7 120.444 133.998 119.043 134.594 117.812C135.199 116.572 136.039 115.605 137.113 114.912C138.197 114.209 139.369 113.857 140.629 113.857C142.689 113.857 144.291 114.536 145.434 115.894C146.576 117.251 147.147 119.194 147.147 121.724V122.852H136.41C136.449 124.414 136.903 125.679 137.772 126.646C138.651 127.603 139.765 128.081 141.112 128.081C142.069 128.081 142.88 127.886 143.544 127.495C144.208 127.104 144.789 126.587 145.287 125.942L146.942 127.231C145.614 129.272 143.622 130.293 140.966 130.293ZM140.629 116.084C139.535 116.084 138.617 116.484 137.875 117.285C137.133 118.076 136.674 119.189 136.498 120.625H144.438V120.42C144.359 119.043 143.988 117.979 143.324 117.227C142.66 116.465 141.762 116.084 140.629 116.084ZM152.846 114.15L152.919 115.908C154.081 114.541 155.648 113.857 157.621 113.857C159.838 113.857 161.347 114.707 162.147 116.406C162.675 115.645 163.358 115.029 164.198 114.561C165.048 114.092 166.049 113.857 167.201 113.857C170.678 113.857 172.445 115.698 172.504 119.38V130H169.794V119.541C169.794 118.408 169.535 117.563 169.018 117.007C168.5 116.44 167.631 116.157 166.41 116.157C165.404 116.157 164.569 116.46 163.905 117.065C163.241 117.661 162.855 118.467 162.748 119.482V130H160.023V119.614C160.023 117.31 158.896 116.157 156.64 116.157C154.862 116.157 153.646 116.914 152.992 118.428V130H150.282V114.15H152.846ZM187.724 110.312V114.15H190.683V116.245H187.724V126.074C187.724 126.709 187.855 127.188 188.119 127.51C188.383 127.822 188.832 127.979 189.467 127.979C189.779 127.979 190.209 127.92 190.756 127.803V130C190.043 130.195 189.35 130.293 188.676 130.293C187.465 130.293 186.552 129.927 185.937 129.194C185.321 128.462 185.014 127.422 185.014 126.074V116.245H182.128V114.15H185.014V110.312H187.724ZM192.851 121.929C192.851 120.376 193.153 118.979 193.759 117.739C194.374 116.499 195.224 115.542 196.308 114.868C197.401 114.194 198.646 113.857 200.043 113.857C202.201 113.857 203.944 114.604 205.272 116.099C206.61 117.593 207.279 119.58 207.279 122.061V122.251C207.279 123.794 206.981 125.181 206.386 126.411C205.8 127.632 204.955 128.584 203.852 129.268C202.758 129.951 201.498 130.293 200.072 130.293C197.924 130.293 196.181 129.546 194.843 128.052C193.515 126.558 192.851 124.58 192.851 122.119V121.929ZM195.575 122.251C195.575 124.009 195.98 125.42 196.791 126.484C197.611 127.549 198.705 128.081 200.072 128.081C201.449 128.081 202.543 127.544 203.354 126.47C204.164 125.386 204.569 123.872 204.569 121.929C204.569 120.19 204.154 118.784 203.324 117.71C202.504 116.626 201.41 116.084 200.043 116.084C198.705 116.084 197.626 116.616 196.806 117.681C195.985 118.745 195.575 120.269 195.575 122.251ZM224.477 128.081C225.443 128.081 226.288 127.788 227.011 127.202C227.733 126.616 228.134 125.884 228.212 125.005H230.775C230.727 125.913 230.414 126.777 229.838 127.598C229.262 128.418 228.49 129.072 227.523 129.561C226.566 130.049 225.551 130.293 224.477 130.293C222.318 130.293 220.6 129.575 219.32 128.14C218.051 126.694 217.416 124.722 217.416 122.222V121.768C217.416 120.225 217.699 118.853 218.266 117.651C218.832 116.45 219.643 115.518 220.697 114.854C221.762 114.189 223.017 113.857 224.462 113.857C226.239 113.857 227.714 114.39 228.886 115.454C230.067 116.519 230.697 117.9 230.775 119.6H228.212C228.134 118.574 227.743 117.734 227.04 117.08C226.347 116.416 225.487 116.084 224.462 116.084C223.085 116.084 222.016 116.582 221.254 117.578C220.502 118.564 220.126 119.995 220.126 121.87V122.383C220.126 124.209 220.502 125.615 221.254 126.602C222.006 127.588 223.08 128.081 224.477 128.081ZM236.532 116.069C237.733 114.595 239.296 113.857 241.22 113.857C244.569 113.857 246.259 115.747 246.288 119.526V130H243.578V119.512C243.568 118.369 243.305 117.524 242.787 116.978C242.279 116.431 241.483 116.157 240.399 116.157C239.521 116.157 238.749 116.392 238.085 116.86C237.421 117.329 236.903 117.944 236.532 118.706V130H233.822V107.5H236.532V116.069ZM260.131 130C259.975 129.688 259.848 129.131 259.75 128.33C258.49 129.639 256.986 130.293 255.238 130.293C253.676 130.293 252.392 129.854 251.386 128.975C250.39 128.086 249.892 126.963 249.892 125.605C249.892 123.955 250.517 122.676 251.767 121.768C253.026 120.85 254.794 120.391 257.069 120.391H259.706V119.146C259.706 118.198 259.423 117.446 258.856 116.89C258.29 116.323 257.455 116.04 256.352 116.04C255.385 116.04 254.574 116.284 253.92 116.772C253.266 117.261 252.938 117.852 252.938 118.545H250.214C250.214 117.754 250.492 116.992 251.049 116.26C251.615 115.518 252.377 114.932 253.334 114.502C254.301 114.072 255.36 113.857 256.513 113.857C258.339 113.857 259.77 114.316 260.805 115.234C261.84 116.143 262.377 117.397 262.416 118.999V126.294C262.416 127.749 262.602 128.906 262.973 129.766V130H260.131ZM255.634 127.935C256.483 127.935 257.289 127.715 258.051 127.275C258.812 126.836 259.364 126.265 259.706 125.562V122.31H257.582C254.262 122.31 252.602 123.281 252.602 125.225C252.602 126.074 252.885 126.738 253.451 127.217C254.018 127.695 254.745 127.935 255.634 127.935ZM270.341 110.312V114.15H273.3V116.245H270.341V126.074C270.341 126.709 270.473 127.188 270.736 127.51C271 127.822 271.449 127.979 272.084 127.979C272.396 127.979 272.826 127.92 273.373 127.803V130C272.66 130.195 271.967 130.293 271.293 130.293C270.082 130.293 269.169 129.927 268.554 129.194C267.938 128.462 267.631 127.422 267.631 126.074V116.245H264.745V114.15H267.631V110.312H270.341Z" fill="#E9FFF9"/>
</svg>
