<svg width="351" height="468" viewBox="0 0 351 468" fill="none" xmlns="http://www.w3.org/2000/svg">
<path d="M249.096 155.197L184.624 121.672C184.624 121.672 162.973 97.8283 149.376 87.0587C135.779 76.2891 131.593 84.2008 131.593 84.2008L125.878 93.7272L139.691 112.939L177.003 144.535L243.672 170.648C244.715 172.356 246.221 173.732 248.015 174.618C249.809 175.503 251.817 175.862 253.806 175.651C255.796 175.441 257.685 174.671 259.254 173.429C260.823 172.188 262.007 170.527 262.67 168.64C263.333 166.752 263.446 164.715 262.997 162.766C262.548 160.816 261.555 159.034 260.134 157.626C258.713 156.219 256.921 155.243 254.967 154.813C253.013 154.383 250.978 154.516 249.096 155.197V155.197Z" fill="#9F616A"/>
<path d="M81.397 126.202L77.5799 102.85L66.8019 100.155C66.8019 100.155 58.2481 97.5203 56.2487 114.75C54.2494 131.98 55.7995 164.149 55.7995 164.149L33.9167 233.445C32.0964 234.291 30.5542 235.638 29.4695 237.327C28.3848 239.016 27.8023 240.979 27.7898 242.986C27.7774 244.994 28.3354 246.963 29.3991 248.666C30.4628 250.369 31.9882 251.734 33.7978 252.603C35.6074 253.472 37.6267 253.81 39.6205 253.576C41.6144 253.342 43.5007 252.546 45.0599 251.281C46.6191 250.017 47.7869 248.335 48.4275 246.433C49.068 244.53 49.1549 242.485 48.678 240.535L77.3556 174.927L81.397 126.202Z" fill="#9F616A"/>
<path d="M170.545 453.915L184.648 453.914L191.358 399.515L170.542 399.516L170.545 453.915Z" fill="#9F616A"/>
<path d="M166.947 449.31L194.722 449.309H194.723C199.418 449.309 203.92 451.174 207.239 454.494C210.559 457.813 212.424 462.315 212.424 467.009V467.585L166.948 467.586L166.947 449.31Z" fill="#2F2E41"/>
<path d="M16.716 453.915L30.82 453.914L37.529 399.515L16.714 399.516L16.716 453.915Z" fill="#9F616A"/>
<path d="M13.1188 449.31L40.8939 449.309H40.895C45.5893 449.309 50.0913 451.174 53.4108 454.494C56.7302 457.813 58.5952 462.315 58.5955 467.009V467.585L13.1196 467.586L13.1188 449.31Z" fill="#2F2E41"/>
<path d="M86.343 79.5537L62.9503 99.5231L82.1482 160.276L86.4799 173.842C86.4799 173.842 60.0298 198.229 43.664 266.354C27.2983 334.479 0.525787 425.001 0.525787 425.001L57.0379 441.178L103.014 287.072L157.093 407.972L163.337 443.732L211.463 429.542L200.11 339.859L143.349 184.618L149.246 143.467C149.246 143.467 158.1 122.926 142.718 101.18L137.893 80.7459L120.61 76.4889L86.343 79.5537Z" fill="#2F2E41"/>
<path d="M125.205 68.6977H61.9599C60.659 68.6962 59.4117 68.1788 58.4918 67.2589C57.5719 66.3389 57.0544 65.0916 57.053 63.7907V36.5297C57.053 26.8414 60.9016 17.5499 67.7523 10.6993C74.6029 3.84863 83.8944 -3.05176e-05 93.5827 -3.05176e-05C103.271 -3.05176e-05 112.562 3.84863 119.413 10.6993C126.264 17.5499 130.112 26.8414 130.112 36.5297V63.7907C130.111 65.0916 129.593 66.3389 128.674 67.2589C127.754 68.1788 126.506 68.6962 125.205 68.6977V68.6977Z" fill="#2F2E41"/>
<path d="M124.589 54.1271C131.684 41.1483 126.914 24.8754 113.936 17.7805C100.957 10.6856 84.6838 15.4555 77.5889 28.4343C70.494 41.4132 75.2639 57.6861 88.2428 64.781C101.222 71.8759 117.495 67.106 124.589 54.1271Z" fill="#9F616A"/>
<path d="M138.754 39.2558H100.081L99.6847 33.7035L97.7019 39.2558H91.7471L90.9612 28.2513L87.0313 39.2558H75.509V38.7106C75.5176 31.0494 78.5648 23.7045 83.982 18.2872C89.3993 12.8699 96.7442 9.82263 104.405 9.81396H109.858C117.519 9.82261 124.864 12.8698 130.281 18.2871C135.699 23.7044 138.746 31.0494 138.754 38.7106V39.2558Z" fill="#2F2E41"/>
<path d="M99.7649 73.7865C99.4738 73.7862 99.1832 73.7606 98.8965 73.7098L70.5783 68.7134V21.9118H101.751L100.979 22.8117C90.2416 35.3347 98.3313 55.6409 104.109 66.6305C104.535 67.4354 104.725 68.3442 104.657 69.2522C104.589 70.1603 104.266 71.0307 103.725 71.7632C103.272 72.3896 102.677 72.8996 101.988 73.2513C101.3 73.6031 100.538 73.7865 99.7649 73.7865V73.7865Z" fill="#2F2E41"/>
<path d="M333.954 319.146L85.7728 406.892C79.6365 409.054 72.8933 408.694 67.0226 405.89C61.1519 403.086 56.633 398.068 54.4575 391.937L11.8235 271.352C9.66172 265.215 10.0223 258.472 12.8261 252.601C15.6299 246.731 20.6479 242.212 26.7792 240.036L274.96 152.289C281.097 150.128 287.84 150.488 293.71 153.292C299.581 156.096 304.1 161.114 306.276 167.245L348.91 287.83C351.071 293.967 350.711 300.71 347.907 306.58C345.103 312.451 340.085 316.97 333.954 319.146Z" fill="#9ED8DB"/>
<path d="M333.954 319.146L85.7728 406.892C79.6365 409.054 72.8933 408.694 67.0226 405.89C61.1519 403.086 56.633 398.068 54.4575 391.937L11.8235 271.352C9.66172 265.215 10.0223 258.472 12.8261 252.601C15.6299 246.731 20.6479 242.212 26.7792 240.036L274.96 152.289C281.097 150.128 287.84 150.488 293.71 153.292C299.581 156.096 304.1 161.114 306.276 167.245L348.91 287.83C351.071 293.967 350.711 300.71 347.907 306.58C345.103 312.451 340.085 316.97 333.954 319.146ZM27.275 241.438C21.5152 243.482 16.8014 247.727 14.1675 253.242C11.5337 258.757 11.1949 265.091 13.2256 270.856L55.8596 391.441C57.9034 397.201 62.1484 401.914 67.6633 404.548C73.1782 407.182 79.5127 407.521 85.277 405.49L333.458 317.744C339.218 315.7 343.932 311.455 346.566 305.94C349.199 300.425 349.538 294.09 347.507 288.326L304.873 167.741C302.83 161.981 298.585 157.267 293.07 154.634C287.555 152 281.22 151.661 275.456 153.692L27.275 241.438Z" fill="#9ED8DB"/>
<path d="M91.6914 318.874L89.0067 319.76L73.6597 307.517L78.8102 323.124L76.1255 324.01L69.4417 303.757L72.1264 302.871L87.5242 315.174L82.3507 299.497L85.0076 298.62L91.6914 318.874ZM92.8205 310.002C92.3339 308.527 92.1838 307.106 92.3701 305.739C92.5657 304.368 93.0726 303.193 93.8908 302.213C94.7183 301.231 95.7951 300.521 97.1212 300.083C99.1707 299.407 101.06 299.57 102.79 300.572C104.528 301.572 105.786 303.25 106.564 305.605L106.623 305.786C107.107 307.251 107.259 308.661 107.079 310.017C106.905 311.359 106.401 312.528 105.567 313.523C104.743 314.515 103.654 315.235 102.3 315.681C100.259 316.355 98.3699 316.192 96.6312 315.192C94.9017 314.189 93.6514 312.519 92.8802 310.182L92.8205 310.002ZM95.5089 309.454C96.0597 311.123 96.8868 312.336 97.9901 313.093C99.1027 313.847 100.308 314.009 101.606 313.581C102.914 313.149 103.784 312.297 104.217 311.023C104.647 309.739 104.558 308.175 103.949 306.329C103.404 304.679 102.569 303.473 101.445 302.713C100.326 301.941 99.1173 301.769 97.819 302.197C96.5485 302.617 95.6905 303.46 95.2451 304.728C94.7997 305.996 94.8876 307.571 95.5089 309.454ZM120.611 309.33L116.301 296.268L113.922 297.053L113.266 295.064L115.645 294.279L115.135 292.735C114.603 291.121 114.622 289.731 115.194 288.566C115.766 287.4 116.84 286.557 118.416 286.037C119.01 285.841 119.625 285.726 120.261 285.691L120.81 287.823C120.347 287.883 119.87 287.995 119.378 288.157C118.543 288.432 117.98 288.891 117.688 289.532C117.392 290.164 117.395 290.935 117.695 291.844L118.218 293.43L121.431 292.369L122.088 294.358L118.874 295.419L123.185 308.481L120.611 309.33ZM132.32 291.336C131.909 291.4 131.477 291.507 131.022 291.657C129.334 292.214 128.426 293.31 128.298 294.947L131.823 305.63L129.25 306.479L124.283 291.428L126.787 290.602L127.402 292.327C127.803 290.704 128.777 289.637 130.326 289.125C130.827 288.96 131.228 288.9 131.531 288.944L132.32 291.336ZM141.7 302.371L139.126 303.22L134.16 288.169L136.733 287.32L141.7 302.371ZM132.633 284.245C132.496 283.828 132.505 283.434 132.66 283.064C132.825 282.691 133.158 282.422 133.658 282.257C134.159 282.091 134.587 282.11 134.941 282.311C135.296 282.513 135.542 282.823 135.68 283.24C135.818 283.657 135.802 284.048 135.635 284.412C135.467 284.776 135.132 285.04 134.632 285.206C134.131 285.371 133.705 285.357 133.353 285.165C133.011 284.969 132.771 284.663 132.633 284.245ZM152.169 299.225C150.129 299.898 148.248 299.778 146.528 298.865C144.804 297.942 143.572 296.359 142.832 294.115L142.676 293.642C142.183 292.149 142.027 290.725 142.207 289.37C142.393 288.002 142.888 286.821 143.691 285.826C144.5 284.818 145.502 284.117 146.699 283.722C148.655 283.077 150.389 283.219 151.899 284.15C153.41 285.081 154.561 286.748 155.354 289.15L155.707 290.221L145.511 293.586C146.038 295.057 146.865 296.116 147.993 296.762C149.128 297.395 150.335 297.5 151.615 297.078C152.524 296.778 153.232 296.339 153.74 295.76C154.249 295.181 154.638 294.507 154.909 293.739L156.885 294.444C156.263 296.799 154.691 298.392 152.169 299.225ZM147.396 285.837C146.358 286.18 145.611 286.848 145.158 287.841C144.701 288.824 144.614 290.025 144.897 291.444L152.436 288.956L152.372 288.761C151.866 287.478 151.18 286.583 150.314 286.077C149.445 285.562 148.472 285.482 147.396 285.837ZM158.406 280.168L159.113 282.032C159.786 280.206 161.05 278.987 162.904 278.375C166.085 277.325 168.282 278.59 169.494 282.17L172.776 292.116L170.203 292.965L166.916 283.005C166.549 281.923 166.033 281.203 165.371 280.846C164.717 280.486 163.875 280.476 162.846 280.816C162.011 281.091 161.352 281.555 160.869 282.209C160.385 282.862 160.086 283.608 159.972 284.448L163.512 295.173L160.938 296.022L155.971 280.971L158.406 280.168ZM173.506 283.391C172.744 281.082 172.68 279.046 173.312 277.285C173.941 275.514 175.141 274.336 176.912 273.752C178.674 273.17 180.269 273.313 181.696 274.179L179.107 266.333L181.681 265.484L188.732 286.85L186.367 287.631L185.709 286.058C185.096 287.659 183.871 288.763 182.035 289.369C180.292 289.944 178.632 289.7 177.058 288.636C175.492 287.569 174.33 285.885 173.571 283.585L173.506 283.391ZM176.176 282.834C176.739 284.54 177.532 285.759 178.556 286.491C179.579 287.223 180.712 287.384 181.954 286.974C183.586 286.435 184.536 285.309 184.804 283.596L182.522 276.682C181.284 275.518 179.868 275.198 178.273 275.725C177.012 276.141 176.189 276.952 175.806 278.159C175.422 279.365 175.546 280.923 176.176 282.834ZM200.184 278.644C199.954 277.948 199.513 277.498 198.859 277.292C198.211 277.074 197.187 277.041 195.788 277.195C194.398 277.345 193.253 277.352 192.355 277.217C191.466 277.078 190.747 276.801 190.199 276.386C189.66 275.967 189.268 275.387 189.023 274.645C188.616 273.412 188.791 272.197 189.548 271.001C190.314 269.802 191.509 268.935 193.132 268.399C194.838 267.836 196.366 267.821 197.713 268.353C199.071 268.882 199.976 269.833 200.429 271.205L197.841 272.059C197.609 271.354 197.107 270.846 196.336 270.535C195.574 270.221 194.739 270.214 193.83 270.514C192.893 270.823 192.228 271.269 191.834 271.851C191.44 272.434 191.352 273.054 191.569 273.713C191.774 274.334 192.174 274.721 192.77 274.874C193.365 275.027 194.35 275.036 195.725 274.902C197.109 274.764 198.266 274.763 199.195 274.898C200.124 275.034 200.872 275.322 201.439 275.762C202.012 276.19 202.432 276.807 202.698 277.614C203.142 278.959 202.96 280.216 202.154 281.388C201.344 282.549 200.082 283.413 198.366 283.98C197.16 284.377 196.024 284.516 194.955 284.395C193.887 284.275 192.963 283.922 192.184 283.336C191.411 282.737 190.877 281.993 190.583 281.103L193.157 280.253C193.488 281.101 194.057 281.674 194.865 281.973C195.68 282.259 196.616 282.228 197.673 281.879C198.647 281.558 199.361 281.106 199.817 280.524C200.279 279.929 200.401 279.302 200.184 278.644ZM215.76 277.931L211.449 264.869L209.071 265.654L208.414 263.665L210.793 262.88L210.283 261.336C209.751 259.722 209.77 258.332 210.342 257.167C210.914 256.001 211.988 255.158 213.565 254.638C214.158 254.442 214.773 254.327 215.409 254.292L215.959 256.424C215.495 256.484 215.018 256.596 214.526 256.758C213.692 257.033 213.128 257.492 212.836 258.133C212.541 258.765 212.543 259.536 212.843 260.445L213.366 262.031L216.58 260.97L217.236 262.959L214.023 264.02L218.333 277.082L215.76 277.931ZM221.187 267.641C220.701 266.166 220.551 264.745 220.737 263.378C220.932 262.007 221.439 260.832 222.258 259.852C223.085 258.87 224.162 258.16 225.488 257.722C227.538 257.046 229.427 257.209 231.156 258.211C232.895 259.211 234.153 260.889 234.931 263.244L234.99 263.425C235.474 264.89 235.625 266.3 235.445 267.656C235.271 268.998 234.768 270.167 233.934 271.162C233.11 272.154 232.02 272.874 230.666 273.32C228.626 273.994 226.737 273.83 224.998 272.831C223.269 271.828 222.018 270.158 221.247 267.821L221.187 267.641ZM223.876 267.093C224.427 268.762 225.254 269.975 226.357 270.732C227.469 271.486 228.675 271.648 229.973 271.22C231.281 270.788 232.151 269.936 232.584 268.661C233.014 267.378 232.925 265.814 232.316 263.968C231.771 262.317 230.936 261.112 229.811 260.352C228.693 259.58 227.484 259.408 226.186 259.836C224.915 260.256 224.057 261.099 223.612 262.367C223.166 263.635 223.254 265.21 223.876 267.093ZM249.447 265.164C248.834 266.672 247.558 267.746 245.62 268.386C244.016 268.915 242.639 268.855 241.489 268.206C240.345 267.545 239.467 266.303 238.855 264.479L235.623 254.686L238.197 253.837L241.405 263.56C242.158 265.841 243.462 266.676 245.317 266.064C247.283 265.415 248.349 264.251 248.514 262.572L244.902 251.624L247.475 250.775L252.442 265.826L249.994 266.634L249.447 265.164ZM253.832 248.677L254.54 250.541C255.213 248.715 256.476 247.496 258.331 246.884C261.512 245.834 263.708 247.099 264.92 250.679L268.203 260.625L265.629 261.474L262.342 251.514C261.975 250.432 261.46 249.713 260.797 249.356C260.143 248.995 259.302 248.985 258.273 249.325C257.438 249.6 256.779 250.065 256.295 250.718C255.811 251.371 255.513 252.117 255.399 252.957L258.938 263.682L256.365 264.531L251.398 249.48L253.832 248.677ZM268.933 251.9C268.171 249.591 268.106 247.555 268.738 245.794C269.367 244.023 270.568 242.846 272.339 242.261C274.101 241.68 275.695 241.822 277.123 242.688L274.534 234.842L277.107 233.993L284.158 255.36L281.793 256.14L281.136 254.568C280.522 256.169 279.298 257.272 277.462 257.878C275.718 258.453 274.059 258.209 272.484 257.145C270.918 256.078 269.756 254.395 268.997 252.095L268.933 251.9ZM271.603 251.343C272.166 253.049 272.959 254.268 273.982 255C275.005 255.732 276.138 255.893 277.381 255.483C279.013 254.944 279.963 253.818 280.23 252.105L277.949 245.192C276.711 244.027 275.295 243.708 273.699 244.234C272.438 244.65 271.616 245.461 271.232 246.668C270.849 247.874 270.972 249.432 271.603 251.343Z" fill="#1D3354"/>
</svg>
