<svg width="353" height="580" viewBox="0 0 353 580" fill="none" xmlns="http://www.w3.org/2000/svg">
<path d="M104.427 266.598C118.871 258.702 123.972 240.211 115.82 225.297C107.667 210.383 89.3483 204.694 74.9035 212.591C60.4587 220.487 55.3579 238.978 63.5104 253.892C71.663 268.805 89.9817 274.494 104.427 266.598Z" fill="#2F2E41"/>
<path d="M89.665 272.062C103.23 272.062 114.226 261.066 114.226 247.501C114.226 233.936 103.23 222.94 89.665 222.94C76.1003 222.94 65.104 233.936 65.104 247.501C65.104 261.066 76.1003 272.062 89.665 272.062Z" fill="#FFB8B8"/>
<path d="M76.4957 285.07L73.3373 294.004L77.983 320.893L97.1292 336.801L112.333 313.291L105.013 291.047L99.5225 284.853C99.5764 284.296 99.5146 283.734 99.341 283.203C99.1675 282.671 98.8858 282.181 98.5139 281.763C98.1419 281.345 97.6876 281.009 97.1795 280.775C96.6713 280.541 96.1203 280.414 95.5611 280.404L83.5703 280.17C82.0258 280.14 80.5112 280.597 79.2412 281.477C77.9713 282.356 77.0107 283.613 76.4957 285.07Z" fill="#CCCCCC"/>
<path d="M127.376 568.297L139.636 568.295L141.329 521.007L127.372 521.009L127.376 568.297Z" fill="#FFB8B8"/>
<path d="M163.281 579.677L124.75 579.681L124.749 564.794L148.393 564.792C152.341 564.792 156.128 566.36 158.92 569.151C161.712 571.943 163.28 575.729 163.281 579.677Z" fill="#2F2E41"/>
<path d="M41.493 568.297L53.753 568.295L59.583 521.007L41.489 521.009L41.493 568.297Z" fill="#FFB8B8"/>
<path d="M77.3978 579.677L38.8671 579.681L38.8657 564.794L62.5096 564.792C66.4578 564.792 70.2445 566.36 73.0366 569.151C75.8287 571.943 77.3975 575.729 77.3978 579.677Z" fill="#2F2E41"/>
<path d="M149.289 236.207C150.547 236.968 151.622 237.995 152.44 239.217C153.258 240.438 153.798 241.824 154.022 243.277C154.247 244.73 154.15 246.214 153.738 247.626C153.327 249.037 152.611 250.341 151.641 251.446L161.781 272.067L150.752 281.285L136.842 251.963C135.094 250.211 134.05 247.878 133.907 245.407C133.764 242.936 134.533 240.499 136.067 238.556C137.601 236.614 139.795 235.302 142.231 234.869C144.668 234.436 147.179 234.912 149.289 236.207Z" fill="#FFB8B8"/>
<path d="M76.1927 397.68C70.216 397.602 64.2496 397.162 58.3262 396.362C57.3126 396.234 56.3382 395.89 55.4687 395.354C54.5993 394.818 53.8549 394.101 53.286 393.253C52.7171 392.404 52.3367 391.444 52.1706 390.436C52.0046 389.428 52.0567 388.396 52.3234 387.41L65.5947 338.269L54.907 308.285C53.7554 305.046 53.8845 301.491 55.2677 298.344C56.6509 295.198 59.1838 292.699 62.3484 291.359L77.029 285.152L81.4412 312.465L91.9533 325.72C92.3023 326.16 92.7545 326.507 93.2697 326.731C93.785 326.954 94.3474 327.048 94.9072 327.002C95.4671 326.957 96.0072 326.774 96.4796 326.471C96.9521 326.167 97.3425 325.751 97.6161 325.261L105.599 310.952L99.0783 284.66L108.8 285.81C111.938 286.192 114.906 287.447 117.366 289.434C119.826 291.42 121.678 294.057 122.712 297.045C125.699 305.733 125.96 315.127 123.458 323.968L119.43 338.28L126.504 384.001C126.697 385.247 126.636 386.519 126.323 387.741C126.01 388.962 125.453 390.107 124.684 391.107C123.916 392.106 122.953 392.94 121.853 393.556C120.753 394.172 119.54 394.559 118.286 394.692C113.766 395.213 109.214 395.403 104.666 395.262C100.54 395.086 97.6413 392.57 96.2844 387.985C96.2107 387.716 96.0512 387.479 95.8303 387.31C95.6094 387.141 95.3392 387.049 95.0609 387.047C94.7826 387.046 94.5115 387.135 94.2888 387.302C94.0662 387.469 93.9043 387.704 93.8278 387.972C93.4522 389.304 93.039 390.786 92.5883 392.42C91.4953 396.387 84.651 397.68 76.1927 397.68Z" fill="#2F2E41"/>
<path d="M118.849 308.979C117.63 308.983 116.423 308.744 115.297 308.278C113.974 307.73 112.807 306.865 111.897 305.76C110.987 304.655 110.362 303.343 110.078 301.94C109.65 299.714 109.948 297.41 110.929 295.367C111.91 293.324 113.522 291.65 115.526 290.593L144.173 275.039L142.606 268.844C142.389 267.894 142.456 266.901 142.799 265.988C143.141 265.076 143.743 264.284 144.531 263.71L151.918 258.223C152.479 257.793 153.13 257.493 153.822 257.347C154.514 257.201 155.23 257.212 155.918 257.378C156.523 257.531 157.088 257.817 157.569 258.215C158.05 258.614 158.435 259.115 158.697 259.683L162.535 267.968C165.571 274.523 162.975 282.597 156.496 286.747L124.367 307.33C122.723 308.395 120.808 308.968 118.849 308.979Z" fill="#2F2E41"/>
<path d="M58.4955 546.314C58.3958 546.314 58.2955 546.311 58.1947 546.305L42.5858 545.678C41.9804 545.64 41.3889 545.48 40.8468 545.208C40.3048 544.936 39.8233 544.557 39.4314 544.094C39.0395 543.631 38.7453 543.093 38.5663 542.514C38.3874 541.934 38.3275 541.324 38.3902 540.721L54.2323 388.31L95.8082 373.191L120.292 387.046L147.077 534.726C147.288 535.856 147.058 537.024 146.434 537.99C145.811 538.956 144.842 539.647 143.725 539.921L143.661 539.937L127.682 539.544C126.581 539.793 125.426 539.621 124.446 539.06C123.466 538.5 122.731 537.592 122.387 536.517L88.3583 417.103C88.2562 416.792 88.0546 416.522 87.7846 416.336C87.5146 416.149 87.1911 416.057 86.8634 416.072C86.5357 416.087 86.222 416.209 85.9704 416.42C85.7187 416.63 85.543 416.917 85.4701 417.237L62.8799 542.79C62.6605 543.79 62.1061 544.684 61.3087 545.325C60.5112 545.966 59.5186 546.315 58.4955 546.314Z" fill="#2F2E41"/>
<path d="M68.2134 231.996C64.3063 237.111 67.2798 245.817 73.4996 247.474C79.7195 249.131 86.6298 243.056 85.7845 236.675C84.4422 243.37 90.1719 250.376 96.9739 250.971C103.776 251.567 110.39 246.237 111.878 239.573C113.366 232.91 110.045 225.629 104.391 221.801C98.7368 217.972 91.1656 217.475 84.7683 219.862C78.2378 222.304 72.5088 226.503 68.2134 231.996Z" fill="#2F2E41"/>
<path d="M97.821 210.162C94.1829 202.527 90.4449 194.746 84.5647 188.667C78.6845 182.588 70.1782 178.401 61.843 179.834C53.5079 181.268 46.3301 189.68 48.1762 197.934C49.114 202.126 45.5242 206.28 41.3863 207.435C37.2485 208.59 32.8386 207.51 28.748 206.198C24.6574 204.885 20.5134 203.318 16.2213 203.503C7.61518 203.873 0.419858 212.02 0.117518 220.628C-0.184822 229.237 5.67131 237.432 13.5282 240.963C21.3851 244.495 30.7832 243.704 38.533 239.943C46.2827 236.182 52.4793 229.698 57.0105 222.372C63.7061 211.546 80.5318 208.876 90.2498 217.097C91.2905 217.914 92.6008 218.309 93.9197 218.203C95.2385 218.098 96.4691 217.499 97.3663 216.526C99.085 214.521 98.8359 211.138 97.821 210.162Z" fill="#2F2E41"/>
<path d="M77.3709 354.124C76.9032 352.73 76.1355 351.456 75.1221 350.391C74.1086 349.326 72.874 348.496 71.5052 347.96C70.1364 347.424 68.6667 347.195 67.1995 347.288C65.7324 347.381 64.3036 347.795 63.0137 348.5L45.0396 334.998L40.7008 347.35L59.2763 362.829C60.6046 364.917 62.653 366.446 65.033 367.125C67.4131 367.804 69.9596 367.586 72.19 366.513C74.4204 365.44 76.1797 363.587 77.1346 361.303C78.0895 359.02 78.1735 356.465 77.3709 354.124Z" fill="#FFB8B8"/>
<path d="M51.5991 358.383C50.8074 358.383 50.0319 358.158 49.3631 357.734L41.6442 352.855C35.5368 348.996 33.3375 340.806 36.5284 333.804L52.3518 299.082C52.9868 297.627 53.9646 296.347 55.2017 295.351C56.4388 294.356 57.8985 293.675 59.456 293.366C60.8643 293.108 62.3143 293.201 63.6784 293.635C65.0425 294.07 66.2788 294.833 67.2784 295.858C68.8458 297.495 69.8455 299.593 70.1299 301.841C70.4143 304.09 69.9684 306.37 68.858 308.346L53.232 336.954L57.9096 341.307C58.6072 341.988 59.0896 342.858 59.2973 343.81C59.5049 344.763 59.4285 345.755 59.0776 346.664L55.8496 355.281C55.6113 355.947 55.2271 356.551 54.725 357.05C54.2229 357.548 53.6158 357.928 52.948 358.161C52.5133 358.308 52.0578 358.382 51.5991 358.383Z" fill="#2F2E41"/>
<path d="M99 32.2857V145.286C99 163.043 113.006 177.571 130.125 177.571H192.375V226L254.625 177.571H316.875C334.009 177.571 348 163.043 348 145.286V32.2857C348 14.5286 334.009 0 316.875 0H130.125C113.006 0 99 14.5286 99 32.2857Z" fill="#9ED8DB"/>
<path d="M135.979 70.3799L141.546 59.6719H144.739L137.386 73.0459V81H134.573V73.0459L127.22 59.6719H130.442L135.979 70.3799ZM145.384 72.9287C145.384 71.376 145.687 69.9795 146.292 68.7393C146.907 67.499 147.757 66.542 148.841 65.8682C149.935 65.1943 151.18 64.8574 152.576 64.8574C154.734 64.8574 156.478 65.6045 157.806 67.0986C159.144 68.5928 159.812 70.5801 159.812 73.0605V73.251C159.812 74.7939 159.515 76.1807 158.919 77.4111C158.333 78.6318 157.488 79.584 156.385 80.2676C155.291 80.9512 154.031 81.293 152.605 81.293C150.457 81.293 148.714 80.5459 147.376 79.0518C146.048 77.5576 145.384 75.5801 145.384 73.1191V72.9287ZM148.108 73.251C148.108 75.0088 148.514 76.4199 149.324 77.4844C150.145 78.5488 151.238 79.0811 152.605 79.0811C153.982 79.0811 155.076 78.5439 155.887 77.4697C156.697 76.3857 157.103 74.8721 157.103 72.9287C157.103 71.1904 156.688 69.7842 155.857 68.71C155.037 67.626 153.943 67.084 152.576 67.084C151.238 67.084 150.159 67.6162 149.339 68.6807C148.519 69.7451 148.108 71.2686 148.108 73.251ZM172.996 79.4326C171.941 80.6729 170.394 81.293 168.353 81.293C166.663 81.293 165.374 80.8047 164.485 79.8281C163.606 78.8418 163.162 77.3867 163.152 75.4629V65.1504H165.862V75.3896C165.862 77.792 166.839 78.9932 168.792 78.9932C170.862 78.9932 172.239 78.2217 172.923 76.6787V65.1504H175.633V81H173.055L172.996 79.4326ZM189.915 67.0693C191.116 65.5947 192.679 64.8574 194.603 64.8574C197.952 64.8574 199.642 66.7471 199.671 70.5264V81H196.961V70.5117C196.951 69.3691 196.688 68.5244 196.17 67.9775C195.662 67.4307 194.866 67.1572 193.782 67.1572C192.903 67.1572 192.132 67.3916 191.468 67.8604C190.804 68.3291 190.286 68.9443 189.915 69.7061V81H187.205V58.5H189.915V67.0693ZM213.514 81C213.357 80.6875 213.23 80.1309 213.133 79.3301C211.873 80.6387 210.369 81.293 208.621 81.293C207.059 81.293 205.774 80.8535 204.769 79.9746C203.772 79.0859 203.274 77.9629 203.274 76.6055C203.274 74.9551 203.899 73.6758 205.149 72.7676C206.409 71.8496 208.177 71.3906 210.452 71.3906H213.089V70.1455C213.089 69.1982 212.806 68.4463 212.239 67.8896C211.673 67.3232 210.838 67.04 209.734 67.04C208.768 67.04 207.957 67.2842 207.303 67.7725C206.648 68.2607 206.321 68.8516 206.321 69.5449H203.597C203.597 68.7539 203.875 67.9922 204.432 67.2598C204.998 66.5176 205.76 65.9316 206.717 65.502C207.684 65.0723 208.743 64.8574 209.896 64.8574C211.722 64.8574 213.152 65.3164 214.188 66.2344C215.223 67.1426 215.76 68.3975 215.799 69.999V77.2939C215.799 78.749 215.984 79.9062 216.355 80.7656V81H213.514ZM209.017 78.9346C209.866 78.9346 210.672 78.7148 211.434 78.2754C212.195 77.8359 212.747 77.2646 213.089 76.5615V73.3096H210.965C207.645 73.3096 205.984 74.2812 205.984 76.2246C205.984 77.0742 206.268 77.7383 206.834 78.2168C207.4 78.6953 208.128 78.9346 209.017 78.9346ZM225.042 77.3232L228.968 65.1504H231.736L226.053 81H223.987L218.245 65.1504H221.014L225.042 77.3232ZM240.716 81.293C238.567 81.293 236.819 80.5898 235.472 79.1836C234.124 77.7676 233.45 75.8779 233.45 73.5146V73.0166C233.45 71.4443 233.748 70.043 234.344 68.8125C234.949 67.5723 235.789 66.6055 236.863 65.9121C237.947 65.209 239.119 64.8574 240.379 64.8574C242.439 64.8574 244.041 65.5361 245.184 66.8936C246.326 68.251 246.897 70.1943 246.897 72.7236V73.8516H236.16C236.199 75.4141 236.653 76.6787 237.522 77.6455C238.401 78.6025 239.515 79.0811 240.862 79.0811C241.819 79.0811 242.63 78.8857 243.294 78.4951C243.958 78.1045 244.539 77.5869 245.037 76.9424L246.692 78.2314C245.364 80.2725 243.372 81.293 240.716 81.293ZM240.379 67.084C239.285 67.084 238.367 67.4844 237.625 68.2852C236.883 69.0762 236.424 70.1895 236.248 71.625H244.188V71.4199C244.109 70.043 243.738 68.9785 243.074 68.2266C242.41 67.4648 241.512 67.084 240.379 67.084ZM260.052 65.1504L260.14 67.1426C261.351 65.6191 262.933 64.8574 264.886 64.8574C268.235 64.8574 269.925 66.7471 269.954 70.5264V81H267.244V70.5117C267.234 69.3691 266.971 68.5244 266.453 67.9775C265.945 67.4307 265.149 67.1572 264.065 67.1572C263.187 67.1572 262.415 67.3916 261.751 67.8604C261.087 68.3291 260.569 68.9443 260.198 69.7061V81H257.488V65.1504H260.052ZM273.323 72.9287C273.323 71.376 273.626 69.9795 274.231 68.7393C274.847 67.499 275.696 66.542 276.78 65.8682C277.874 65.1943 279.119 64.8574 280.516 64.8574C282.674 64.8574 284.417 65.6045 285.745 67.0986C287.083 68.5928 287.752 70.5801 287.752 73.0605V73.251C287.752 74.7939 287.454 76.1807 286.858 77.4111C286.272 78.6318 285.428 79.584 284.324 80.2676C283.23 80.9512 281.971 81.293 280.545 81.293C278.396 81.293 276.653 80.5459 275.315 79.0518C273.987 77.5576 273.323 75.5801 273.323 73.1191V72.9287ZM276.048 73.251C276.048 75.0088 276.453 76.4199 277.264 77.4844C278.084 78.5488 279.178 79.0811 280.545 79.0811C281.922 79.0811 283.016 78.5439 283.826 77.4697C284.637 76.3857 285.042 74.8721 285.042 72.9287C285.042 71.1904 284.627 69.7842 283.797 68.71C282.977 67.626 281.883 67.084 280.516 67.084C279.178 67.084 278.099 67.6162 277.278 68.6807C276.458 69.7451 276.048 71.2686 276.048 73.251ZM130.384 116V102.245H127.879V100.15H130.384V98.5244C130.384 96.8252 130.838 95.5117 131.746 94.584C132.654 93.6562 133.938 93.1924 135.599 93.1924C136.224 93.1924 136.844 93.2754 137.459 93.4414L137.312 95.6387C136.854 95.5508 136.365 95.5068 135.848 95.5068C134.969 95.5068 134.29 95.7656 133.812 96.2832C133.333 96.791 133.094 97.5234 133.094 98.4805V100.15H136.478V102.245H133.094V116H130.384ZM147.142 102.582C146.731 102.514 146.287 102.479 145.809 102.479C144.031 102.479 142.825 103.236 142.19 104.75V116H139.48V100.15H142.117L142.161 101.981C143.05 100.565 144.31 99.8574 145.94 99.8574C146.468 99.8574 146.868 99.9258 147.142 100.062V102.582ZM152.591 116H149.881V100.15H152.591V116ZM149.661 95.9463C149.661 95.5068 149.793 95.1357 150.057 94.833C150.33 94.5303 150.73 94.3789 151.258 94.3789C151.785 94.3789 152.186 94.5303 152.459 94.833C152.732 95.1357 152.869 95.5068 152.869 95.9463C152.869 96.3857 152.732 96.752 152.459 97.0449C152.186 97.3379 151.785 97.4844 151.258 97.4844C150.73 97.4844 150.33 97.3379 150.057 97.0449C149.793 96.752 149.661 96.3857 149.661 95.9463ZM163.519 116.293C161.37 116.293 159.622 115.59 158.274 114.184C156.927 112.768 156.253 110.878 156.253 108.515V108.017C156.253 106.444 156.551 105.043 157.146 103.812C157.752 102.572 158.592 101.605 159.666 100.912C160.75 100.209 161.922 99.8574 163.182 99.8574C165.242 99.8574 166.844 100.536 167.986 101.894C169.129 103.251 169.7 105.194 169.7 107.724V108.852H158.963C159.002 110.414 159.456 111.679 160.325 112.646C161.204 113.603 162.317 114.081 163.665 114.081C164.622 114.081 165.433 113.886 166.097 113.495C166.761 113.104 167.342 112.587 167.84 111.942L169.495 113.231C168.167 115.272 166.175 116.293 163.519 116.293ZM163.182 102.084C162.088 102.084 161.17 102.484 160.428 103.285C159.686 104.076 159.227 105.189 159.051 106.625H166.99V106.42C166.912 105.043 166.541 103.979 165.877 103.227C165.213 102.465 164.314 102.084 163.182 102.084ZM175.413 100.15L175.501 102.143C176.712 100.619 178.294 99.8574 180.247 99.8574C183.597 99.8574 185.286 101.747 185.315 105.526V116H182.605V105.512C182.596 104.369 182.332 103.524 181.814 102.978C181.307 102.431 180.511 102.157 179.427 102.157C178.548 102.157 177.776 102.392 177.112 102.86C176.448 103.329 175.931 103.944 175.56 104.706V116H172.85V100.15H175.413ZM188.743 107.943C188.743 105.512 189.319 103.559 190.472 102.084C191.624 100.6 193.133 99.8574 194.998 99.8574C196.854 99.8574 198.323 100.492 199.407 101.762V93.5H202.117V116H199.627L199.495 114.301C198.411 115.629 196.902 116.293 194.969 116.293C193.133 116.293 191.634 115.541 190.472 114.037C189.319 112.533 188.743 110.57 188.743 108.148V107.943ZM191.453 108.251C191.453 110.048 191.824 111.454 192.566 112.47C193.309 113.485 194.334 113.993 195.643 113.993C197.361 113.993 198.616 113.222 199.407 111.679V104.398C198.597 102.904 197.352 102.157 195.672 102.157C194.344 102.157 193.309 102.67 192.566 103.695C191.824 104.721 191.453 106.239 191.453 108.251ZM221.438 102.582C221.028 102.514 220.584 102.479 220.105 102.479C218.328 102.479 217.122 103.236 216.487 104.75V116H213.777V100.15H216.414L216.458 101.981C217.347 100.565 218.606 99.8574 220.237 99.8574C220.765 99.8574 221.165 99.9258 221.438 100.062V102.582ZM230.228 116.293C228.079 116.293 226.331 115.59 224.983 114.184C223.636 112.768 222.962 110.878 222.962 108.515V108.017C222.962 106.444 223.26 105.043 223.855 103.812C224.461 102.572 225.301 101.605 226.375 100.912C227.459 100.209 228.631 99.8574 229.891 99.8574C231.951 99.8574 233.553 100.536 234.695 101.894C235.838 103.251 236.409 105.194 236.409 107.724V108.852H225.672C225.711 110.414 226.165 111.679 227.034 112.646C227.913 113.603 229.026 114.081 230.374 114.081C231.331 114.081 232.142 113.886 232.806 113.495C233.47 113.104 234.051 112.587 234.549 111.942L236.204 113.231C234.876 115.272 232.884 116.293 230.228 116.293ZM229.891 102.084C228.797 102.084 227.879 102.484 227.137 103.285C226.395 104.076 225.936 105.189 225.76 106.625H233.699V106.42C233.621 105.043 233.25 103.979 232.586 103.227C231.922 102.465 231.023 102.084 229.891 102.084ZM238.899 107.943C238.899 105.453 239.471 103.485 240.613 102.04C241.756 100.585 243.289 99.8574 245.213 99.8574C247.088 99.8574 248.567 100.487 249.651 101.747L249.769 100.15H252.259V122.094H249.549V114.535C248.455 115.707 247 116.293 245.184 116.293C243.27 116.293 241.741 115.551 240.599 114.066C239.466 112.572 238.899 110.595 238.899 108.134V107.943ZM241.609 108.251C241.609 110.067 241.99 111.493 242.752 112.528C243.523 113.563 244.559 114.081 245.857 114.081C247.469 114.081 248.699 113.368 249.549 111.942V104.179C248.689 102.782 247.469 102.084 245.887 102.084C244.578 102.084 243.538 102.606 242.767 103.651C241.995 104.687 241.609 106.22 241.609 108.251ZM266.395 114.433C265.34 115.673 263.792 116.293 261.751 116.293C260.062 116.293 258.772 115.805 257.884 114.828C257.005 113.842 256.561 112.387 256.551 110.463V100.15H259.261V110.39C259.261 112.792 260.237 113.993 262.19 113.993C264.261 113.993 265.638 113.222 266.321 111.679V100.15H269.031V116H266.453L266.395 114.433ZM279.739 116.293C277.591 116.293 275.843 115.59 274.495 114.184C273.147 112.768 272.474 110.878 272.474 108.515V108.017C272.474 106.444 272.771 105.043 273.367 103.812C273.973 102.572 274.812 101.605 275.887 100.912C276.971 100.209 278.143 99.8574 279.402 99.8574C281.463 99.8574 283.064 100.536 284.207 101.894C285.35 103.251 285.921 105.194 285.921 107.724V108.852H275.184C275.223 110.414 275.677 111.679 276.546 112.646C277.425 113.603 278.538 114.081 279.886 114.081C280.843 114.081 281.653 113.886 282.317 113.495C282.981 113.104 283.562 112.587 284.061 111.942L285.716 113.231C284.388 115.272 282.396 116.293 279.739 116.293ZM279.402 102.084C278.309 102.084 277.391 102.484 276.648 103.285C275.906 104.076 275.447 105.189 275.271 106.625H283.211V106.42C283.133 105.043 282.762 103.979 282.098 103.227C281.434 102.465 280.535 102.084 279.402 102.084ZM298.299 111.796C298.299 111.063 298.021 110.497 297.464 110.097C296.917 109.687 295.955 109.335 294.578 109.042C293.211 108.749 292.122 108.397 291.312 107.987C290.511 107.577 289.915 107.089 289.524 106.522C289.144 105.956 288.953 105.282 288.953 104.501C288.953 103.202 289.5 102.104 290.594 101.205C291.697 100.307 293.104 99.8574 294.812 99.8574C296.609 99.8574 298.064 100.321 299.178 101.249C300.301 102.177 300.862 103.363 300.862 104.809H298.138C298.138 104.066 297.82 103.427 297.186 102.89C296.561 102.353 295.77 102.084 294.812 102.084C293.826 102.084 293.055 102.299 292.498 102.729C291.941 103.158 291.663 103.72 291.663 104.413C291.663 105.067 291.922 105.561 292.439 105.893C292.957 106.225 293.89 106.542 295.237 106.845C296.595 107.147 297.693 107.509 298.533 107.929C299.373 108.349 299.993 108.856 300.394 109.452C300.804 110.038 301.009 110.756 301.009 111.605C301.009 113.021 300.442 114.159 299.31 115.019C298.177 115.868 296.707 116.293 294.9 116.293C293.631 116.293 292.508 116.068 291.531 115.619C290.555 115.17 289.788 114.545 289.231 113.744C288.685 112.934 288.411 112.06 288.411 111.122H291.121C291.17 112.03 291.531 112.753 292.205 113.29C292.889 113.817 293.787 114.081 294.9 114.081C295.926 114.081 296.746 113.876 297.361 113.466C297.986 113.046 298.299 112.489 298.299 111.796ZM308.216 96.3125V100.15H311.175V102.245H308.216V112.074C308.216 112.709 308.348 113.188 308.611 113.51C308.875 113.822 309.324 113.979 309.959 113.979C310.271 113.979 310.701 113.92 311.248 113.803V116C310.535 116.195 309.842 116.293 309.168 116.293C307.957 116.293 307.044 115.927 306.429 115.194C305.813 114.462 305.506 113.422 305.506 112.074V102.245H302.62V100.15H305.506V96.3125H308.216ZM323.582 111.796C323.582 111.063 323.304 110.497 322.747 110.097C322.2 109.687 321.238 109.335 319.861 109.042C318.494 108.749 317.405 108.397 316.595 107.987C315.794 107.577 315.198 107.089 314.808 106.522C314.427 105.956 314.236 105.282 314.236 104.501C314.236 103.202 314.783 102.104 315.877 101.205C316.98 100.307 318.387 99.8574 320.096 99.8574C321.893 99.8574 323.348 100.321 324.461 101.249C325.584 102.177 326.146 103.363 326.146 104.809H323.421C323.421 104.066 323.104 103.427 322.469 102.89C321.844 102.353 321.053 102.084 320.096 102.084C319.109 102.084 318.338 102.299 317.781 102.729C317.225 103.158 316.946 103.72 316.946 104.413C316.946 105.067 317.205 105.561 317.723 105.893C318.24 106.225 319.173 106.542 320.521 106.845C321.878 107.147 322.977 107.509 323.816 107.929C324.656 108.349 325.276 108.856 325.677 109.452C326.087 110.038 326.292 110.756 326.292 111.605C326.292 113.021 325.726 114.159 324.593 115.019C323.46 115.868 321.99 116.293 320.184 116.293C318.914 116.293 317.791 116.068 316.814 115.619C315.838 115.17 315.071 114.545 314.515 113.744C313.968 112.934 313.694 112.06 313.694 111.122H316.404C316.453 112.03 316.814 112.753 317.488 113.29C318.172 113.817 319.07 114.081 320.184 114.081C321.209 114.081 322.029 113.876 322.645 113.466C323.27 113.046 323.582 112.489 323.582 111.796Z" fill="#1D3354"/>
</svg>
