<svg width="349" height="580" viewBox="0 0 349 580" fill="none" xmlns="http://www.w3.org/2000/svg">
<path d="M104.427 266.598C118.871 258.702 123.972 240.211 115.82 225.297C107.667 210.383 89.3483 204.694 74.9035 212.591C60.4587 220.487 55.3579 238.978 63.5104 253.892C71.663 268.805 89.9817 274.494 104.427 266.598Z" fill="#2F2E41"/>
<path d="M89.665 272.062C103.23 272.062 114.226 261.066 114.226 247.501C114.226 233.936 103.23 222.94 89.665 222.94C76.1003 222.94 65.104 233.936 65.104 247.501C65.104 261.066 76.1003 272.062 89.665 272.062Z" fill="#FFB8B8"/>
<path d="M76.4957 285.07L73.3373 294.004L77.983 320.893L97.1292 336.801L112.333 313.291L105.013 291.047L99.5225 284.853C99.5764 284.296 99.5146 283.734 99.341 283.203C99.1675 282.671 98.8858 282.181 98.5139 281.763C98.1419 281.345 97.6876 281.009 97.1795 280.775C96.6713 280.541 96.1203 280.414 95.5611 280.404L83.5703 280.17C82.0258 280.14 80.5112 280.597 79.2412 281.477C77.9713 282.356 77.0107 283.613 76.4957 285.07Z" fill="#CCCCCC"/>
<path d="M127.376 568.297L139.636 568.295L141.329 521.007L127.372 521.009L127.376 568.297Z" fill="#FFB8B8"/>
<path d="M163.281 579.677L124.75 579.681L124.749 564.794L148.393 564.792C152.341 564.792 156.128 566.36 158.92 569.151C161.712 571.943 163.28 575.729 163.281 579.677L163.281 579.677Z" fill="#2F2E41"/>
<path d="M41.493 568.297L53.753 568.295L59.583 521.007L41.489 521.009L41.493 568.297Z" fill="#FFB8B8"/>
<path d="M77.3978 579.677L38.8671 579.681L38.8657 564.794L62.5096 564.792C66.4578 564.792 70.2445 566.36 73.0366 569.151C75.8287 571.943 77.3975 575.729 77.3978 579.677L77.3978 579.677Z" fill="#2F2E41"/>
<path d="M149.289 236.207C150.547 236.968 151.622 237.995 152.44 239.217C153.258 240.438 153.798 241.824 154.022 243.277C154.247 244.73 154.15 246.214 153.738 247.626C153.327 249.037 152.611 250.341 151.641 251.446L161.781 272.067L150.752 281.285L136.842 251.963C135.094 250.211 134.05 247.878 133.907 245.407C133.764 242.936 134.533 240.499 136.067 238.556C137.601 236.614 139.795 235.302 142.231 234.869C144.668 234.436 147.179 234.912 149.289 236.207H149.289Z" fill="#FFB8B8"/>
<path d="M76.1927 397.68C70.216 397.602 64.2496 397.162 58.3262 396.362C57.3126 396.234 56.3382 395.89 55.4687 395.354C54.5993 394.818 53.8549 394.101 53.286 393.253C52.7171 392.404 52.3367 391.444 52.1706 390.436C52.0046 389.428 52.0567 388.396 52.3234 387.41L65.5947 338.269L54.907 308.285C53.7554 305.046 53.8845 301.491 55.2677 298.344C56.6509 295.198 59.1838 292.699 62.3484 291.359L77.029 285.152L81.4412 312.465L91.9533 325.72C92.3023 326.16 92.7545 326.507 93.2697 326.731C93.785 326.954 94.3474 327.048 94.9072 327.002C95.4671 326.957 96.0072 326.774 96.4796 326.471C96.9521 326.167 97.3425 325.751 97.6161 325.261L105.599 310.952L99.0783 284.66L108.8 285.81C111.938 286.192 114.906 287.447 117.366 289.434C119.826 291.42 121.678 294.057 122.712 297.045C125.699 305.733 125.96 315.127 123.458 323.968L119.43 338.28L126.504 384.001C126.697 385.247 126.636 386.519 126.323 387.741C126.01 388.962 125.453 390.107 124.684 391.107C123.916 392.106 122.953 392.94 121.853 393.556C120.753 394.172 119.54 394.559 118.286 394.692C113.766 395.213 109.214 395.403 104.666 395.262C100.54 395.086 97.6413 392.57 96.2844 387.985C96.2107 387.716 96.0512 387.479 95.8303 387.31C95.6094 387.141 95.3392 387.049 95.0609 387.047C94.7826 387.046 94.5115 387.135 94.2888 387.302C94.0662 387.469 93.9043 387.704 93.8278 387.972C93.4522 389.304 93.039 390.786 92.5883 392.42C91.4953 396.387 84.651 397.68 76.1927 397.68Z" fill="#2F2E41"/>
<path d="M118.849 308.979C117.63 308.983 116.423 308.744 115.297 308.278C113.974 307.73 112.807 306.865 111.897 305.76C110.987 304.655 110.362 303.343 110.078 301.94C109.65 299.714 109.948 297.41 110.929 295.367C111.91 293.324 113.522 291.65 115.526 290.593L144.173 275.039L142.606 268.844C142.389 267.894 142.456 266.901 142.799 265.988C143.141 265.076 143.743 264.284 144.531 263.71L151.918 258.223C152.479 257.793 153.13 257.493 153.822 257.347C154.514 257.201 155.23 257.212 155.918 257.378C156.523 257.531 157.088 257.817 157.569 258.215C158.05 258.614 158.435 259.115 158.697 259.683L162.535 267.968C165.571 274.523 162.975 282.597 156.496 286.747L124.367 307.33C122.723 308.395 120.808 308.968 118.849 308.979Z" fill="#2F2E41"/>
<path d="M58.4955 546.314C58.3958 546.314 58.2955 546.311 58.1947 546.305L42.5858 545.678C41.9804 545.64 41.3889 545.48 40.8468 545.208C40.3048 544.936 39.8233 544.557 39.4314 544.094C39.0395 543.631 38.7453 543.093 38.5663 542.514C38.3874 541.934 38.3275 541.324 38.3902 540.721L54.2323 388.31L95.8082 373.191L120.292 387.046L147.077 534.726C147.288 535.856 147.058 537.024 146.434 537.99C145.811 538.956 144.842 539.647 143.725 539.921L143.661 539.937L127.682 539.544C126.581 539.793 125.426 539.621 124.446 539.06C123.466 538.5 122.731 537.592 122.387 536.517L88.3583 417.103C88.2562 416.792 88.0546 416.522 87.7846 416.336C87.5146 416.149 87.1911 416.057 86.8634 416.072C86.5357 416.087 86.222 416.209 85.9704 416.42C85.7187 416.63 85.543 416.917 85.4701 417.237L62.8799 542.79C62.6605 543.79 62.1061 544.684 61.3087 545.325C60.5112 545.966 59.5186 546.315 58.4955 546.314Z" fill="#2F2E41"/>
<path d="M68.2134 231.996C64.3063 237.111 67.2798 245.817 73.4996 247.474C79.7195 249.131 86.6298 243.056 85.7845 236.675C84.4422 243.37 90.1719 250.376 96.9739 250.971C103.776 251.567 110.39 246.237 111.878 239.573C113.366 232.91 110.045 225.629 104.391 221.801C98.7368 217.972 91.1656 217.475 84.7683 219.862C78.2378 222.304 72.5088 226.503 68.2134 231.996Z" fill="#2F2E41"/>
<path d="M97.821 210.162C94.1829 202.527 90.4449 194.746 84.5647 188.667C78.6845 182.588 70.1782 178.401 61.843 179.834C53.5079 181.268 46.3301 189.68 48.1762 197.934C49.114 202.126 45.5242 206.28 41.3863 207.435C37.2485 208.59 32.8386 207.51 28.748 206.198C24.6574 204.885 20.5134 203.318 16.2213 203.503C7.61518 203.873 0.419858 212.02 0.117518 220.628C-0.184822 229.237 5.67131 237.432 13.5282 240.963C21.3851 244.495 30.7832 243.704 38.533 239.943C46.2827 236.182 52.4793 229.698 57.0105 222.372C63.7061 211.546 80.5318 208.876 90.2498 217.097C91.2905 217.914 92.6008 218.309 93.9197 218.203C95.2385 218.098 96.4691 217.499 97.3663 216.526C99.085 214.521 98.8359 211.138 97.821 210.162Z" fill="#2F2E41"/>
<path d="M77.3709 354.124C76.9032 352.73 76.1355 351.456 75.1221 350.391C74.1086 349.326 72.874 348.496 71.5052 347.96C70.1364 347.424 68.6667 347.195 67.1995 347.288C65.7324 347.381 64.3036 347.795 63.0137 348.5L45.0396 334.998L40.7008 347.35L59.2763 362.829C60.6046 364.917 62.653 366.446 65.033 367.125C67.4131 367.804 69.9596 367.586 72.19 366.513C74.4204 365.44 76.1797 363.587 77.1346 361.303C78.0895 359.02 78.1735 356.465 77.3709 354.124H77.3709Z" fill="#FFB8B8"/>
<path d="M51.5991 358.383C50.8074 358.383 50.0319 358.158 49.3631 357.734L41.6442 352.855C35.5368 348.996 33.3375 340.806 36.5284 333.804L52.3518 299.082C52.9868 297.627 53.9646 296.347 55.2017 295.351C56.4388 294.356 57.8985 293.675 59.456 293.366C60.8643 293.108 62.3143 293.201 63.6784 293.635C65.0425 294.07 66.2788 294.833 67.2784 295.858C68.8458 297.495 69.8455 299.593 70.1299 301.841C70.4143 304.09 69.9684 306.37 68.858 308.346L53.232 336.954L57.9096 341.307C58.6072 341.988 59.0896 342.858 59.2973 343.81C59.5049 344.763 59.4285 345.755 59.0776 346.664L55.8496 355.281C55.6113 355.947 55.2271 356.551 54.725 357.05C54.2229 357.548 53.6158 357.928 52.948 358.161C52.5133 358.308 52.0578 358.382 51.5991 358.383Z" fill="#2F2E41"/>
<path d="M99 32.2857V145.286C99 163.043 113.006 177.571 130.125 177.571H192.375V226L254.625 177.571H316.875C334.009 177.571 348 163.043 348 145.286V32.2857C348 14.5286 334.009 0 316.875 0H130.125C113.006 0 99 14.5286 99 32.2857Z" fill="#9ED8DB"/>
<path d="M135.979 32.3799L141.546 21.6719H144.739L137.386 35.0459V43H134.573V35.0459L127.22 21.6719H130.442L135.979 32.3799ZM145.384 34.9287C145.384 33.376 145.687 31.9795 146.292 30.7393C146.907 29.499 147.757 28.542 148.841 27.8682C149.935 27.1943 151.18 26.8574 152.576 26.8574C154.734 26.8574 156.478 27.6045 157.806 29.0986C159.144 30.5928 159.812 32.5801 159.812 35.0605V35.251C159.812 36.7939 159.515 38.1807 158.919 39.4111C158.333 40.6318 157.488 41.584 156.385 42.2676C155.291 42.9512 154.031 43.293 152.605 43.293C150.457 43.293 148.714 42.5459 147.376 41.0518C146.048 39.5576 145.384 37.5801 145.384 35.1191V34.9287ZM148.108 35.251C148.108 37.0088 148.514 38.4199 149.324 39.4844C150.145 40.5488 151.238 41.0811 152.605 41.0811C153.982 41.0811 155.076 40.5439 155.887 39.4697C156.697 38.3857 157.103 36.8721 157.103 34.9287C157.103 33.1904 156.688 31.7842 155.857 30.71C155.037 29.626 153.943 29.084 152.576 29.084C151.238 29.084 150.159 29.6162 149.339 30.6807C148.519 31.7451 148.108 33.2686 148.108 35.251ZM172.996 41.4326C171.941 42.6729 170.394 43.293 168.353 43.293C166.663 43.293 165.374 42.8047 164.485 41.8281C163.606 40.8418 163.162 39.3867 163.152 37.4629V27.1504H165.862V37.3896C165.862 39.792 166.839 40.9932 168.792 40.9932C170.862 40.9932 172.239 40.2217 172.923 38.6787V27.1504H175.633V43H173.055L172.996 41.4326ZM189.915 29.0693C191.116 27.5947 192.679 26.8574 194.603 26.8574C197.952 26.8574 199.642 28.7471 199.671 32.5264V43H196.961V32.5117C196.951 31.3691 196.688 30.5244 196.17 29.9775C195.662 29.4307 194.866 29.1572 193.782 29.1572C192.903 29.1572 192.132 29.3916 191.468 29.8604C190.804 30.3291 190.286 30.9443 189.915 31.7061V43H187.205V20.5H189.915V29.0693ZM213.514 43C213.357 42.6875 213.23 42.1309 213.133 41.3301C211.873 42.6387 210.369 43.293 208.621 43.293C207.059 43.293 205.774 42.8535 204.769 41.9746C203.772 41.0859 203.274 39.9629 203.274 38.6055C203.274 36.9551 203.899 35.6758 205.149 34.7676C206.409 33.8496 208.177 33.3906 210.452 33.3906H213.089V32.1455C213.089 31.1982 212.806 30.4463 212.239 29.8896C211.673 29.3232 210.838 29.04 209.734 29.04C208.768 29.04 207.957 29.2842 207.303 29.7725C206.648 30.2607 206.321 30.8516 206.321 31.5449H203.597C203.597 30.7539 203.875 29.9922 204.432 29.2598C204.998 28.5176 205.76 27.9316 206.717 27.502C207.684 27.0723 208.743 26.8574 209.896 26.8574C211.722 26.8574 213.152 27.3164 214.188 28.2344C215.223 29.1426 215.76 30.3975 215.799 31.999V39.2939C215.799 40.749 215.984 41.9062 216.355 42.7656V43H213.514ZM209.017 40.9346C209.866 40.9346 210.672 40.7148 211.434 40.2754C212.195 39.8359 212.747 39.2646 213.089 38.5615V35.3096H210.965C207.645 35.3096 205.984 36.2812 205.984 38.2246C205.984 39.0742 206.268 39.7383 206.834 40.2168C207.4 40.6953 208.128 40.9346 209.017 40.9346ZM225.042 39.3232L228.968 27.1504H231.736L226.053 43H223.987L218.245 27.1504H221.014L225.042 39.3232ZM240.716 43.293C238.567 43.293 236.819 42.5898 235.472 41.1836C234.124 39.7676 233.45 37.8779 233.45 35.5146V35.0166C233.45 33.4443 233.748 32.043 234.344 30.8125C234.949 29.5723 235.789 28.6055 236.863 27.9121C237.947 27.209 239.119 26.8574 240.379 26.8574C242.439 26.8574 244.041 27.5361 245.184 28.8936C246.326 30.251 246.897 32.1943 246.897 34.7236V35.8516H236.16C236.199 37.4141 236.653 38.6787 237.522 39.6455C238.401 40.6025 239.515 41.0811 240.862 41.0811C241.819 41.0811 242.63 40.8857 243.294 40.4951C243.958 40.1045 244.539 39.5869 245.037 38.9424L246.692 40.2314C245.364 42.2725 243.372 43.293 240.716 43.293ZM240.379 29.084C239.285 29.084 238.367 29.4844 237.625 30.2852C236.883 31.0762 236.424 32.1895 236.248 33.625H244.188V33.4199C244.109 32.043 243.738 30.9785 243.074 30.2266C242.41 29.4648 241.512 29.084 240.379 29.084ZM260.052 27.1504L260.14 29.1426C261.351 27.6191 262.933 26.8574 264.886 26.8574C268.235 26.8574 269.925 28.7471 269.954 32.5264V43H267.244V32.5117C267.234 31.3691 266.971 30.5244 266.453 29.9775C265.945 29.4307 265.149 29.1572 264.065 29.1572C263.187 29.1572 262.415 29.3916 261.751 29.8604C261.087 30.3291 260.569 30.9443 260.198 31.7061V43H257.488V27.1504H260.052ZM273.323 34.9287C273.323 33.376 273.626 31.9795 274.231 30.7393C274.847 29.499 275.696 28.542 276.78 27.8682C277.874 27.1943 279.119 26.8574 280.516 26.8574C282.674 26.8574 284.417 27.6045 285.745 29.0986C287.083 30.5928 287.752 32.5801 287.752 35.0605V35.251C287.752 36.7939 287.454 38.1807 286.858 39.4111C286.272 40.6318 285.428 41.584 284.324 42.2676C283.23 42.9512 281.971 43.293 280.545 43.293C278.396 43.293 276.653 42.5459 275.315 41.0518C273.987 39.5576 273.323 37.5801 273.323 35.1191V34.9287ZM276.048 35.251C276.048 37.0088 276.453 38.4199 277.264 39.4844C278.084 40.5488 279.178 41.0811 280.545 41.0811C281.922 41.0811 283.016 40.5439 283.826 39.4697C284.637 38.3857 285.042 36.8721 285.042 34.9287C285.042 33.1904 284.627 31.7842 283.797 30.71C282.977 29.626 281.883 29.084 280.516 29.084C279.178 29.084 278.099 29.6162 277.278 30.6807C276.458 31.7451 276.048 33.2686 276.048 35.251ZM130.384 78V64.2451H127.879V62.1504H130.384V60.5244C130.384 58.8252 130.838 57.5117 131.746 56.584C132.654 55.6562 133.938 55.1924 135.599 55.1924C136.224 55.1924 136.844 55.2754 137.459 55.4414L137.312 57.6387C136.854 57.5508 136.365 57.5068 135.848 57.5068C134.969 57.5068 134.29 57.7656 133.812 58.2832C133.333 58.791 133.094 59.5234 133.094 60.4805V62.1504H136.478V64.2451H133.094V78H130.384ZM147.142 64.582C146.731 64.5137 146.287 64.4795 145.809 64.4795C144.031 64.4795 142.825 65.2363 142.19 66.75V78H139.48V62.1504H142.117L142.161 63.9814C143.05 62.5654 144.31 61.8574 145.94 61.8574C146.468 61.8574 146.868 61.9258 147.142 62.0625V64.582ZM152.591 78H149.881V62.1504H152.591V78ZM149.661 57.9463C149.661 57.5068 149.793 57.1357 150.057 56.833C150.33 56.5303 150.73 56.3789 151.258 56.3789C151.785 56.3789 152.186 56.5303 152.459 56.833C152.732 57.1357 152.869 57.5068 152.869 57.9463C152.869 58.3857 152.732 58.752 152.459 59.0449C152.186 59.3379 151.785 59.4844 151.258 59.4844C150.73 59.4844 150.33 59.3379 150.057 59.0449C149.793 58.752 149.661 58.3857 149.661 57.9463ZM163.519 78.293C161.37 78.293 159.622 77.5898 158.274 76.1836C156.927 74.7676 156.253 72.8779 156.253 70.5146V70.0166C156.253 68.4443 156.551 67.043 157.146 65.8125C157.752 64.5723 158.592 63.6055 159.666 62.9121C160.75 62.209 161.922 61.8574 163.182 61.8574C165.242 61.8574 166.844 62.5361 167.986 63.8936C169.129 65.251 169.7 67.1943 169.7 69.7236V70.8516H158.963C159.002 72.4141 159.456 73.6787 160.325 74.6455C161.204 75.6025 162.317 76.0811 163.665 76.0811C164.622 76.0811 165.433 75.8857 166.097 75.4951C166.761 75.1045 167.342 74.5869 167.84 73.9424L169.495 75.2314C168.167 77.2725 166.175 78.293 163.519 78.293ZM163.182 64.084C162.088 64.084 161.17 64.4844 160.428 65.2852C159.686 66.0762 159.227 67.1895 159.051 68.625H166.99V68.4199C166.912 67.043 166.541 65.9785 165.877 65.2266C165.213 64.4648 164.314 64.084 163.182 64.084ZM175.413 62.1504L175.501 64.1426C176.712 62.6191 178.294 61.8574 180.247 61.8574C183.597 61.8574 185.286 63.7471 185.315 67.5264V78H182.605V67.5117C182.596 66.3691 182.332 65.5244 181.814 64.9775C181.307 64.4307 180.511 64.1572 179.427 64.1572C178.548 64.1572 177.776 64.3916 177.112 64.8604C176.448 65.3291 175.931 65.9443 175.56 66.7061V78H172.85V62.1504H175.413ZM188.743 69.9434C188.743 67.5117 189.319 65.5586 190.472 64.084C191.624 62.5996 193.133 61.8574 194.998 61.8574C196.854 61.8574 198.323 62.4922 199.407 63.7617V55.5H202.117V78H199.627L199.495 76.3008C198.411 77.6289 196.902 78.293 194.969 78.293C193.133 78.293 191.634 77.541 190.472 76.0371C189.319 74.5332 188.743 72.5703 188.743 70.1484V69.9434ZM191.453 70.251C191.453 72.0479 191.824 73.4541 192.566 74.4697C193.309 75.4854 194.334 75.9932 195.643 75.9932C197.361 75.9932 198.616 75.2217 199.407 73.6787V66.3984C198.597 64.9043 197.352 64.1572 195.672 64.1572C194.344 64.1572 193.309 64.6699 192.566 65.6953C191.824 66.7207 191.453 68.2393 191.453 70.251ZM215.564 73.7959C215.564 73.0635 215.286 72.4971 214.729 72.0967C214.183 71.6865 213.221 71.335 211.844 71.042C210.477 70.749 209.388 70.3975 208.577 69.9873C207.776 69.5771 207.181 69.0889 206.79 68.5225C206.409 67.9561 206.219 67.2822 206.219 66.501C206.219 65.2021 206.766 64.1035 207.859 63.2051C208.963 62.3066 210.369 61.8574 212.078 61.8574C213.875 61.8574 215.33 62.3213 216.443 63.249C217.566 64.1768 218.128 65.3633 218.128 66.8086H215.403C215.403 66.0664 215.086 65.4268 214.451 64.8896C213.826 64.3525 213.035 64.084 212.078 64.084C211.092 64.084 210.32 64.2988 209.764 64.7285C209.207 65.1582 208.929 65.7197 208.929 66.4131C208.929 67.0674 209.188 67.5605 209.705 67.8926C210.223 68.2246 211.155 68.542 212.503 68.8447C213.86 69.1475 214.959 69.5088 215.799 69.9287C216.639 70.3486 217.259 70.8564 217.659 71.4521C218.069 72.0381 218.274 72.7559 218.274 73.6055C218.274 75.0215 217.708 76.1592 216.575 77.0186C215.442 77.8682 213.973 78.293 212.166 78.293C210.896 78.293 209.773 78.0684 208.797 77.6191C207.82 77.1699 207.054 76.5449 206.497 75.7441C205.95 74.9336 205.677 74.0596 205.677 73.1221H208.387C208.436 74.0303 208.797 74.7529 209.471 75.29C210.154 75.8174 211.053 76.0811 212.166 76.0811C213.191 76.0811 214.012 75.876 214.627 75.4658C215.252 75.0459 215.564 74.4893 215.564 73.7959ZM221.717 82.248L220.179 81.1934C221.097 79.9141 221.575 78.5957 221.614 77.2383V74.792H224.266V76.916C224.266 77.9023 224.021 78.8887 223.533 79.875C223.055 80.8613 222.449 81.6523 221.717 82.248ZM244.92 78C244.764 77.6875 244.637 77.1309 244.539 76.3301C243.279 77.6387 241.775 78.293 240.027 78.293C238.465 78.293 237.181 77.8535 236.175 76.9746C235.179 76.0859 234.681 74.9629 234.681 73.6055C234.681 71.9551 235.306 70.6758 236.556 69.7676C237.815 68.8496 239.583 68.3906 241.858 68.3906H244.495V67.1455C244.495 66.1982 244.212 65.4463 243.646 64.8896C243.079 64.3232 242.244 64.04 241.141 64.04C240.174 64.04 239.363 64.2842 238.709 64.7725C238.055 65.2607 237.728 65.8516 237.728 66.5449H235.003C235.003 65.7539 235.281 64.9922 235.838 64.2598C236.404 63.5176 237.166 62.9316 238.123 62.502C239.09 62.0723 240.149 61.8574 241.302 61.8574C243.128 61.8574 244.559 62.3164 245.594 63.2344C246.629 64.1426 247.166 65.3975 247.205 66.999V74.2939C247.205 75.749 247.391 76.9062 247.762 77.7656V78H244.92ZM240.423 75.9346C241.272 75.9346 242.078 75.7148 242.84 75.2754C243.602 74.8359 244.153 74.2646 244.495 73.5615V70.3096H242.371C239.051 70.3096 237.391 71.2812 237.391 73.2246C237.391 74.0742 237.674 74.7383 238.24 75.2168C238.807 75.6953 239.534 75.9346 240.423 75.9346ZM250.794 69.9434C250.794 67.5117 251.37 65.5586 252.522 64.084C253.675 62.5996 255.184 61.8574 257.049 61.8574C258.904 61.8574 260.374 62.4922 261.458 63.7617V55.5H264.168V78H261.678L261.546 76.3008C260.462 77.6289 258.953 78.293 257.02 78.293C255.184 78.293 253.685 77.541 252.522 76.0371C251.37 74.5332 250.794 72.5703 250.794 70.1484V69.9434ZM253.504 70.251C253.504 72.0479 253.875 73.4541 254.617 74.4697C255.359 75.4854 256.385 75.9932 257.693 75.9932C259.412 75.9932 260.667 75.2217 261.458 73.6787V66.3984C260.647 64.9043 259.402 64.1572 257.723 64.1572C256.395 64.1572 255.359 64.6699 254.617 65.6953C253.875 66.7207 253.504 68.2393 253.504 70.251ZM267.728 69.9434C267.728 67.5117 268.304 65.5586 269.456 64.084C270.608 62.5996 272.117 61.8574 273.982 61.8574C275.838 61.8574 277.308 62.4922 278.392 63.7617V55.5H281.102V78H278.611L278.479 76.3008C277.396 77.6289 275.887 78.293 273.953 78.293C272.117 78.293 270.618 77.541 269.456 76.0371C268.304 74.5332 267.728 72.5703 267.728 70.1484V69.9434ZM270.438 70.251C270.438 72.0479 270.809 73.4541 271.551 74.4697C272.293 75.4854 273.318 75.9932 274.627 75.9932C276.346 75.9932 277.601 75.2217 278.392 73.6787V66.3984C277.581 64.9043 276.336 64.1572 274.656 64.1572C273.328 64.1572 272.293 64.6699 271.551 65.6953C270.809 66.7207 270.438 68.2393 270.438 70.251ZM130.384 113V99.2451H127.879V97.1504H130.384V95.5244C130.384 93.8252 130.838 92.5117 131.746 91.584C132.654 90.6562 133.938 90.1924 135.599 90.1924C136.224 90.1924 136.844 90.2754 137.459 90.4414L137.312 92.6387C136.854 92.5508 136.365 92.5068 135.848 92.5068C134.969 92.5068 134.29 92.7656 133.812 93.2832C133.333 93.791 133.094 94.5234 133.094 95.4805V97.1504H136.478V99.2451H133.094V113H130.384ZM147.142 99.582C146.731 99.5137 146.287 99.4795 145.809 99.4795C144.031 99.4795 142.825 100.236 142.19 101.75V113H139.48V97.1504H142.117L142.161 98.9814C143.05 97.5654 144.31 96.8574 145.94 96.8574C146.468 96.8574 146.868 96.9258 147.142 97.0625V99.582ZM152.591 113H149.881V97.1504H152.591V113ZM149.661 92.9463C149.661 92.5068 149.793 92.1357 150.057 91.833C150.33 91.5303 150.73 91.3789 151.258 91.3789C151.785 91.3789 152.186 91.5303 152.459 91.833C152.732 92.1357 152.869 92.5068 152.869 92.9463C152.869 93.3857 152.732 93.752 152.459 94.0449C152.186 94.3379 151.785 94.4844 151.258 94.4844C150.73 94.4844 150.33 94.3379 150.057 94.0449C149.793 93.752 149.661 93.3857 149.661 92.9463ZM163.519 113.293C161.37 113.293 159.622 112.59 158.274 111.184C156.927 109.768 156.253 107.878 156.253 105.515V105.017C156.253 103.444 156.551 102.043 157.146 100.812C157.752 99.5723 158.592 98.6055 159.666 97.9121C160.75 97.209 161.922 96.8574 163.182 96.8574C165.242 96.8574 166.844 97.5361 167.986 98.8936C169.129 100.251 169.7 102.194 169.7 104.724V105.852H158.963C159.002 107.414 159.456 108.679 160.325 109.646C161.204 110.603 162.317 111.081 163.665 111.081C164.622 111.081 165.433 110.886 166.097 110.495C166.761 110.104 167.342 109.587 167.84 108.942L169.495 110.231C168.167 112.272 166.175 113.293 163.519 113.293ZM163.182 99.084C162.088 99.084 161.17 99.4844 160.428 100.285C159.686 101.076 159.227 102.189 159.051 103.625H166.99V103.42C166.912 102.043 166.541 100.979 165.877 100.227C165.213 99.4648 164.314 99.084 163.182 99.084ZM175.413 97.1504L175.501 99.1426C176.712 97.6191 178.294 96.8574 180.247 96.8574C183.597 96.8574 185.286 98.7471 185.315 102.526V113H182.605V102.512C182.596 101.369 182.332 100.524 181.814 99.9775C181.307 99.4307 180.511 99.1572 179.427 99.1572C178.548 99.1572 177.776 99.3916 177.112 99.8604C176.448 100.329 175.931 100.944 175.56 101.706V113H172.85V97.1504H175.413ZM188.743 104.943C188.743 102.512 189.319 100.559 190.472 99.084C191.624 97.5996 193.133 96.8574 194.998 96.8574C196.854 96.8574 198.323 97.4922 199.407 98.7617V90.5H202.117V113H199.627L199.495 111.301C198.411 112.629 196.902 113.293 194.969 113.293C193.133 113.293 191.634 112.541 190.472 111.037C189.319 109.533 188.743 107.57 188.743 105.148V104.943ZM191.453 105.251C191.453 107.048 191.824 108.454 192.566 109.47C193.309 110.485 194.334 110.993 195.643 110.993C197.361 110.993 198.616 110.222 199.407 108.679V101.398C198.597 99.9043 197.352 99.1572 195.672 99.1572C194.344 99.1572 193.309 99.6699 192.566 100.695C191.824 101.721 191.453 103.239 191.453 105.251ZM215.564 108.796C215.564 108.063 215.286 107.497 214.729 107.097C214.183 106.687 213.221 106.335 211.844 106.042C210.477 105.749 209.388 105.397 208.577 104.987C207.776 104.577 207.181 104.089 206.79 103.522C206.409 102.956 206.219 102.282 206.219 101.501C206.219 100.202 206.766 99.1035 207.859 98.2051C208.963 97.3066 210.369 96.8574 212.078 96.8574C213.875 96.8574 215.33 97.3213 216.443 98.249C217.566 99.1768 218.128 100.363 218.128 101.809H215.403C215.403 101.066 215.086 100.427 214.451 99.8896C213.826 99.3525 213.035 99.084 212.078 99.084C211.092 99.084 210.32 99.2988 209.764 99.7285C209.207 100.158 208.929 100.72 208.929 101.413C208.929 102.067 209.188 102.561 209.705 102.893C210.223 103.225 211.155 103.542 212.503 103.845C213.86 104.147 214.959 104.509 215.799 104.929C216.639 105.349 217.259 105.856 217.659 106.452C218.069 107.038 218.274 107.756 218.274 108.605C218.274 110.021 217.708 111.159 216.575 112.019C215.442 112.868 213.973 113.293 212.166 113.293C210.896 113.293 209.773 113.068 208.797 112.619C207.82 112.17 207.054 111.545 206.497 110.744C205.95 109.934 205.677 109.06 205.677 108.122H208.387C208.436 109.03 208.797 109.753 209.471 110.29C210.154 110.817 211.053 111.081 212.166 111.081C213.191 111.081 214.012 110.876 214.627 110.466C215.252 110.046 215.564 109.489 215.564 108.796ZM232.923 93.3125V97.1504H235.882V99.2451H232.923V109.074C232.923 109.709 233.055 110.188 233.318 110.51C233.582 110.822 234.031 110.979 234.666 110.979C234.979 110.979 235.408 110.92 235.955 110.803V113C235.242 113.195 234.549 113.293 233.875 113.293C232.664 113.293 231.751 112.927 231.136 112.194C230.521 111.462 230.213 110.422 230.213 109.074V99.2451H227.327V97.1504H230.213V93.3125H232.923ZM238.05 104.929C238.05 103.376 238.353 101.979 238.958 100.739C239.573 99.499 240.423 98.542 241.507 97.8682C242.601 97.1943 243.846 96.8574 245.242 96.8574C247.4 96.8574 249.144 97.6045 250.472 99.0986C251.81 100.593 252.479 102.58 252.479 105.061V105.251C252.479 106.794 252.181 108.181 251.585 109.411C250.999 110.632 250.154 111.584 249.051 112.268C247.957 112.951 246.697 113.293 245.271 113.293C243.123 113.293 241.38 112.546 240.042 111.052C238.714 109.558 238.05 107.58 238.05 105.119V104.929ZM240.774 105.251C240.774 107.009 241.18 108.42 241.99 109.484C242.811 110.549 243.904 111.081 245.271 111.081C246.648 111.081 247.742 110.544 248.553 109.47C249.363 108.386 249.769 106.872 249.769 104.929C249.769 103.19 249.354 101.784 248.523 100.71C247.703 99.626 246.609 99.084 245.242 99.084C243.904 99.084 242.825 99.6162 242.005 100.681C241.185 101.745 240.774 103.269 240.774 105.251ZM268.548 109.323L272.474 97.1504H275.242L269.559 113H267.493L261.751 97.1504H264.52L268.548 109.323ZM280.794 113H278.084V97.1504H280.794V113ZM277.864 92.9463C277.864 92.5068 277.996 92.1357 278.26 91.833C278.533 91.5303 278.934 91.3789 279.461 91.3789C279.988 91.3789 280.389 91.5303 280.662 91.833C280.936 92.1357 281.072 92.5068 281.072 92.9463C281.072 93.3857 280.936 93.752 280.662 94.0449C280.389 94.3379 279.988 94.4844 279.461 94.4844C278.934 94.4844 278.533 94.3379 278.26 94.0449C277.996 93.752 277.864 93.3857 277.864 92.9463ZM291.722 113.293C289.573 113.293 287.825 112.59 286.478 111.184C285.13 109.768 284.456 107.878 284.456 105.515V105.017C284.456 103.444 284.754 102.043 285.35 100.812C285.955 99.5723 286.795 98.6055 287.869 97.9121C288.953 97.209 290.125 96.8574 291.385 96.8574C293.445 96.8574 295.047 97.5361 296.189 98.8936C297.332 100.251 297.903 102.194 297.903 104.724V105.852H287.166C287.205 107.414 287.659 108.679 288.528 109.646C289.407 110.603 290.521 111.081 291.868 111.081C292.825 111.081 293.636 110.886 294.3 110.495C294.964 110.104 295.545 109.587 296.043 108.942L297.698 110.231C296.37 112.272 294.378 113.293 291.722 113.293ZM291.385 99.084C290.291 99.084 289.373 99.4844 288.631 100.285C287.889 101.076 287.43 102.189 287.254 103.625H295.193V103.42C295.115 102.043 294.744 100.979 294.08 100.227C293.416 99.4648 292.518 99.084 291.385 99.084ZM315.086 109.265L318.133 97.1504H320.843L316.229 113H314.031L310.179 100.988L306.429 113H304.231L299.632 97.1504H302.327L305.447 109.016L309.139 97.1504H311.321L315.086 109.265ZM142.439 140.251C142.439 142.663 141.888 144.606 140.784 146.081C139.681 147.556 138.187 148.293 136.302 148.293C134.378 148.293 132.864 147.683 131.761 146.462V154.094H129.051V132.15H131.526L131.658 133.908C132.762 132.541 134.295 131.857 136.258 131.857C138.162 131.857 139.666 132.575 140.77 134.011C141.883 135.446 142.439 137.443 142.439 140.002V140.251ZM139.729 139.943C139.729 138.156 139.349 136.745 138.587 135.71C137.825 134.675 136.78 134.157 135.452 134.157C133.812 134.157 132.581 134.885 131.761 136.34V143.913C132.571 145.358 133.812 146.081 135.481 146.081C136.78 146.081 137.811 145.568 138.572 144.543C139.344 143.508 139.729 141.975 139.729 139.943ZM145.179 139.929C145.179 138.376 145.481 136.979 146.087 135.739C146.702 134.499 147.552 133.542 148.636 132.868C149.729 132.194 150.975 131.857 152.371 131.857C154.529 131.857 156.272 132.604 157.601 134.099C158.938 135.593 159.607 137.58 159.607 140.061V140.251C159.607 141.794 159.31 143.181 158.714 144.411C158.128 145.632 157.283 146.584 156.18 147.268C155.086 147.951 153.826 148.293 152.4 148.293C150.252 148.293 148.509 147.546 147.171 146.052C145.843 144.558 145.179 142.58 145.179 140.119V139.929ZM147.903 140.251C147.903 142.009 148.309 143.42 149.119 144.484C149.939 145.549 151.033 146.081 152.4 146.081C153.777 146.081 154.871 145.544 155.682 144.47C156.492 143.386 156.897 141.872 156.897 139.929C156.897 138.19 156.482 136.784 155.652 135.71C154.832 134.626 153.738 134.084 152.371 134.084C151.033 134.084 149.954 134.616 149.134 135.681C148.313 136.745 147.903 138.269 147.903 140.251ZM172.234 143.796C172.234 143.063 171.956 142.497 171.399 142.097C170.853 141.687 169.891 141.335 168.514 141.042C167.146 140.749 166.058 140.397 165.247 139.987C164.446 139.577 163.851 139.089 163.46 138.522C163.079 137.956 162.889 137.282 162.889 136.501C162.889 135.202 163.436 134.104 164.529 133.205C165.633 132.307 167.039 131.857 168.748 131.857C170.545 131.857 172 132.321 173.113 133.249C174.236 134.177 174.798 135.363 174.798 136.809H172.073C172.073 136.066 171.756 135.427 171.121 134.89C170.496 134.353 169.705 134.084 168.748 134.084C167.762 134.084 166.99 134.299 166.434 134.729C165.877 135.158 165.599 135.72 165.599 136.413C165.599 137.067 165.857 137.561 166.375 137.893C166.893 138.225 167.825 138.542 169.173 138.845C170.53 139.147 171.629 139.509 172.469 139.929C173.309 140.349 173.929 140.856 174.329 141.452C174.739 142.038 174.944 142.756 174.944 143.605C174.944 145.021 174.378 146.159 173.245 147.019C172.112 147.868 170.643 148.293 168.836 148.293C167.566 148.293 166.443 148.068 165.467 147.619C164.49 147.17 163.724 146.545 163.167 145.744C162.62 144.934 162.347 144.06 162.347 143.122H165.057C165.105 144.03 165.467 144.753 166.141 145.29C166.824 145.817 167.723 146.081 168.836 146.081C169.861 146.081 170.682 145.876 171.297 145.466C171.922 145.046 172.234 144.489 172.234 143.796ZM182.151 128.312V132.15H185.11V134.245H182.151V144.074C182.151 144.709 182.283 145.188 182.547 145.51C182.811 145.822 183.26 145.979 183.895 145.979C184.207 145.979 184.637 145.92 185.184 145.803V148C184.471 148.195 183.777 148.293 183.104 148.293C181.893 148.293 180.979 147.927 180.364 147.194C179.749 146.462 179.441 145.422 179.441 144.074V134.245H176.556V132.15H179.441V128.312H182.151ZM197.518 143.796C197.518 143.063 197.239 142.497 196.683 142.097C196.136 141.687 195.174 141.335 193.797 141.042C192.43 140.749 191.341 140.397 190.53 139.987C189.729 139.577 189.134 139.089 188.743 138.522C188.362 137.956 188.172 137.282 188.172 136.501C188.172 135.202 188.719 134.104 189.812 133.205C190.916 132.307 192.322 131.857 194.031 131.857C195.828 131.857 197.283 132.321 198.396 133.249C199.52 134.177 200.081 135.363 200.081 136.809H197.356C197.356 136.066 197.039 135.427 196.404 134.89C195.779 134.353 194.988 134.084 194.031 134.084C193.045 134.084 192.273 134.299 191.717 134.729C191.16 135.158 190.882 135.72 190.882 136.413C190.882 137.067 191.141 137.561 191.658 137.893C192.176 138.225 193.108 138.542 194.456 138.845C195.813 139.147 196.912 139.509 197.752 139.929C198.592 140.349 199.212 140.856 199.612 141.452C200.022 142.038 200.228 142.756 200.228 143.605C200.228 145.021 199.661 146.159 198.528 147.019C197.396 147.868 195.926 148.293 194.119 148.293C192.85 148.293 191.727 148.068 190.75 147.619C189.773 147.17 189.007 146.545 188.45 145.744C187.903 144.934 187.63 144.06 187.63 143.122H190.34C190.389 144.03 190.75 144.753 191.424 145.29C192.107 145.817 193.006 146.081 194.119 146.081C195.145 146.081 195.965 145.876 196.58 145.466C197.205 145.046 197.518 144.489 197.518 143.796Z" fill="#1D3354"/>
</svg>
