<svg width="246" height="411" viewBox="0 0 246 411" fill="none" xmlns="http://www.w3.org/2000/svg">
<path d="M163.48 400.263H153.396L148.598 361.367H163.481L163.48 400.263Z" fill="#9F616A"/>
<path d="M166.051 410.038L133.536 410.037V409.626C133.536 406.269 134.87 403.05 137.243 400.677C139.616 398.304 142.835 396.97 146.192 396.97H146.193L166.052 396.971L166.051 410.038Z" fill="#2F2E41"/>
<path d="M65.195 399.464L55.634 396.259L63.449 357.855L77.56 362.586L65.195 399.464Z" fill="#9F616A"/>
<path d="M64.5264 409.55L33.6976 399.214L33.8283 398.824C34.8954 395.641 37.1829 393.013 40.1876 391.517C43.1923 390.022 46.6681 389.78 49.8506 390.847L49.8514 390.847L68.6805 397.161L64.5264 409.55Z" fill="#2F2E41"/>
<path d="M77.6261 199.245L55.7888 383.974L77.2068 385.78C77.2068 385.78 110.897 204.157 121.284 225.672C131.67 247.187 144.396 381.748 144.396 381.748H165.652C165.652 381.748 171.104 171.795 148.847 161.409L77.6261 199.245Z" fill="#2F2E41"/>
<path d="M134.228 47.0545C136.289 35.3525 128.474 24.195 116.772 22.1334C105.07 20.0719 93.9127 27.8869 91.8511 39.5889C89.7895 51.2909 97.6046 62.4484 109.307 64.51C121.009 66.5715 132.166 58.7564 134.228 47.0545Z" fill="#9F616A"/>
<path d="M100.253 72.7535L127.703 74.9791C127.703 74.9791 149.589 75.35 158.491 81.2851C167.394 87.2201 149.96 123.943 149.96 123.943C149.96 123.943 145.427 138.504 148.847 145.087C159.943 166.449 158.298 182.9 158.298 182.9C158.298 182.9 135.493 188.116 96.1732 198.503C96.1732 198.503 71.691 208.147 72.4329 202.954C73.1749 197.761 80.5936 138.41 80.5936 138.41V76.8338L100.253 72.7535Z" fill="#467599"/>
<path d="M148.273 40.9902C147.174 34.8634 144.714 26.1722 139.233 19.5826C139.406 19.5836 139.578 19.5912 139.751 19.5862C141.634 19.5312 143.778 18.9371 144.556 17.221C144.807 16.5336 144.869 15.7915 144.737 15.0717C144.605 14.3518 144.283 13.6804 143.804 13.127C142.833 12.0337 141.671 11.1259 140.375 10.4475C141.697 11.25 143.565 11.9954 144.62 10.8651C144.892 10.5243 145.06 10.1132 145.106 9.68012C145.152 9.24704 145.073 8.80986 144.879 8.41987C144.479 7.64613 143.916 6.96774 143.23 6.43082C141.008 4.46548 138.577 2.74996 135.98 1.31507C133.97 0.204422 131.326 -0.687445 129.521 0.733315C127.683 2.18069 127.978 4.99911 128.451 7.29066C127.421 6.68877 126.264 6.33948 125.073 6.27146C124.479 6.25447 123.896 6.44317 123.424 6.80573C122.952 7.16829 122.62 7.68254 122.483 8.2617C122.466 8.71872 122.567 9.17242 122.777 9.57887C122.986 9.98531 123.297 10.3308 123.68 10.5817C116.586 9.41517 107.522 10.7388 95.9344 16.1004C95.9344 16.1004 84.6988 19.8456 84.1281 34.6361C84.0702 37.0016 84.3327 39.3641 84.9081 41.6593C85.5411 44.3405 87.7931 57.4939 85.0921 62.8097L98.6229 67.6309L98.778 59.5259C88.2617 44.3456 93.4568 38.775 97.5514 29.645C97.5582 29.6283 97.5694 29.6139 97.5839 29.6033C97.5984 29.5928 97.6156 29.5865 97.6335 29.5851C97.6514 29.5838 97.6693 29.5874 97.6852 29.5957C97.7012 29.604 97.7145 29.6165 97.7237 29.632C98.4804 30.9304 101.38 35.3811 111.359 35.3811L107.503 31.5249C107.503 31.5249 124.47 38.466 130.64 38.466C130.64 38.466 135.267 41.5509 130.64 46.1782C126.012 50.8056 115.885 57.6165 121.284 66.0999C126.682 74.5834 126.217 77.5931 126.217 77.5931L138.557 70.6521C138.557 70.6521 146.094 55.7402 147.43 51.3489C148.529 48.0117 148.817 44.461 148.273 40.9902Z" fill="#2F2E41"/>
<path d="M0 208.182H245.479V344.244H214.298V381.661L180.707 344.244H0V208.182Z" fill="#467599"/>
<path d="M161.181 121L146.782 124.5L146.673 153.64L130.479 209.534C129.183 210.559 128.192 211.919 127.614 213.468C127.037 215.016 126.894 216.693 127.202 218.317C127.51 219.94 128.257 221.448 129.362 222.677C130.466 223.907 131.887 224.81 133.468 225.289C135.05 225.768 136.733 225.804 138.333 225.394C139.934 224.985 141.393 224.144 142.55 222.964C143.707 221.785 144.519 220.31 144.897 218.702C145.275 217.093 145.206 215.411 144.696 213.839L164.056 155.977L161.181 121Z" fill="#9F616A"/>
<path d="M65.3512 120.387L82.6245 125.323L82.7334 154.462L98.9278 210.356C100.224 211.381 101.215 212.742 101.792 214.29C102.37 215.839 102.513 217.515 102.205 219.139C101.897 220.763 101.15 222.271 100.045 223.5C98.9404 224.729 97.5201 225.632 95.9385 226.111C94.3569 226.59 92.6742 226.627 91.0733 226.217C89.4723 225.807 88.0142 224.967 86.8571 223.787C85.7 222.607 84.8883 221.133 84.5099 219.524C84.1315 217.915 84.2009 216.234 84.7107 214.662L65.3512 156.799V120.387Z" fill="#9F616A"/>
<path d="M139.573 78.3176L143.142 77.1541C145.145 76.5009 147.324 76.6521 149.218 77.5757C149.218 77.5757 159.604 78.3176 161.088 85.7365C162.572 93.1553 166.181 158 166.181 158L144.181 151L139.573 78.3176Z" fill="#467599"/>
<path d="M89.4962 78.3176L83.1805 78L81.1805 77C81.1805 77 69.4654 78.3176 67.9816 85.7365C66.4978 93.1553 62.1805 160 62.1805 160L84.1805 154L89.4962 78.3176Z" fill="#467599"/>
<path d="M84.7598 277.493C82.3477 276.8 80.5898 275.95 79.4863 274.944C78.3926 273.929 77.8457 272.679 77.8457 271.194C77.8457 269.515 78.5146 268.128 79.8525 267.034C81.2002 265.931 82.9482 265.379 85.0967 265.379C86.5615 265.379 87.8652 265.662 89.0078 266.229C90.1602 266.795 91.0488 267.576 91.6738 268.572C92.3086 269.568 92.626 270.657 92.626 271.839H89.7988C89.7988 270.55 89.3887 269.539 88.5684 268.807C87.748 268.064 86.5908 267.693 85.0967 267.693C83.71 267.693 82.626 268.001 81.8447 268.616C81.0732 269.222 80.6875 270.066 80.6875 271.15C80.6875 272.02 81.0537 272.757 81.7861 273.362C82.5283 273.958 83.7832 274.505 85.5508 275.003C87.3281 275.501 88.7148 276.053 89.7109 276.658C90.7168 277.254 91.459 277.952 91.9375 278.753C92.4258 279.554 92.6699 280.496 92.6699 281.58C92.6699 283.309 91.9961 284.695 90.6484 285.74C89.3008 286.775 87.499 287.293 85.2432 287.293C83.7783 287.293 82.4111 287.015 81.1416 286.458C79.8721 285.892 78.8906 285.12 78.1973 284.144C77.5137 283.167 77.1719 282.059 77.1719 280.818H79.999C79.999 282.107 80.4727 283.128 81.4199 283.88C82.377 284.622 83.6514 284.993 85.2432 284.993C86.7275 284.993 87.8652 284.69 88.6562 284.085C89.4473 283.479 89.8428 282.654 89.8428 281.609C89.8428 280.564 89.4766 279.759 88.7441 279.192C88.0117 278.616 86.6836 278.05 84.7598 277.493ZM105.648 287C105.492 286.688 105.365 286.131 105.268 285.33C104.008 286.639 102.504 287.293 100.756 287.293C99.1934 287.293 97.9092 286.854 96.9033 285.975C95.9072 285.086 95.4092 283.963 95.4092 282.605C95.4092 280.955 96.0342 279.676 97.2842 278.768C98.5439 277.85 100.312 277.391 102.587 277.391H105.224V276.146C105.224 275.198 104.94 274.446 104.374 273.89C103.808 273.323 102.973 273.04 101.869 273.04C100.902 273.04 100.092 273.284 99.4375 273.772C98.7832 274.261 98.4561 274.852 98.4561 275.545H95.7314C95.7314 274.754 96.0098 273.992 96.5664 273.26C97.1328 272.518 97.8945 271.932 98.8516 271.502C99.8184 271.072 100.878 270.857 102.03 270.857C103.856 270.857 105.287 271.316 106.322 272.234C107.357 273.143 107.895 274.397 107.934 275.999V283.294C107.934 284.749 108.119 285.906 108.49 286.766V287H105.648ZM101.151 284.935C102.001 284.935 102.807 284.715 103.568 284.275C104.33 283.836 104.882 283.265 105.224 282.562V279.31H103.1C99.7793 279.31 98.1191 280.281 98.1191 282.225C98.1191 283.074 98.4023 283.738 98.9688 284.217C99.5352 284.695 100.263 284.935 101.151 284.935ZM117.133 283.03L120.824 271.15H123.725L117.353 289.446C116.366 292.083 114.799 293.401 112.65 293.401L112.138 293.357L111.127 293.167V290.97L111.859 291.028C112.777 291.028 113.49 290.843 113.998 290.472C114.516 290.101 114.94 289.422 115.272 288.436L115.873 286.824L110.219 271.15H113.178L117.133 283.03ZM150.414 287H147.587V277.142H136.835V287H134.022V265.672H136.835V274.842H147.587V265.672H150.414V287ZM157.929 287H155.219V271.15H157.929V287ZM154.999 266.946C154.999 266.507 155.131 266.136 155.395 265.833C155.668 265.53 156.068 265.379 156.596 265.379C157.123 265.379 157.523 265.53 157.797 265.833C158.07 266.136 158.207 266.507 158.207 266.946C158.207 267.386 158.07 267.752 157.797 268.045C157.523 268.338 157.123 268.484 156.596 268.484C156.068 268.484 155.668 268.338 155.395 268.045C155.131 267.752 154.999 267.386 154.999 266.946ZM172.753 280.979H170.307L170.116 265.672H172.958L172.753 280.979ZM170.014 285.638C170.014 285.198 170.146 284.832 170.409 284.539C170.683 284.236 171.083 284.085 171.61 284.085C172.138 284.085 172.538 284.236 172.812 284.539C173.085 284.832 173.222 285.198 173.222 285.638C173.222 286.077 173.085 286.443 172.812 286.736C172.538 287.02 172.138 287.161 171.61 287.161C171.083 287.161 170.683 287.02 170.409 286.736C170.146 286.443 170.014 286.077 170.014 285.638Z" fill="#1D3354"/>
</svg>
