<svg width="250" height="503" viewBox="0 0 250 503" fill="none" xmlns="http://www.w3.org/2000/svg">
<path d="M115.888 329.748C135.983 329.748 152.274 313.458 152.274 293.363C152.274 273.267 135.983 256.977 115.888 256.977C95.7924 256.977 79.5019 273.267 79.5019 293.363C79.5019 313.458 95.7924 329.748 115.888 329.748Z" fill="#2F2E41"/>
<path d="M116.626 332.962C131.583 332.962 143.707 320.838 143.707 305.881C143.707 290.925 131.583 278.801 116.626 278.801C101.67 278.801 89.5454 290.925 89.5454 305.881C89.5454 320.838 101.67 332.962 116.626 332.962Z" fill="#FEB8B8"/>
<path d="M157.787 345.185C157.787 345.185 108.17 336.364 76.1941 347.39L85.5662 421.815L83.361 433.944L149.517 431.739L145.107 419.61L157.787 345.185Z" fill="#FEB8B8"/>
<path d="M123.307 425.5C111.884 425.364 100.475 424.642 89.1264 423.335C86.7957 423.079 84.646 421.957 83.1023 420.192C81.5586 418.427 80.7334 416.147 80.7897 413.803L81.5946 378.997L81.6883 378.862C91.2743 364.977 86.6048 354.835 83.0115 349.375C82.2534 348.221 81.8501 346.871 81.8515 345.491V345.491C81.3002 344.72 81.1767 345.938 81.5208 345.073C81.6902 344.644 81.9641 344.265 82.3176 343.969C82.6712 343.672 83.0931 343.469 83.5451 343.378L89.0184 342.284C89.6752 342.153 90.3572 342.265 90.9371 342.6C91.5171 342.935 91.9552 343.47 92.1696 344.104C94.0088 349.592 101.177 367.249 117.602 367.245C131.324 367.245 136.445 347.827 136.751 343.339C136.801 342.644 137.112 341.993 137.622 341.518C138.132 341.043 138.803 340.779 139.5 340.779H146.336C146.769 340.769 147.198 340.856 147.592 341.034C147.987 341.213 148.336 341.477 148.614 341.809C148.955 342.231 149.162 342.744 149.21 343.284C149.258 343.824 149.144 344.367 148.883 344.842C141.081 359.187 152.483 381.889 152.599 382.11L152.672 382.253L149.454 415.654C149.26 417.614 148.456 419.463 147.155 420.942C145.855 422.421 144.124 423.454 142.206 423.898C137.232 425.066 130.509 425.5 123.307 425.5Z" fill="#CCCCCC"/>
<path d="M60.3408 503C52.9313 503 46.1482 502.184 40.7587 500.256C34.3526 497.963 30.3302 494.256 28.802 489.23C28.0801 487.094 27.8643 484.819 28.1716 482.586C28.4789 480.352 29.3009 478.221 30.5728 476.359C40.0497 462.169 72.9359 458.166 77.3485 457.693L79.686 438.213C79.963 435.965 81.042 433.893 82.7247 432.376C84.4073 430.86 86.5806 430.002 88.8453 429.959L144.231 429.095C146.456 429.041 148.626 429.788 150.346 431.2C152.066 432.612 153.222 434.595 153.603 436.788L156.75 454.099L120.433 471.713L125.924 487.088L125.565 487.328C114.936 494.413 84.3687 502.999 60.3408 503Z" fill="#2F2E41"/>
<path d="M151.722 451.586C151.722 451.586 202.442 444.97 199.134 471.433C195.826 497.895 157.235 516.639 98.7974 471.433L105.413 458.201C105.413 458.201 138.491 467.022 151.722 460.407V451.586Z" fill="#2F2E41"/>
<path d="M106.516 461.509C106.516 461.509 106.516 448.278 95.4897 449.381C84.4637 450.483 64.6169 451.586 64.6169 451.586C64.6169 451.586 58.0013 455.996 66.8221 458.201C75.6429 460.407 102.105 471.433 102.105 471.433L106.516 461.509Z" fill="#FEB8B8"/>
<path d="M125.26 459.304C125.26 459.304 125.26 446.073 136.286 447.175C147.312 448.278 167.159 449.381 167.159 449.381C167.159 449.381 173.774 453.791 164.953 455.996C156.133 458.201 129.67 469.227 129.67 469.227L125.26 459.304Z" fill="#FEB8B8"/>
<path d="M191.33 456.798L174.878 399.763C174.878 399.763 171.57 379.917 168.262 361.172C164.955 342.428 152.826 344.633 152.826 344.633L150.621 345.736V375.506L152.826 403.071L174.839 463.604C174.191 465.703 174.154 467.943 174.731 470.063C175.309 472.183 176.478 474.094 178.101 475.574C179.725 477.054 181.736 478.042 183.899 478.422C186.063 478.802 188.29 478.558 190.321 477.72C192.351 476.881 194.101 475.482 195.367 473.686C196.632 471.89 197.36 469.771 197.465 467.577C197.571 465.382 197.05 463.203 195.964 461.294C194.878 459.384 193.27 457.823 191.33 456.793V456.798Z" fill="#FEB8B8"/>
<path d="M80.0532 346.839C80.0532 346.839 67.9246 344.633 64.6168 363.378C61.309 382.122 58.0012 401.969 58.0012 401.969L41.5493 459.003C39.6089 460.033 38.0016 461.594 36.9151 463.503C35.8287 465.413 35.3079 467.592 35.4137 469.786C35.5195 471.981 36.2475 474.099 37.5126 475.896C38.7777 477.692 40.5276 479.091 42.5582 479.929C44.5887 480.768 46.8159 481.012 48.9797 480.632C51.1435 480.252 53.1545 479.264 54.7779 477.784C56.4013 476.304 57.57 474.392 58.1476 472.273C58.7252 470.153 58.6878 467.913 58.0398 465.814L80.0532 405.281L82.2584 377.716V350.407C82.2584 349.666 82.0521 348.94 81.6626 348.309C81.2731 347.679 80.7159 347.17 80.0532 346.839Z" fill="#FEB8B8"/>
<path d="M89.8189 289.246C100.395 295.702 112.318 299.63 124.661 300.726L120.988 296.325C123.662 297.313 126.476 297.872 129.325 297.979C130.751 298.021 132.168 297.727 133.46 297.122C134.753 296.517 135.885 295.618 136.768 294.496C137.488 293.331 137.916 292.01 138.015 290.643C138.114 289.277 137.882 287.908 137.337 286.651C136.217 284.145 134.476 281.966 132.277 280.323C128.379 277.24 123.779 275.169 118.886 274.294C113.994 273.42 108.961 273.77 104.236 275.312C100.994 276.28 98.0896 278.141 95.8566 280.684C94.7596 281.964 93.9977 283.497 93.6391 285.144C93.2806 286.792 93.3367 288.503 93.8025 290.123" fill="#2F2E41"/>
<path d="M119.312 261.016C110.771 252.354 100.435 245.67 89.0315 241.434C81.7114 238.723 73.744 237.047 66.0919 238.588C58.4399 240.128 51.2068 245.424 49.0678 252.93C47.3224 259.07 49.1252 265.681 51.8343 271.46C54.5433 277.24 58.1609 282.597 60.3518 288.595C62.5882 294.713 63.2612 301.292 62.3096 307.735C61.3581 314.179 58.8121 320.283 54.9029 325.493C50.9937 330.703 45.8451 334.854 39.9245 337.569C34.0039 340.285 27.4989 341.478 21 341.041C28.5186 342.049 35.4496 345.583 42.7995 347.464C50.1494 349.345 58.8236 349.217 64.2848 343.952C70.0635 338.382 70.1793 329.324 69.8992 321.302L68.6533 285.529C68.4416 279.448 68.2608 273.171 70.4538 267.494C72.6469 261.818 77.8589 256.848 83.9442 256.9C88.5564 256.939 92.637 259.732 96.3363 262.488C100.035 265.243 103.944 268.182 108.543 268.592C113.142 269.001 118.382 265.602 118.038 261.002" fill="#2F2E41"/>
<path d="M0.5 32.2857V145.286C0.5 163.043 14.506 177.571 31.625 177.571H93.875V226L156.125 177.571H218.375C235.509 177.571 249.5 163.043 249.5 145.286V32.2857C249.5 14.5286 235.509 0 218.375 0H31.625C14.506 0 0.5 14.5286 0.5 32.2857Z" fill="#467599"/>
<path d="M39.8672 67H37.04L26.3027 50.5645V67H23.4756V45.6719H26.3027L37.0693 62.1807V45.6719H39.8672V67ZM43.7197 58.9287C43.7197 57.376 44.0225 55.9795 44.6279 54.7393C45.2432 53.499 46.0928 52.542 47.1768 51.8682C48.2705 51.1943 49.5156 50.8574 50.9121 50.8574C53.0703 50.8574 54.8135 51.6045 56.1416 53.0986C57.4795 54.5928 58.1484 56.5801 58.1484 59.0605V59.251C58.1484 60.7939 57.8506 62.1807 57.2549 63.4111C56.6689 64.6318 55.8242 65.584 54.7207 66.2676C53.627 66.9512 52.3672 67.293 50.9414 67.293C48.793 67.293 47.0498 66.5459 45.7119 65.0518C44.3838 63.5576 43.7197 61.5801 43.7197 59.1191V58.9287ZM46.4443 59.251C46.4443 61.0088 46.8496 62.4199 47.6602 63.4844C48.4805 64.5488 49.5742 65.0811 50.9414 65.0811C52.3184 65.0811 53.4121 64.5439 54.2227 63.4697C55.0332 62.3857 55.4385 60.8721 55.4385 58.9287C55.4385 57.1904 55.0234 55.7842 54.1934 54.71C53.373 53.626 52.2793 53.084 50.9121 53.084C49.5742 53.084 48.4951 53.6162 47.6748 54.6807C46.8545 55.7451 46.4443 57.2686 46.4443 59.251ZM71.5518 51.1504L71.6396 53.1426C72.8506 51.6191 74.4326 50.8574 76.3857 50.8574C79.7354 50.8574 81.4248 52.7471 81.4541 56.5264V67H78.7441V56.5117C78.7344 55.3691 78.4707 54.5244 77.9531 53.9775C77.4453 53.4307 76.6494 53.1572 75.5654 53.1572C74.6865 53.1572 73.915 53.3916 73.251 53.8604C72.5869 54.3291 72.0693 54.9443 71.6982 55.7061V67H68.9883V51.1504H71.5518ZM84.8232 58.9287C84.8232 57.376 85.126 55.9795 85.7314 54.7393C86.3467 53.499 87.1963 52.542 88.2803 51.8682C89.374 51.1943 90.6191 50.8574 92.0156 50.8574C94.1738 50.8574 95.917 51.6045 97.2451 53.0986C98.583 54.5928 99.252 56.5801 99.252 59.0605V59.251C99.252 60.7939 98.9541 62.1807 98.3584 63.4111C97.7725 64.6318 96.9277 65.584 95.8242 66.2676C94.7305 66.9512 93.4707 67.293 92.0449 67.293C89.8965 67.293 88.1533 66.5459 86.8154 65.0518C85.4873 63.5576 84.8232 61.5801 84.8232 59.1191V58.9287ZM87.5479 59.251C87.5479 61.0088 87.9531 62.4199 88.7637 63.4844C89.584 64.5488 90.6777 65.0811 92.0449 65.0811C93.4219 65.0811 94.5156 64.5439 95.3262 63.4697C96.1367 62.3857 96.542 60.8721 96.542 58.9287C96.542 57.1904 96.127 55.7842 95.2969 54.71C94.4766 53.626 93.3828 53.084 92.0156 53.084C90.6777 53.084 89.5986 53.6162 88.7783 54.6807C87.958 55.7451 87.5479 57.2686 87.5479 59.251ZM106.327 47.3125V51.1504H109.286V53.2451H106.327V63.0742C106.327 63.709 106.459 64.1875 106.723 64.5098C106.986 64.8223 107.436 64.9785 108.07 64.9785C108.383 64.9785 108.812 64.9199 109.359 64.8027V67C108.646 67.1953 107.953 67.293 107.279 67.293C106.068 67.293 105.155 66.9268 104.54 66.1943C103.925 65.4619 103.617 64.4219 103.617 63.0742V53.2451H100.731V51.1504H103.617V47.3125H106.327ZM115.409 67H112.699V51.1504H115.409V67ZM112.479 46.9463C112.479 46.5068 112.611 46.1357 112.875 45.833C113.148 45.5303 113.549 45.3789 114.076 45.3789C114.604 45.3789 115.004 45.5303 115.277 45.833C115.551 46.1357 115.688 46.5068 115.688 46.9463C115.688 47.3857 115.551 47.752 115.277 48.0449C115.004 48.3379 114.604 48.4844 114.076 48.4844C113.549 48.4844 113.148 48.3379 112.875 48.0449C112.611 47.752 112.479 47.3857 112.479 46.9463ZM120.668 67V53.2451H118.163V51.1504H120.668V49.8027C120.668 48.0352 121.171 46.6582 122.177 45.6719C123.192 44.6855 124.623 44.1924 126.469 44.1924C127.562 44.1924 128.944 44.4902 130.614 45.0859L130.16 47.3711C128.939 46.8828 127.777 46.6387 126.674 46.6387C125.512 46.6387 124.672 46.9023 124.154 47.4297C123.646 47.9473 123.393 48.7285 123.393 49.7734V51.1504H126.63V53.2451H123.393V67H120.668ZM131.962 67H129.237V51.1504H131.962V67ZM142.729 65.0811C143.695 65.0811 144.54 64.7881 145.263 64.2021C145.985 63.6162 146.386 62.8838 146.464 62.0049H149.027C148.979 62.9131 148.666 63.7773 148.09 64.5977C147.514 65.418 146.742 66.0723 145.775 66.5605C144.818 67.0488 143.803 67.293 142.729 67.293C140.57 67.293 138.852 66.5752 137.572 65.1396C136.303 63.6943 135.668 61.7217 135.668 59.2217V58.7676C135.668 57.2246 135.951 55.8525 136.518 54.6514C137.084 53.4502 137.895 52.5176 138.949 51.8535C140.014 51.1895 141.269 50.8574 142.714 50.8574C144.491 50.8574 145.966 51.3896 147.138 52.4541C148.319 53.5186 148.949 54.9004 149.027 56.5996H146.464C146.386 55.5742 145.995 54.7344 145.292 54.0801C144.599 53.416 143.739 53.084 142.714 53.084C141.337 53.084 140.268 53.582 139.506 54.5781C138.754 55.5645 138.378 56.9951 138.378 58.8701V59.3828C138.378 61.209 138.754 62.6152 139.506 63.6016C140.258 64.5879 141.332 65.0811 142.729 65.0811ZM161.859 67C161.703 66.6875 161.576 66.1309 161.479 65.3301C160.219 66.6387 158.715 67.293 156.967 67.293C155.404 67.293 154.12 66.8535 153.114 65.9746C152.118 65.0859 151.62 63.9629 151.62 62.6055C151.62 60.9551 152.245 59.6758 153.495 58.7676C154.755 57.8496 156.522 57.3906 158.798 57.3906H161.435V56.1455C161.435 55.1982 161.151 54.4463 160.585 53.8896C160.019 53.3232 159.184 53.04 158.08 53.04C157.113 53.04 156.303 53.2842 155.648 53.7725C154.994 54.2607 154.667 54.8516 154.667 55.5449H151.942C151.942 54.7539 152.221 53.9922 152.777 53.2598C153.344 52.5176 154.105 51.9316 155.062 51.502C156.029 51.0723 157.089 50.8574 158.241 50.8574C160.067 50.8574 161.498 51.3164 162.533 52.2344C163.568 53.1426 164.105 54.3975 164.145 55.999V63.2939C164.145 64.749 164.33 65.9062 164.701 66.7656V67H161.859ZM157.362 64.9346C158.212 64.9346 159.018 64.7148 159.779 64.2754C160.541 63.8359 161.093 63.2646 161.435 62.5615V59.3096H159.311C155.99 59.3096 154.33 60.2812 154.33 62.2246C154.33 63.0742 154.613 63.7383 155.18 64.2168C155.746 64.6953 156.474 64.9346 157.362 64.9346ZM172.069 47.3125V51.1504H175.028V53.2451H172.069V63.0742C172.069 63.709 172.201 64.1875 172.465 64.5098C172.729 64.8223 173.178 64.9785 173.812 64.9785C174.125 64.9785 174.555 64.9199 175.102 64.8027V67C174.389 67.1953 173.695 67.293 173.021 67.293C171.811 67.293 170.897 66.9268 170.282 66.1943C169.667 65.4619 169.359 64.4219 169.359 63.0742V53.2451H166.474V51.1504H169.359V47.3125H172.069ZM181.151 67H178.441V51.1504H181.151V67ZM178.222 46.9463C178.222 46.5068 178.354 46.1357 178.617 45.833C178.891 45.5303 179.291 45.3789 179.818 45.3789C180.346 45.3789 180.746 45.5303 181.02 45.833C181.293 46.1357 181.43 46.5068 181.43 46.9463C181.43 47.3857 181.293 47.752 181.02 48.0449C180.746 48.3379 180.346 48.4844 179.818 48.4844C179.291 48.4844 178.891 48.3379 178.617 48.0449C178.354 47.752 178.222 47.3857 178.222 46.9463ZM184.784 58.9287C184.784 57.376 185.087 55.9795 185.692 54.7393C186.308 53.499 187.157 52.542 188.241 51.8682C189.335 51.1943 190.58 50.8574 191.977 50.8574C194.135 50.8574 195.878 51.6045 197.206 53.0986C198.544 54.5928 199.213 56.5801 199.213 59.0605V59.251C199.213 60.7939 198.915 62.1807 198.319 63.4111C197.733 64.6318 196.889 65.584 195.785 66.2676C194.691 66.9512 193.432 67.293 192.006 67.293C189.857 67.293 188.114 66.5459 186.776 65.0518C185.448 63.5576 184.784 61.5801 184.784 59.1191V58.9287ZM187.509 59.251C187.509 61.0088 187.914 62.4199 188.725 63.4844C189.545 64.5488 190.639 65.0811 192.006 65.0811C193.383 65.0811 194.477 64.5439 195.287 63.4697C196.098 62.3857 196.503 60.8721 196.503 58.9287C196.503 57.1904 196.088 55.7842 195.258 54.71C194.438 53.626 193.344 53.084 191.977 53.084C190.639 53.084 189.56 53.6162 188.739 54.6807C187.919 55.7451 187.509 57.2686 187.509 59.251ZM205.175 51.1504L205.263 53.1426C206.474 51.6191 208.056 50.8574 210.009 50.8574C213.358 50.8574 215.048 52.7471 215.077 56.5264V67H212.367V56.5117C212.357 55.3691 212.094 54.5244 211.576 53.9775C211.068 53.4307 210.272 53.1572 209.188 53.1572C208.31 53.1572 207.538 53.3916 206.874 53.8604C206.21 54.3291 205.692 54.9443 205.321 55.7061V67H202.611V51.1504H205.175ZM228.393 62.7959C228.393 62.0635 228.114 61.4971 227.558 61.0967C227.011 60.6865 226.049 60.335 224.672 60.042C223.305 59.749 222.216 59.3975 221.405 58.9873C220.604 58.5771 220.009 58.0889 219.618 57.5225C219.237 56.9561 219.047 56.2822 219.047 55.501C219.047 54.2021 219.594 53.1035 220.688 52.2051C221.791 51.3066 223.197 50.8574 224.906 50.8574C226.703 50.8574 228.158 51.3213 229.271 52.249C230.395 53.1768 230.956 54.3633 230.956 55.8086H228.231C228.231 55.0664 227.914 54.4268 227.279 53.8896C226.654 53.3525 225.863 53.084 224.906 53.084C223.92 53.084 223.148 53.2988 222.592 53.7285C222.035 54.1582 221.757 54.7197 221.757 55.4131C221.757 56.0674 222.016 56.5605 222.533 56.8926C223.051 57.2246 223.983 57.542 225.331 57.8447C226.688 58.1475 227.787 58.5088 228.627 58.9287C229.467 59.3486 230.087 59.8564 230.487 60.4521C230.897 61.0381 231.103 61.7559 231.103 62.6055C231.103 64.0215 230.536 65.1592 229.403 66.0186C228.271 66.8682 226.801 67.293 224.994 67.293C223.725 67.293 222.602 67.0684 221.625 66.6191C220.648 66.1699 219.882 65.5449 219.325 64.7441C218.778 63.9336 218.505 63.0596 218.505 62.1221H221.215C221.264 63.0303 221.625 63.7529 222.299 64.29C222.982 64.8174 223.881 65.0811 224.994 65.0811C226.02 65.0811 226.84 64.876 227.455 64.4658C228.08 64.0459 228.393 63.4893 228.393 62.7959ZM24.3838 102V88.2451H21.8789V86.1504H24.3838V84.5244C24.3838 82.8252 24.8379 81.5117 25.7461 80.584C26.6543 79.6562 27.9385 79.1924 29.5986 79.1924C30.2236 79.1924 30.8438 79.2754 31.459 79.4414L31.3125 81.6387C30.8535 81.5508 30.3652 81.5068 29.8477 81.5068C28.9688 81.5068 28.29 81.7656 27.8115 82.2832C27.333 82.791 27.0938 83.5234 27.0938 84.4805V86.1504H30.4775V88.2451H27.0938V102H24.3838ZM32.7627 93.9287C32.7627 92.376 33.0654 90.9795 33.6709 89.7393C34.2861 88.499 35.1357 87.542 36.2197 86.8682C37.3135 86.1943 38.5586 85.8574 39.9551 85.8574C42.1133 85.8574 43.8564 86.6045 45.1846 88.0986C46.5225 89.5928 47.1914 91.5801 47.1914 94.0605V94.251C47.1914 95.7939 46.8936 97.1807 46.2979 98.4111C45.7119 99.6318 44.8672 100.584 43.7637 101.268C42.6699 101.951 41.4102 102.293 39.9844 102.293C37.8359 102.293 36.0928 101.546 34.7549 100.052C33.4268 98.5576 32.7627 96.5801 32.7627 94.1191V93.9287ZM35.4873 94.251C35.4873 96.0088 35.8926 97.4199 36.7031 98.4844C37.5234 99.5488 38.6172 100.081 39.9844 100.081C41.3613 100.081 42.4551 99.5439 43.2656 98.4697C44.0762 97.3857 44.4814 95.8721 44.4814 93.9287C44.4814 92.1904 44.0664 90.7842 43.2363 89.71C42.416 88.626 41.3223 88.084 39.9551 88.084C38.6172 88.084 37.5381 88.6162 36.7178 89.6807C35.8975 90.7451 35.4873 92.2686 35.4873 94.251ZM60.375 100.433C59.3203 101.673 57.7725 102.293 55.7314 102.293C54.042 102.293 52.7529 101.805 51.8643 100.828C50.9854 99.8418 50.541 98.3867 50.5312 96.4629V86.1504H53.2412V96.3896C53.2412 98.792 54.2178 99.9932 56.1709 99.9932C58.2412 99.9932 59.6182 99.2217 60.3018 97.6787V86.1504H63.0117V102H60.4336L60.375 100.433ZM69.7061 86.1504L69.7939 88.1426C71.0049 86.6191 72.5869 85.8574 74.54 85.8574C77.8896 85.8574 79.5791 87.7471 79.6084 91.5264V102H76.8984V91.5117C76.8887 90.3691 76.625 89.5244 76.1074 88.9775C75.5996 88.4307 74.8037 88.1572 73.7197 88.1572C72.8408 88.1572 72.0693 88.3916 71.4053 88.8604C70.7412 89.3291 70.2236 89.9443 69.8525 90.7061V102H67.1426V86.1504H69.7061ZM83.0361 93.9434C83.0361 91.5117 83.6123 89.5586 84.7646 88.084C85.917 86.5996 87.4258 85.8574 89.291 85.8574C91.1465 85.8574 92.6162 86.4922 93.7002 87.7617V79.5H96.4102V102H93.9199L93.7881 100.301C92.7041 101.629 91.1953 102.293 89.2617 102.293C87.4258 102.293 85.9268 101.541 84.7646 100.037C83.6123 98.5332 83.0361 96.5703 83.0361 94.1484V93.9434ZM85.7461 94.251C85.7461 96.0479 86.1172 97.4541 86.8594 98.4697C87.6016 99.4854 88.627 99.9932 89.9355 99.9932C91.6543 99.9932 92.9092 99.2217 93.7002 97.6787V90.3984C92.8896 88.9043 91.6445 88.1572 89.9648 88.1572C88.6367 88.1572 87.6016 88.6699 86.8594 89.6953C86.1172 90.7207 85.7461 92.2393 85.7461 94.251Z" fill="#E9FFF9"/>
</svg>
