<svg width="348" height="580" viewBox="0 0 348 580" fill="none" xmlns="http://www.w3.org/2000/svg">
<path d="M104.427 266.598C118.871 258.702 123.972 240.211 115.82 225.297C107.667 210.383 89.3483 204.694 74.9035 212.591C60.4587 220.487 55.3579 238.978 63.5104 253.892C71.663 268.805 89.9817 274.494 104.427 266.598Z" fill="#2F2E41"/>
<path d="M89.665 272.062C103.23 272.062 114.226 261.066 114.226 247.501C114.226 233.936 103.23 222.94 89.665 222.94C76.1003 222.94 65.104 233.936 65.104 247.501C65.104 261.066 76.1003 272.062 89.665 272.062Z" fill="#FFB8B8"/>
<path d="M76.4957 285.07L73.3373 294.004L77.983 320.893L97.1292 336.801L112.333 313.291L105.013 291.047L99.5225 284.853C99.5764 284.296 99.5146 283.734 99.341 283.203C99.1675 282.671 98.8858 282.181 98.5139 281.763C98.1419 281.345 97.6876 281.009 97.1795 280.775C96.6713 280.541 96.1203 280.414 95.5611 280.404L83.5703 280.17C82.0258 280.14 80.5112 280.597 79.2412 281.477C77.9713 282.356 77.0107 283.613 76.4957 285.07Z" fill="#CCCCCC"/>
<path d="M127.376 568.297L139.636 568.295L141.329 521.007L127.372 521.009L127.376 568.297Z" fill="#FFB8B8"/>
<path d="M163.281 579.677L124.75 579.681L124.749 564.794L148.393 564.792C152.341 564.792 156.128 566.36 158.92 569.151C161.712 571.943 163.28 575.729 163.281 579.677L163.281 579.677Z" fill="#2F2E41"/>
<path d="M41.493 568.297L53.753 568.295L59.583 521.007L41.489 521.009L41.493 568.297Z" fill="#FFB8B8"/>
<path d="M77.3978 579.677L38.8671 579.681L38.8657 564.794L62.5096 564.792C66.4578 564.792 70.2445 566.36 73.0366 569.151C75.8287 571.943 77.3975 575.729 77.3978 579.677L77.3978 579.677Z" fill="#2F2E41"/>
<path d="M149.289 236.207C150.547 236.968 151.622 237.995 152.44 239.217C153.258 240.438 153.798 241.824 154.022 243.277C154.247 244.73 154.15 246.214 153.738 247.626C153.327 249.037 152.611 250.341 151.641 251.446L161.781 272.067L150.752 281.285L136.842 251.963C135.094 250.211 134.05 247.878 133.907 245.407C133.764 242.936 134.533 240.499 136.067 238.556C137.601 236.614 139.795 235.302 142.231 234.869C144.668 234.436 147.179 234.912 149.289 236.207H149.289Z" fill="#FFB8B8"/>
<path d="M76.1927 397.68C70.216 397.602 64.2496 397.162 58.3262 396.362C57.3126 396.234 56.3382 395.89 55.4687 395.354C54.5993 394.818 53.8549 394.101 53.286 393.253C52.7171 392.404 52.3367 391.444 52.1706 390.436C52.0046 389.428 52.0567 388.396 52.3234 387.41L65.5947 338.269L54.907 308.285C53.7554 305.046 53.8845 301.491 55.2677 298.344C56.6509 295.198 59.1838 292.699 62.3484 291.359L77.029 285.152L81.4412 312.465L91.9533 325.72C92.3023 326.16 92.7545 326.507 93.2697 326.731C93.785 326.954 94.3474 327.048 94.9072 327.002C95.4671 326.957 96.0072 326.774 96.4796 326.471C96.9521 326.167 97.3425 325.751 97.6161 325.261L105.599 310.952L99.0783 284.66L108.8 285.81C111.938 286.192 114.906 287.447 117.366 289.434C119.826 291.42 121.678 294.057 122.712 297.045C125.699 305.733 125.96 315.127 123.458 323.968L119.43 338.28L126.504 384.001C126.697 385.247 126.636 386.519 126.323 387.741C126.01 388.962 125.453 390.107 124.684 391.107C123.916 392.106 122.953 392.94 121.853 393.556C120.753 394.172 119.54 394.559 118.286 394.692C113.766 395.213 109.214 395.403 104.666 395.262C100.54 395.086 97.6413 392.57 96.2844 387.985C96.2107 387.716 96.0512 387.479 95.8303 387.31C95.6094 387.141 95.3392 387.049 95.0609 387.047C94.7826 387.046 94.5115 387.135 94.2888 387.302C94.0662 387.469 93.9043 387.704 93.8278 387.972C93.4522 389.304 93.039 390.786 92.5883 392.42C91.4953 396.387 84.651 397.68 76.1927 397.68Z" fill="#2F2E41"/>
<path d="M118.849 308.979C117.63 308.983 116.423 308.744 115.297 308.278C113.974 307.73 112.807 306.865 111.897 305.76C110.987 304.655 110.362 303.343 110.078 301.94C109.65 299.714 109.948 297.41 110.929 295.367C111.91 293.324 113.522 291.65 115.526 290.593L144.173 275.039L142.606 268.844C142.389 267.894 142.456 266.901 142.799 265.988C143.141 265.076 143.743 264.284 144.531 263.71L151.918 258.223C152.479 257.793 153.13 257.493 153.822 257.347C154.514 257.201 155.23 257.212 155.918 257.378C156.523 257.531 157.088 257.817 157.569 258.215C158.05 258.614 158.435 259.115 158.697 259.683L162.535 267.968C165.571 274.523 162.975 282.597 156.496 286.747L124.367 307.33C122.723 308.395 120.808 308.968 118.849 308.979Z" fill="#2F2E41"/>
<path d="M58.4955 546.314C58.3958 546.314 58.2955 546.311 58.1947 546.305L42.5858 545.678C41.9804 545.64 41.3889 545.48 40.8468 545.208C40.3048 544.936 39.8233 544.557 39.4314 544.094C39.0395 543.631 38.7453 543.093 38.5663 542.514C38.3874 541.934 38.3275 541.324 38.3902 540.721L54.2323 388.31L95.8082 373.191L120.292 387.046L147.077 534.726C147.288 535.856 147.058 537.024 146.434 537.99C145.811 538.956 144.842 539.647 143.725 539.921L143.661 539.937L127.682 539.544C126.581 539.793 125.426 539.621 124.446 539.06C123.466 538.5 122.731 537.592 122.387 536.517L88.3583 417.103C88.2562 416.792 88.0546 416.522 87.7846 416.336C87.5146 416.149 87.1911 416.057 86.8634 416.072C86.5357 416.087 86.222 416.209 85.9704 416.42C85.7187 416.63 85.543 416.917 85.4701 417.237L62.8799 542.79C62.6605 543.79 62.1061 544.684 61.3087 545.325C60.5112 545.966 59.5186 546.315 58.4955 546.314Z" fill="#2F2E41"/>
<path d="M68.2134 231.996C64.3063 237.111 67.2798 245.817 73.4996 247.474C79.7195 249.131 86.6298 243.056 85.7845 236.675C84.4422 243.37 90.1719 250.376 96.9739 250.971C103.776 251.567 110.39 246.237 111.878 239.573C113.366 232.91 110.045 225.629 104.391 221.801C98.7368 217.972 91.1656 217.475 84.7683 219.862C78.2378 222.304 72.5088 226.503 68.2134 231.996Z" fill="#2F2E41"/>
<path d="M97.821 210.162C94.1829 202.527 90.4449 194.746 84.5647 188.667C78.6845 182.588 70.1782 178.401 61.843 179.834C53.5079 181.268 46.3301 189.68 48.1762 197.934C49.114 202.126 45.5242 206.28 41.3863 207.435C37.2485 208.59 32.8386 207.51 28.748 206.198C24.6574 204.885 20.5134 203.318 16.2213 203.503C7.61518 203.873 0.419858 212.02 0.117518 220.628C-0.184822 229.237 5.67131 237.432 13.5282 240.963C21.3851 244.495 30.7832 243.704 38.533 239.943C46.2827 236.182 52.4793 229.698 57.0105 222.372C63.7061 211.546 80.5318 208.876 90.2498 217.097C91.2905 217.914 92.6008 218.309 93.9197 218.203C95.2385 218.098 96.4691 217.499 97.3663 216.526C99.085 214.521 98.8359 211.138 97.821 210.162Z" fill="#2F2E41"/>
<path d="M77.3709 354.124C76.9032 352.73 76.1355 351.456 75.1221 350.391C74.1086 349.326 72.874 348.496 71.5052 347.96C70.1364 347.424 68.6667 347.195 67.1995 347.288C65.7324 347.381 64.3036 347.795 63.0137 348.5L45.0396 334.998L40.7008 347.35L59.2763 362.829C60.6046 364.917 62.653 366.446 65.033 367.125C67.4131 367.804 69.9596 367.586 72.19 366.513C74.4204 365.44 76.1797 363.587 77.1346 361.303C78.0895 359.02 78.1735 356.465 77.3709 354.124H77.3709Z" fill="#FFB8B8"/>
<path d="M51.5991 358.383C50.8074 358.383 50.0319 358.158 49.3631 357.734L41.6442 352.855C35.5368 348.996 33.3375 340.806 36.5284 333.804L52.3518 299.082C52.9868 297.627 53.9646 296.347 55.2017 295.351C56.4388 294.356 57.8985 293.675 59.456 293.366C60.8643 293.108 62.3143 293.201 63.6784 293.635C65.0425 294.07 66.2788 294.833 67.2784 295.858C68.8458 297.495 69.8455 299.593 70.1299 301.841C70.4143 304.09 69.9684 306.37 68.858 308.346L53.232 336.954L57.9096 341.307C58.6072 341.988 59.0896 342.858 59.2973 343.81C59.5049 344.763 59.4285 345.755 59.0776 346.664L55.8496 355.281C55.6113 355.947 55.2271 356.551 54.725 357.05C54.2229 357.548 53.6158 357.928 52.948 358.161C52.5133 358.308 52.0578 358.382 51.5991 358.383Z" fill="#2F2E41"/>
<path d="M99 32.2857V145.286C99 163.043 113.006 177.571 130.125 177.571H192.375V226L254.625 177.571H316.875C334.009 177.571 348 163.043 348 145.286V32.2857C348 14.5286 334.009 0 316.875 0H130.125C113.006 0 99 14.5286 99 32.2857Z" fill="#9ED8DB"/>
<path d="M144.867 78H142.04L131.303 61.5645V78H128.476V56.6719H131.303L142.069 73.1807V56.6719H144.867V78ZM148.72 69.9287C148.72 68.376 149.022 66.9795 149.628 65.7393C150.243 64.499 151.093 63.542 152.177 62.8682C153.271 62.1943 154.516 61.8574 155.912 61.8574C158.07 61.8574 159.813 62.6045 161.142 64.0986C162.479 65.5928 163.148 67.5801 163.148 70.0605V70.251C163.148 71.7939 162.851 73.1807 162.255 74.4111C161.669 75.6318 160.824 76.584 159.721 77.2676C158.627 77.9512 157.367 78.293 155.941 78.293C153.793 78.293 152.05 77.5459 150.712 76.0518C149.384 74.5576 148.72 72.5801 148.72 70.1191V69.9287ZM151.444 70.251C151.444 72.0088 151.85 73.4199 152.66 74.4844C153.48 75.5488 154.574 76.0811 155.941 76.0811C157.318 76.0811 158.412 75.5439 159.223 74.4697C160.033 73.3857 160.438 71.8721 160.438 69.9287C160.438 68.1904 160.023 66.7842 159.193 65.71C158.373 64.626 157.279 64.084 155.912 64.084C154.574 64.084 153.495 64.6162 152.675 65.6807C151.854 66.7451 151.444 68.2686 151.444 70.251ZM187.377 70.251C187.377 72.6631 186.825 74.6064 185.722 76.0811C184.618 77.5557 183.124 78.293 181.239 78.293C179.315 78.293 177.802 77.6826 176.698 76.4619V84.0938H173.988V62.1504H176.464L176.596 63.9082C177.699 62.541 179.232 61.8574 181.195 61.8574C183.1 61.8574 184.604 62.5752 185.707 64.0107C186.82 65.4463 187.377 67.4434 187.377 70.002V70.251ZM184.667 69.9434C184.667 68.1562 184.286 66.7451 183.524 65.71C182.763 64.6748 181.718 64.1572 180.39 64.1572C178.749 64.1572 177.519 64.8848 176.698 66.3398V73.9131C177.509 75.3584 178.749 76.0811 180.419 76.0811C181.718 76.0811 182.748 75.5684 183.51 74.543C184.281 73.5078 184.667 71.9746 184.667 69.9434ZM190.116 69.9287C190.116 68.376 190.419 66.9795 191.024 65.7393C191.64 64.499 192.489 63.542 193.573 62.8682C194.667 62.1943 195.912 61.8574 197.309 61.8574C199.467 61.8574 201.21 62.6045 202.538 64.0986C203.876 65.5928 204.545 67.5801 204.545 70.0605V70.251C204.545 71.7939 204.247 73.1807 203.651 74.4111C203.065 75.6318 202.221 76.584 201.117 77.2676C200.023 77.9512 198.764 78.293 197.338 78.293C195.189 78.293 193.446 77.5459 192.108 76.0518C190.78 74.5576 190.116 72.5801 190.116 70.1191V69.9287ZM192.841 70.251C192.841 72.0088 193.246 73.4199 194.057 74.4844C194.877 75.5488 195.971 76.0811 197.338 76.0811C198.715 76.0811 199.809 75.5439 200.619 74.4697C201.43 73.3857 201.835 71.8721 201.835 69.9287C201.835 68.1904 201.42 66.7842 200.59 65.71C199.77 64.626 198.676 64.084 197.309 64.084C195.971 64.084 194.892 64.6162 194.071 65.6807C193.251 66.7451 192.841 68.2686 192.841 70.251ZM217.172 73.7959C217.172 73.0635 216.894 72.4971 216.337 72.0967C215.79 71.6865 214.828 71.335 213.451 71.042C212.084 70.749 210.995 70.3975 210.185 69.9873C209.384 69.5771 208.788 69.0889 208.397 68.5225C208.017 67.9561 207.826 67.2822 207.826 66.501C207.826 65.2021 208.373 64.1035 209.467 63.2051C210.57 62.3066 211.977 61.8574 213.686 61.8574C215.482 61.8574 216.938 62.3213 218.051 63.249C219.174 64.1768 219.735 65.3633 219.735 66.8086H217.011C217.011 66.0664 216.693 65.4268 216.059 64.8896C215.434 64.3525 214.643 64.084 213.686 64.084C212.699 64.084 211.928 64.2988 211.371 64.7285C210.814 65.1582 210.536 65.7197 210.536 66.4131C210.536 67.0674 210.795 67.5605 211.312 67.8926C211.83 68.2246 212.763 68.542 214.11 68.8447C215.468 69.1475 216.566 69.5088 217.406 69.9287C218.246 70.3486 218.866 70.8564 219.267 71.4521C219.677 72.0381 219.882 72.7559 219.882 73.6055C219.882 75.0215 219.315 76.1592 218.183 77.0186C217.05 77.8682 215.58 78.293 213.773 78.293C212.504 78.293 211.381 78.0684 210.404 77.6191C209.428 77.1699 208.661 76.5449 208.104 75.7441C207.558 74.9336 207.284 74.0596 207.284 73.1221H209.994C210.043 74.0303 210.404 74.7529 211.078 75.29C211.762 75.8174 212.66 76.0811 213.773 76.0811C214.799 76.0811 215.619 75.876 216.234 75.4658C216.859 75.0459 217.172 74.4893 217.172 73.7959ZM227.089 58.3125V62.1504H230.048V64.2451H227.089V74.0742C227.089 74.709 227.221 75.1875 227.484 75.5098C227.748 75.8223 228.197 75.9785 228.832 75.9785C229.145 75.9785 229.574 75.9199 230.121 75.8027V78C229.408 78.1953 228.715 78.293 228.041 78.293C226.83 78.293 225.917 77.9268 225.302 77.1943C224.687 76.4619 224.379 75.4219 224.379 74.0742V64.2451H221.493V62.1504H224.379V58.3125H227.089ZM242.455 73.7959C242.455 73.0635 242.177 72.4971 241.62 72.0967C241.073 71.6865 240.111 71.335 238.734 71.042C237.367 70.749 236.278 70.3975 235.468 69.9873C234.667 69.5771 234.071 69.0889 233.681 68.5225C233.3 67.9561 233.109 67.2822 233.109 66.501C233.109 65.2021 233.656 64.1035 234.75 63.2051C235.854 62.3066 237.26 61.8574 238.969 61.8574C240.766 61.8574 242.221 62.3213 243.334 63.249C244.457 64.1768 245.019 65.3633 245.019 66.8086H242.294C242.294 66.0664 241.977 65.4268 241.342 64.8896C240.717 64.3525 239.926 64.084 238.969 64.084C237.982 64.084 237.211 64.2988 236.654 64.7285C236.098 65.1582 235.819 65.7197 235.819 66.4131C235.819 67.0674 236.078 67.5605 236.596 67.8926C237.113 68.2246 238.046 68.542 239.394 68.8447C240.751 69.1475 241.85 69.5088 242.689 69.9287C243.529 70.3486 244.149 70.8564 244.55 71.4521C244.96 72.0381 245.165 72.7559 245.165 73.6055C245.165 75.0215 244.599 76.1592 243.466 77.0186C242.333 77.8682 240.863 78.293 239.057 78.293C237.787 78.293 236.664 78.0684 235.688 77.6191C234.711 77.1699 233.944 76.5449 233.388 75.7441C232.841 74.9336 232.567 74.0596 232.567 73.1221H235.277C235.326 74.0303 235.688 74.7529 236.361 75.29C237.045 75.8174 237.943 76.0811 239.057 76.0811C240.082 76.0811 240.902 75.876 241.518 75.4658C242.143 75.0459 242.455 74.4893 242.455 73.7959ZM257.47 78V64.2451H254.965V62.1504H257.47V60.5244C257.47 58.8252 257.924 57.5117 258.832 56.584C259.74 55.6562 261.024 55.1924 262.685 55.1924C263.31 55.1924 263.93 55.2754 264.545 55.4414L264.398 57.6387C263.939 57.5508 263.451 57.5068 262.934 57.5068C262.055 57.5068 261.376 57.7656 260.897 58.2832C260.419 58.791 260.18 59.5234 260.18 60.4805V62.1504H263.563V64.2451H260.18V78H257.47ZM265.849 69.9287C265.849 68.376 266.151 66.9795 266.757 65.7393C267.372 64.499 268.222 63.542 269.306 62.8682C270.399 62.1943 271.645 61.8574 273.041 61.8574C275.199 61.8574 276.942 62.6045 278.271 64.0986C279.608 65.5928 280.277 67.5801 280.277 70.0605V70.251C280.277 71.7939 279.979 73.1807 279.384 74.4111C278.798 75.6318 277.953 76.584 276.85 77.2676C275.756 77.9512 274.496 78.293 273.07 78.293C270.922 78.293 269.179 77.5459 267.841 76.0518C266.513 74.5576 265.849 72.5801 265.849 70.1191V69.9287ZM268.573 70.251C268.573 72.0088 268.979 73.4199 269.789 74.4844C270.609 75.5488 271.703 76.0811 273.07 76.0811C274.447 76.0811 275.541 75.5439 276.352 74.4697C277.162 73.3857 277.567 71.8721 277.567 69.9287C277.567 68.1904 277.152 66.7842 276.322 65.71C275.502 64.626 274.408 64.084 273.041 64.084C271.703 64.084 270.624 64.6162 269.804 65.6807C268.983 66.7451 268.573 68.2686 268.573 70.251ZM293.461 76.4326C292.406 77.6729 290.858 78.293 288.817 78.293C287.128 78.293 285.839 77.8047 284.95 76.8281C284.071 75.8418 283.627 74.3867 283.617 72.4629V62.1504H286.327V72.3896C286.327 74.792 287.304 75.9932 289.257 75.9932C291.327 75.9932 292.704 75.2217 293.388 73.6787V62.1504H296.098V78H293.52L293.461 76.4326ZM302.792 62.1504L302.88 64.1426C304.091 62.6191 305.673 61.8574 307.626 61.8574C310.976 61.8574 312.665 63.7471 312.694 67.5264V78H309.984V67.5117C309.975 66.3691 309.711 65.5244 309.193 64.9775C308.686 64.4307 307.89 64.1572 306.806 64.1572C305.927 64.1572 305.155 64.3916 304.491 64.8604C303.827 65.3291 303.31 65.9443 302.938 66.7061V78H300.229V62.1504H302.792ZM316.122 69.9434C316.122 67.5117 316.698 65.5586 317.851 64.084C319.003 62.5996 320.512 61.8574 322.377 61.8574C324.232 61.8574 325.702 62.4922 326.786 63.7617V55.5H329.496V78H327.006L326.874 76.3008C325.79 77.6289 324.281 78.293 322.348 78.293C320.512 78.293 319.013 77.541 317.851 76.0371C316.698 74.5332 316.122 72.5703 316.122 70.1484V69.9434ZM318.832 70.251C318.832 72.0479 319.203 73.4541 319.945 74.4697C320.688 75.4854 321.713 75.9932 323.021 75.9932C324.74 75.9932 325.995 75.2217 326.786 73.6787V66.3984C325.976 64.9043 324.73 64.1572 323.051 64.1572C321.723 64.1572 320.688 64.6699 319.945 65.6953C319.203 66.7207 318.832 68.2393 318.832 70.251ZM131.728 93.3125V97.1504H134.687V99.2451H131.728V109.074C131.728 109.709 131.859 110.188 132.123 110.51C132.387 110.822 132.836 110.979 133.471 110.979C133.783 110.979 134.213 110.92 134.76 110.803V113C134.047 113.195 133.354 113.293 132.68 113.293C131.469 113.293 130.556 112.927 129.94 112.194C129.325 111.462 129.018 110.422 129.018 109.074V99.2451H126.132V97.1504H129.018V93.3125H131.728ZM136.854 104.929C136.854 103.376 137.157 101.979 137.763 100.739C138.378 99.499 139.228 98.542 140.312 97.8682C141.405 97.1943 142.65 96.8574 144.047 96.8574C146.205 96.8574 147.948 97.6045 149.276 99.0986C150.614 100.593 151.283 102.58 151.283 105.061V105.251C151.283 106.794 150.985 108.181 150.39 109.411C149.804 110.632 148.959 111.584 147.855 112.268C146.762 112.951 145.502 113.293 144.076 113.293C141.928 113.293 140.185 112.546 138.847 111.052C137.519 109.558 136.854 107.58 136.854 105.119V104.929ZM139.579 105.251C139.579 107.009 139.984 108.42 140.795 109.484C141.615 110.549 142.709 111.081 144.076 111.081C145.453 111.081 146.547 110.544 147.357 109.47C148.168 108.386 148.573 106.872 148.573 104.929C148.573 103.19 148.158 101.784 147.328 100.71C146.508 99.626 145.414 99.084 144.047 99.084C142.709 99.084 141.63 99.6162 140.81 100.681C139.989 101.745 139.579 103.269 139.579 105.251ZM171.352 108.796C171.352 108.063 171.073 107.497 170.517 107.097C169.97 106.687 169.008 106.335 167.631 106.042C166.264 105.749 165.175 105.397 164.364 104.987C163.563 104.577 162.968 104.089 162.577 103.522C162.196 102.956 162.006 102.282 162.006 101.501C162.006 100.202 162.553 99.1035 163.646 98.2051C164.75 97.3066 166.156 96.8574 167.865 96.8574C169.662 96.8574 171.117 97.3213 172.23 98.249C173.354 99.1768 173.915 100.363 173.915 101.809H171.19C171.19 101.066 170.873 100.427 170.238 99.8896C169.613 99.3525 168.822 99.084 167.865 99.084C166.879 99.084 166.107 99.2988 165.551 99.7285C164.994 100.158 164.716 100.72 164.716 101.413C164.716 102.067 164.975 102.561 165.492 102.893C166.01 103.225 166.942 103.542 168.29 103.845C169.647 104.147 170.746 104.509 171.586 104.929C172.426 105.349 173.046 105.856 173.446 106.452C173.856 107.038 174.062 107.756 174.062 108.605C174.062 110.021 173.495 111.159 172.362 112.019C171.229 112.868 169.76 113.293 167.953 113.293C166.684 113.293 165.561 113.068 164.584 112.619C163.607 112.17 162.841 111.545 162.284 110.744C161.737 109.934 161.464 109.06 161.464 108.122H164.174C164.223 109.03 164.584 109.753 165.258 110.29C165.941 110.817 166.84 111.081 167.953 111.081C168.979 111.081 169.799 110.876 170.414 110.466C171.039 110.046 171.352 109.489 171.352 108.796ZM180.302 99.0693C181.503 97.5947 183.065 96.8574 184.989 96.8574C188.339 96.8574 190.028 98.7471 190.058 102.526V113H187.348V102.512C187.338 101.369 187.074 100.524 186.557 99.9775C186.049 99.4307 185.253 99.1572 184.169 99.1572C183.29 99.1572 182.519 99.3916 181.854 99.8604C181.19 100.329 180.673 100.944 180.302 101.706V113H177.592V90.5H180.302V99.0693ZM193.397 104.929C193.397 103.376 193.7 101.979 194.306 100.739C194.921 99.499 195.771 98.542 196.854 97.8682C197.948 97.1943 199.193 96.8574 200.59 96.8574C202.748 96.8574 204.491 97.6045 205.819 99.0986C207.157 100.593 207.826 102.58 207.826 105.061V105.251C207.826 106.794 207.528 108.181 206.933 109.411C206.347 110.632 205.502 111.584 204.398 112.268C203.305 112.951 202.045 113.293 200.619 113.293C198.471 113.293 196.728 112.546 195.39 111.052C194.062 109.558 193.397 107.58 193.397 105.119V104.929ZM196.122 105.251C196.122 107.009 196.527 108.42 197.338 109.484C198.158 110.549 199.252 111.081 200.619 111.081C201.996 111.081 203.09 110.544 203.9 109.47C204.711 108.386 205.116 106.872 205.116 104.929C205.116 103.19 204.701 101.784 203.871 100.71C203.051 99.626 201.957 99.084 200.59 99.084C199.252 99.084 198.173 99.6162 197.353 100.681C196.532 101.745 196.122 103.269 196.122 105.251ZM225.258 109.265L228.305 97.1504H231.015L226.4 113H224.203L220.351 100.988L216.601 113H214.403L209.804 97.1504H212.499L215.619 109.016L219.311 97.1504H221.493L225.258 109.265Z" fill="#1D3354"/>
</svg>
