<svg width="419" height="640" viewBox="0 0 419 640" fill="none" xmlns="http://www.w3.org/2000/svg">
<rect y="400" width="419" height="240" rx="5" fill="#467599"/>
<path d="M289.792 430.814L281.611 452.116L195.587 430.684L207.661 399.245L289.792 430.814Z" fill="#FFB7B7"/>
<path d="M312.519 433.314L286.14 502L285.271 501.666C278.184 498.942 272.469 493.513 269.382 486.573C266.296 479.633 266.092 471.751 268.814 464.661L268.815 464.659L284.926 422.708L312.519 433.314Z" fill="#2F2E41"/>
<path d="M159.075 164.097L121.587 167.609L119.727 279.196C120.224 284.665 122.842 289.721 127.02 293.282C131.198 296.844 136.604 298.627 142.08 298.249L165.848 296.611L159.075 164.097Z" fill="#E5E5E5"/>
<path d="M291.237 158.605L265.587 158.275L264.067 290.864C269.735 291.053 275.382 290.072 280.654 287.981C285.926 285.89 290.712 282.735 294.711 278.713C298.711 274.69 301.839 269.887 303.901 264.601C305.962 259.315 306.913 253.662 306.694 247.992L291.237 158.605Z" fill="#E5E5E5"/>
<path d="M142.401 337.966C141.793 341.812 140.911 345.61 139.762 349.33C138.468 352.971 136.469 356.338 135.286 360.017C131.514 371.743 136.743 384.817 145.096 393.868C152.339 401.686 161.689 407.24 172.017 409.86C179.552 411.756 187.387 412.029 195.152 412.293C216.655 413.022 238.711 413.675 259.086 406.761C265.523 404.524 271.741 401.698 277.661 398.32C279.53 397.429 281.176 396.132 282.48 394.523C284.034 392.31 284.233 389.439 284.22 386.735C284.174 377.616 282.326 368.543 282.765 359.434C283.008 354.389 283.952 349.347 283.487 344.318C282.844 338.605 280.452 333.231 276.638 328.931C272.825 324.631 267.776 321.615 262.183 320.296C256.403 319.054 250.408 319.731 244.523 320.297C229.249 321.765 213.909 322.451 198.564 322.353C182.885 322.252 167.304 319.858 151.703 319.608C147.09 319.534 147.183 320.957 145.714 325.424C144.361 329.535 143.255 333.723 142.401 337.966Z" fill="#2F2E41"/>
<path d="M81.092 330.555C76.8759 329.495 72.5319 329.033 68.1873 329.182C63.6225 329.435 59.1637 330.657 55.1075 332.766C51.0512 334.876 47.4904 337.826 44.6617 341.419C41.8331 345.012 39.8016 349.166 38.7021 353.606C37.6027 358.045 37.4605 362.668 38.2852 367.166C39.3379 372.039 41.0587 376.743 43.3987 381.145C46.8211 388.093 50.9257 395.025 57.2614 399.478C60.9676 402.082 65.257 403.706 69.4955 405.304L102.864 417.879C107.773 419.729 112.683 421.58 117.64 423.295C142.546 431.907 168.513 437.072 194.817 438.644C202.83 439.121 210.964 439.254 218.78 437.429C220.635 436.996 222.614 436.351 223.688 434.777C224.324 433.668 224.699 432.429 224.784 431.154L226.838 416.774C227.127 414.749 227.405 412.617 226.663 410.711C225.722 408.295 223.365 406.774 221.117 405.483C199.179 392.878 173.564 385.924 155.099 368.624C150.752 364.551 147.114 358.095 141.833 355.329C135.844 352.192 128.79 350.401 122.599 347.51C109.066 341.19 95.7598 333.928 81.092 330.555Z" fill="#2F2E41"/>
<path opacity="0.1" d="M114.406 349.942C126.2 353.639 175.996 379.254 184.531 388.197C183.387 388.609 144.57 366.847 143.406 366.497C132.818 363.318 122.172 360.119 112.117 355.467C110.095 354.531 98.9767 350.132 99.4802 347.579C100.048 344.698 112.312 349.285 114.406 349.942Z" fill="black"/>
<path d="M185.587 126.592L153.831 150.713C153.831 150.713 120.322 151.762 121.454 173.191C122.587 194.619 135.998 296.078 135.998 296.078L138.907 330.987L194.1 346.72C223.922 355.22 255.428 355.896 285.587 348.681L279.028 313.659C279.028 313.659 305.587 154.603 289.587 147.601C273.587 140.598 263.587 142.599 263.587 142.599L243.531 125.091L185.587 126.592Z" fill="#467599"/>
<path d="M279.587 87.6298C279.587 118.944 250.644 114.207 214.941 114.207C179.238 114.207 150.295 118.944 150.295 87.6298C150.295 56.3162 164.433 0.810364 214.941 0.810364C267.189 0.810364 279.587 56.3162 279.587 87.6298Z" fill="#2F2E41"/>
<path d="M248.545 98.2418C265.533 81.247 265.533 53.6931 248.545 36.6983C231.557 19.7035 204.014 19.7035 187.026 36.6983C170.039 53.6931 170.038 81.2471 187.026 98.2419C204.014 115.237 231.557 115.237 248.545 98.2418Z" fill="#FFB7B7"/>
<path d="M164.464 66.3679H181.669L189.26 45.106L190.778 66.3679H199.001L203.429 53.9651L204.314 66.3679H265.418C265.418 54.1501 260.566 42.4326 251.93 33.7933C243.294 25.154 231.582 20.3005 219.369 20.3005H210.513C198.3 20.3005 186.587 25.154 177.952 33.7933C169.316 42.4326 164.464 54.1501 164.464 66.3679Z" fill="#2F2E41"/>
<path d="M258.587 131.594H171.587V236.636H258.587V131.594Z" fill="#1D3354"/>
<path d="M176.381 429.814L184.563 451.116L270.587 429.684L258.512 398.244L176.381 429.814Z" fill="#FFB7B7"/>
<path d="M181.247 421.708L197.358 463.659L197.359 463.661C200.082 470.751 199.877 478.633 196.791 485.573C193.705 492.512 187.989 497.942 180.902 500.666L180.034 501L153.654 432.314L181.247 421.708Z" fill="#2F2E41"/>
<path d="M348.335 322.401C355.245 320.667 362.409 320.178 369.492 320.955C375.148 321.578 380.975 323.153 385.105 327.069C390.131 331.836 391.746 339.208 391.881 346.136C392.102 359.933 387.527 373.38 378.939 384.178C376.842 386.909 374.348 389.311 371.54 391.304C368.511 393.199 365.282 394.756 361.913 395.945L287.185 425.431C267.526 433.189 247.797 440.968 227.292 446.082C226.177 446.621 224.894 446.694 223.725 446.286C222.556 445.878 221.597 445.022 221.059 443.907C221.042 443.873 221.026 443.839 221.011 443.804C214.463 434.448 208.971 424.396 204.632 413.832C204.427 413.581 204.285 413.284 204.219 412.967C204.152 412.649 204.163 412.32 204.251 412.008C204.338 411.695 204.5 411.409 204.722 411.172C204.943 410.935 205.219 410.755 205.525 410.648L258.38 380.266C262.166 378.09 265.995 375.883 269.138 372.851C271.423 370.636 273.293 368.031 274.662 365.158C275.757 362.869 275.859 357.467 277.259 355.774C278.629 354.118 283.316 353.985 285.481 353.334C288.534 352.398 291.524 351.268 294.432 349.949C306.255 344.657 316.784 336.969 328.118 330.773C334.475 327.137 341.269 324.324 348.335 322.401Z" fill="#2F2E41"/>
<path opacity="0.1" d="M318.37 345.09C309.289 351.913 297.531 358.185 288.531 365.188C285.46 367.578 234.255 396.377 233.531 400.202C241.928 401.617 295.414 364.184 303.067 360.449C310.72 356.714 317.503 351.446 324.225 346.218C325.939 344.885 333.199 340.88 328.281 339.391C325.511 338.552 320.415 343.726 318.37 345.09Z" fill="black"/>
<path opacity="0.17" d="M141.587 198.621L142.788 189.347C142.788 189.347 187.587 192.619 180.587 203.623C173.587 214.627 156.587 215.628 156.587 215.628L141.587 198.621Z" fill="#2F2E41"/>
<path d="M175.403 158.297C177.969 158.58 180.441 159.427 182.641 160.779C184.841 162.13 186.714 163.952 188.127 166.114C189.415 168.086 190.29 170.299 190.702 172.618C191.113 174.938 191.051 177.317 190.52 179.612C189.99 181.907 189.001 184.071 187.613 185.974C186.225 187.877 184.467 189.48 182.444 190.687C181.703 191.125 180.929 191.505 180.129 191.825L152.593 276.087C151.795 277.749 150.676 279.238 149.301 280.466C147.927 281.695 146.323 282.64 144.582 283.246C142.841 283.853 140.997 284.109 139.156 284C137.316 283.892 135.515 283.42 133.858 282.613C132.2 281.806 130.718 280.679 129.498 279.296C128.277 277.914 127.342 276.305 126.745 274.559C126.148 272.814 125.902 270.969 126.021 269.128C126.14 267.288 126.621 265.489 127.437 263.835L156.721 180.509C155.923 177.752 155.817 174.841 156.412 172.033C157.007 169.225 158.284 166.608 160.132 164.412C161.979 162.215 164.338 160.509 167.002 159.442C169.666 158.376 172.551 157.983 175.403 158.297Z" fill="#FFB7B7"/>
<path d="M141.998 190.137C141.998 190.137 157.776 217.106 180.587 203.623L158.48 288.255H139.854L120.587 284.656L125.981 249.689L141.998 190.137Z" fill="#467599"/>
<path d="M254.657 208.57L241.587 190.618C241.587 190.618 247.869 171.997 272.228 178.807C272.228 178.807 287.728 213.517 254.657 208.57Z" fill="#E5E5E5"/>
<path opacity="0.17" d="M254.657 208.57L241.587 190.618C241.587 190.618 247.869 171.997 272.228 178.807C272.228 178.807 287.728 213.517 254.657 208.57Z" fill="#2F2E41"/>
<path d="M258.118 145.849C261.889 147.602 264.905 150.652 266.618 154.442C268.331 158.233 268.627 162.513 267.452 166.504L296.736 249.83C297.553 251.483 298.034 253.282 298.153 255.123C298.272 256.963 298.026 258.809 297.429 260.554C296.832 262.3 295.897 263.909 294.676 265.292C293.455 266.674 291.973 267.801 290.316 268.608C288.658 269.416 286.857 269.887 285.017 269.996C283.176 270.105 281.333 269.848 279.592 269.242C277.851 268.635 276.246 267.69 274.872 266.461C273.497 265.232 272.378 263.744 271.581 262.081L244.044 177.82C243.245 177.5 242.47 177.119 241.729 176.681C239.706 175.475 237.948 173.872 236.56 171.969C235.173 170.065 234.183 167.901 233.653 165.606C233.122 163.311 233.06 160.932 233.472 158.613C233.883 156.293 234.758 154.081 236.046 152.108C237.459 149.947 239.333 148.125 241.533 146.773C243.733 145.422 246.204 144.574 248.771 144.292C251.971 143.929 255.208 144.468 258.118 145.849Z" fill="#FFB7B7"/>
<path d="M241.587 190.618C241.587 190.618 263.152 203.709 272.228 178.807L302.616 258.853L293.587 274.652L292.281 274.76C286.894 275.21 281.478 274.344 276.5 272.238C271.521 270.132 267.127 266.848 263.697 262.669C256.7 254.145 251.936 244.011 249.837 233.183L241.587 190.618Z" fill="#467599"/>
<path d="M46.2847 536.919V550H41.8784V516.586H54.2021C57.8587 516.586 60.7197 517.519 62.7852 519.386C64.8659 521.252 65.9062 523.723 65.9062 526.798C65.9062 530.042 64.8888 532.543 62.854 534.303C60.8345 536.047 57.9352 536.919 54.1562 536.919H46.2847ZM46.2847 533.316H54.2021C56.5583 533.316 58.3636 532.765 59.6182 531.664C60.8727 530.547 61.5 528.94 61.5 526.844C61.5 524.855 60.8727 523.264 59.6182 522.071C58.3636 520.877 56.6424 520.258 54.4546 520.212H46.2847V533.316ZM82.8657 528.979C82.2231 528.871 81.527 528.818 80.7773 528.818C77.9928 528.818 76.1034 530.004 75.1089 532.375V550H70.8633V525.169H74.9941L75.063 528.038C76.4552 525.819 78.4289 524.71 80.9839 524.71C81.8101 524.71 82.4373 524.817 82.8657 525.031V528.979ZM85.2065 537.355C85.2065 534.922 85.6808 532.735 86.6294 530.792C87.5933 528.848 88.9243 527.349 90.6226 526.293C92.3361 525.238 94.2868 524.71 96.4746 524.71C99.8558 524.71 102.587 525.88 104.667 528.221C106.764 530.562 107.812 533.675 107.812 537.562V537.86C107.812 540.277 107.345 542.45 106.412 544.377C105.494 546.29 104.17 547.782 102.441 548.853C100.728 549.924 98.7542 550.459 96.5205 550.459C93.1546 550.459 90.4237 549.289 88.3276 546.948C86.2469 544.607 85.2065 541.509 85.2065 537.653V537.355ZM89.4751 537.86C89.4751 540.614 90.11 542.825 91.3799 544.492C92.665 546.16 94.3786 546.994 96.5205 546.994C98.6777 546.994 100.391 546.152 101.661 544.469C102.931 542.771 103.566 540.4 103.566 537.355C103.566 534.632 102.916 532.429 101.615 530.746C100.33 529.047 98.6165 528.198 96.4746 528.198C94.3786 528.198 92.688 529.032 91.4028 530.7C90.1177 532.367 89.4751 534.754 89.4751 537.86ZM114.559 550V528.451H110.634V525.169H114.559V523.058C114.559 520.288 115.347 518.131 116.922 516.586C118.514 515.041 120.755 514.268 123.646 514.268C125.36 514.268 127.525 514.735 130.141 515.668L129.43 519.248C127.517 518.483 125.697 518.101 123.968 518.101C122.147 518.101 120.831 518.514 120.021 519.34C119.225 520.151 118.827 521.375 118.827 523.012V525.169H123.899V528.451H118.827V550H114.559ZM132.252 550H127.984V525.169H132.252V550ZM143.773 550H139.527V514.75H143.773V550ZM160.893 550.459C157.527 550.459 154.789 549.357 152.677 547.154C150.566 544.936 149.51 541.975 149.51 538.273V537.493C149.51 535.029 149.977 532.834 150.91 530.906C151.859 528.963 153.174 527.449 154.857 526.362C156.556 525.261 158.392 524.71 160.365 524.71C163.593 524.71 166.103 525.773 167.893 527.9C169.683 530.027 170.578 533.071 170.578 537.034V538.801H153.756C153.817 541.249 154.528 543.23 155.89 544.745C157.267 546.244 159.011 546.994 161.123 546.994C162.622 546.994 163.892 546.688 164.932 546.076C165.972 545.464 166.883 544.653 167.663 543.643L170.256 545.663C168.176 548.86 165.055 550.459 160.893 550.459ZM160.365 528.198C158.652 528.198 157.214 528.826 156.051 530.08C154.888 531.319 154.169 533.063 153.894 535.312H166.332V534.991C166.21 532.834 165.628 531.166 164.588 529.988C163.548 528.795 162.14 528.198 160.365 528.198ZM191.186 525.169L191.324 528.29C193.221 525.903 195.699 524.71 198.759 524.71C204.007 524.71 206.654 527.67 206.7 533.591V550H202.454V533.568C202.439 531.778 202.026 530.455 201.215 529.598C200.419 528.741 199.172 528.313 197.474 528.313C196.097 528.313 194.889 528.68 193.848 529.415C192.808 530.149 191.997 531.113 191.416 532.306V550H187.17V525.169H191.186ZM211.978 537.355C211.978 534.922 212.452 532.735 213.401 530.792C214.365 528.848 215.696 527.349 217.394 526.293C219.108 525.238 221.058 524.71 223.246 524.71C226.627 524.71 229.358 525.88 231.439 528.221C233.535 530.562 234.583 533.675 234.583 537.562V537.86C234.583 540.277 234.116 542.45 233.183 544.377C232.265 546.29 230.942 547.782 229.213 548.853C227.499 549.924 225.526 550.459 223.292 550.459C219.926 550.459 217.195 549.289 215.099 546.948C213.018 544.607 211.978 541.509 211.978 537.653V537.355ZM216.247 537.86C216.247 540.614 216.882 542.825 218.151 544.492C219.437 546.16 221.15 546.994 223.292 546.994C225.449 546.994 227.163 546.152 228.433 544.469C229.702 542.771 230.337 540.4 230.337 537.355C230.337 534.632 229.687 532.429 228.387 530.746C227.102 529.047 225.388 528.198 223.246 528.198C221.15 528.198 219.459 529.032 218.174 530.7C216.889 532.367 216.247 534.754 216.247 537.86ZM245.667 519.156V525.169H250.303V528.451H245.667V543.85C245.667 544.844 245.874 545.594 246.287 546.099C246.7 546.588 247.404 546.833 248.398 546.833C248.888 546.833 249.561 546.741 250.418 546.558V550C249.301 550.306 248.215 550.459 247.159 550.459C245.262 550.459 243.832 549.885 242.868 548.738C241.904 547.59 241.422 545.961 241.422 543.85V528.451H236.901V525.169H241.422V519.156H245.667ZM269.03 550V528.451H265.105V525.169H269.03V522.622C269.03 519.959 269.741 517.902 271.164 516.448C272.587 514.995 274.599 514.268 277.2 514.268C278.179 514.268 279.15 514.398 280.114 514.658L279.885 518.101C279.166 517.963 278.401 517.894 277.59 517.894C276.213 517.894 275.15 518.299 274.4 519.11C273.65 519.906 273.275 521.053 273.275 522.553V525.169H278.577V528.451H273.275V550H269.03ZM282.157 537.355C282.157 534.922 282.631 532.735 283.58 530.792C284.543 528.848 285.875 527.349 287.573 526.293C289.286 525.238 291.237 524.71 293.425 524.71C296.806 524.71 299.537 525.88 301.618 528.221C303.714 530.562 304.762 533.675 304.762 537.562V537.86C304.762 540.277 304.295 542.45 303.362 544.377C302.444 546.29 301.12 547.782 299.392 548.853C297.678 549.924 295.704 550.459 293.471 550.459C290.105 550.459 287.374 549.289 285.278 546.948C283.197 544.607 282.157 541.509 282.157 537.653V537.355ZM286.425 537.86C286.425 540.614 287.06 542.825 288.33 544.492C289.615 546.16 291.329 546.994 293.471 546.994C295.628 546.994 297.341 546.152 298.611 544.469C299.881 542.771 300.516 540.4 300.516 537.355C300.516 534.632 299.866 532.429 298.565 530.746C297.28 529.047 295.567 528.198 293.425 528.198C291.329 528.198 289.638 529.032 288.353 530.7C287.068 532.367 286.425 534.754 286.425 537.86ZM325.416 547.544C323.764 549.487 321.339 550.459 318.141 550.459C315.494 550.459 313.475 549.694 312.083 548.164C310.706 546.619 310.009 544.339 309.994 541.325V525.169H314.24V541.21C314.24 544.974 315.77 546.856 318.83 546.856C322.073 546.856 324.23 545.647 325.301 543.23V525.169H329.547V550H325.508L325.416 547.544ZM340.035 525.169L340.172 528.29C342.069 525.903 344.548 524.71 347.608 524.71C352.856 524.71 355.502 527.67 355.548 533.591V550H351.303V533.568C351.287 531.778 350.874 530.455 350.063 529.598C349.268 528.741 348.021 528.313 346.323 528.313C344.946 528.313 343.737 528.68 342.697 529.415C341.656 530.149 340.846 531.113 340.264 532.306V550H336.019V525.169H340.035ZM360.918 537.378C360.918 533.568 361.821 530.508 363.626 528.198C365.432 525.873 367.796 524.71 370.718 524.71C373.625 524.71 375.927 525.704 377.625 527.693V514.75H381.871V550H377.97L377.763 547.338C376.065 549.419 373.701 550.459 370.672 550.459C367.796 550.459 365.447 549.281 363.626 546.925C361.821 544.569 360.918 541.493 360.918 537.699V537.378ZM365.164 537.86C365.164 540.675 365.745 542.878 366.908 544.469C368.071 546.06 369.677 546.856 371.728 546.856C374.42 546.856 376.386 545.647 377.625 543.23V531.824C376.356 529.483 374.405 528.313 371.773 528.313C369.693 528.313 368.071 529.116 366.908 530.723C365.745 532.329 365.164 534.708 365.164 537.86Z" fill="#E9FFF9"/>
</svg>
