<svg width="503" height="746" viewBox="0 0 503 746" fill="none" xmlns="http://www.w3.org/2000/svg">
<path d="M411.776 635.927L88.1723 630.817C80.1744 630.682 72.5566 627.379 66.9906 621.632C61.4246 615.885 58.3643 608.164 58.4814 600.163L60.9616 442.869C61.097 434.867 64.3991 427.247 70.1438 421.678C75.888 416.111 83.606 413.049 91.6041 413.166L415.208 418.275C423.206 418.411 430.824 421.714 436.389 427.461C441.955 433.208 445.016 440.929 444.899 448.93L442.419 606.224C442.283 614.226 438.981 621.846 433.237 627.414C427.492 632.982 419.774 636.044 411.776 635.927Z" fill="#467599"/>
<path d="M337.792 430.814L329.611 452.116L243.587 430.684L255.661 399.245L337.792 430.814Z" fill="#FFB7B7"/>
<path d="M360.519 433.314L334.14 502L333.271 501.666C326.184 498.942 320.469 493.513 317.382 486.573C314.296 479.633 314.092 471.751 316.814 464.661L316.815 464.659L332.926 422.708L360.519 433.314Z" fill="#2F2E41"/>
<path d="M207.075 164.097L169.587 167.609L167.727 279.196C168.224 284.665 170.842 289.721 175.02 293.282C179.198 296.844 184.604 298.627 190.08 298.249L213.848 296.611L207.075 164.097Z" fill="#E5E5E5"/>
<path d="M339.237 158.605L313.587 158.275L312.067 290.864C317.735 291.053 323.382 290.072 328.654 287.981C333.926 285.89 338.712 282.735 342.711 278.713C346.711 274.69 349.839 269.887 351.901 264.601C353.962 259.315 354.913 253.662 354.694 247.992L339.237 158.605Z" fill="#E5E5E5"/>
<path d="M190.401 337.966C189.793 341.812 188.911 345.61 187.762 349.33C186.468 352.971 184.469 356.338 183.286 360.017C179.514 371.743 184.743 384.817 193.096 393.868C200.339 401.686 209.689 407.24 220.017 409.86C227.552 411.756 235.387 412.029 243.152 412.293C264.655 413.022 286.711 413.675 307.086 406.761C313.523 404.524 319.741 401.698 325.661 398.32C327.53 397.429 329.176 396.132 330.48 394.523C332.034 392.31 332.233 389.439 332.22 386.735C332.174 377.616 330.326 368.543 330.765 359.434C331.008 354.389 331.952 349.347 331.487 344.318C330.844 338.605 328.452 333.231 324.638 328.931C320.825 324.631 315.776 321.615 310.183 320.296C304.403 319.054 298.408 319.731 292.523 320.297C277.249 321.765 261.909 322.451 246.564 322.353C230.885 322.252 215.304 319.858 199.703 319.608C195.09 319.534 195.183 320.957 193.714 325.424C192.361 329.535 191.255 333.723 190.401 337.966V337.966Z" fill="#2F2E41"/>
<path d="M129.092 330.555C124.876 329.495 120.532 329.033 116.187 329.182C111.622 329.435 107.164 330.657 103.107 332.766C99.0512 334.876 95.4904 337.826 92.6617 341.419C89.8331 345.012 87.8016 349.166 86.7021 353.606C85.6027 358.045 85.4605 362.668 86.2852 367.166C87.3379 372.039 89.0587 376.743 91.3987 381.145C94.8211 388.093 98.9257 395.025 105.261 399.478C108.968 402.082 113.257 403.706 117.496 405.304L150.864 417.879C155.773 419.729 160.683 421.58 165.64 423.295C190.546 431.907 216.513 437.072 242.817 438.644C250.83 439.121 258.964 439.254 266.78 437.429C268.635 436.996 270.614 436.351 271.688 434.777C272.324 433.668 272.699 432.429 272.784 431.154L274.838 416.774C275.127 414.749 275.405 412.617 274.663 410.711C273.722 408.295 271.365 406.774 269.117 405.483C247.179 392.878 221.564 385.924 203.099 368.624C198.752 364.551 195.114 358.095 189.833 355.329C183.844 352.192 176.79 350.401 170.599 347.51C157.066 341.19 143.76 333.928 129.092 330.555Z" fill="#2F2E41"/>
<path opacity="0.1" d="M162.406 349.942C174.2 353.639 223.996 379.254 232.531 388.197C231.387 388.609 192.57 366.847 191.406 366.497C180.818 363.318 170.172 360.119 160.117 355.467C158.095 354.531 146.977 350.132 147.48 347.579C148.048 344.698 160.312 349.285 162.406 349.942Z" fill="black"/>
<path d="M233.587 126.592L201.831 150.713C201.831 150.713 168.322 151.762 169.454 173.191C170.587 194.619 183.998 296.078 183.998 296.078L186.907 330.987L242.1 346.72C271.922 355.22 303.428 355.896 333.587 348.681V348.681L327.028 313.659C327.028 313.659 353.587 154.603 337.587 147.601C321.587 140.598 311.587 142.599 311.587 142.599L291.531 125.091L233.587 126.592Z" fill="#467599"/>
<path d="M327.587 87.6298C327.587 118.944 298.644 114.207 262.941 114.207C227.238 114.207 198.295 118.944 198.295 87.6298C198.295 56.3162 212.433 0.810364 262.941 0.810364C315.189 0.810364 327.587 56.3162 327.587 87.6298Z" fill="#2F2E41"/>
<path d="M296.545 98.2418C313.533 81.247 313.533 53.6931 296.545 36.6983C279.557 19.7035 252.014 19.7035 235.026 36.6983C218.039 53.6931 218.038 81.2471 235.026 98.2419C252.014 115.237 279.557 115.237 296.545 98.2418Z" fill="#FFB7B7"/>
<path d="M212.464 66.3679H229.669L237.26 45.106L238.778 66.3679H247.001L251.429 53.9651L252.314 66.3679H313.418C313.418 54.1501 308.566 42.4326 299.93 33.7933C291.294 25.154 279.582 20.3005 267.369 20.3005H258.513C246.3 20.3005 234.587 25.154 225.952 33.7933C217.316 42.4326 212.464 54.1501 212.464 66.3679V66.3679Z" fill="#2F2E41"/>
<path d="M306.587 131.594H219.587V236.636H306.587V131.594Z" fill="#1D3354"/>
<path d="M224.381 429.814L232.563 451.116L318.587 429.684L306.512 398.244L224.381 429.814Z" fill="#FFB7B7"/>
<path d="M229.247 421.708L245.358 463.659L245.359 463.661C248.082 470.751 247.877 478.633 244.791 485.573C241.705 492.512 235.989 497.942 228.902 500.666L228.034 501L201.654 432.314L229.247 421.708Z" fill="#2F2E41"/>
<path d="M396.335 322.401C403.245 320.667 410.409 320.178 417.492 320.955C423.148 321.578 428.975 323.153 433.105 327.069C438.131 331.836 439.746 339.208 439.881 346.136C440.102 359.933 435.527 373.38 426.939 384.178C424.842 386.909 422.348 389.311 419.54 391.304C416.511 393.199 413.282 394.756 409.913 395.945L335.185 425.431C315.526 433.189 295.797 440.968 275.292 446.082C274.177 446.621 272.894 446.694 271.725 446.286C270.556 445.878 269.597 445.022 269.059 443.907C269.042 443.873 269.026 443.839 269.011 443.804C262.463 434.448 256.971 424.396 252.632 413.832C252.427 413.581 252.285 413.284 252.219 412.967C252.152 412.649 252.163 412.32 252.251 412.008C252.338 411.695 252.5 411.409 252.722 411.172C252.943 410.935 253.219 410.755 253.525 410.648L306.38 380.266C310.166 378.09 313.995 375.883 317.138 372.851C319.423 370.636 321.293 368.031 322.662 365.158C323.757 362.869 323.859 357.467 325.259 355.774C326.629 354.118 331.316 353.985 333.481 353.334C336.534 352.398 339.524 351.268 342.432 349.949C354.255 344.657 364.784 336.969 376.118 330.773C382.475 327.137 389.269 324.324 396.335 322.401V322.401Z" fill="#2F2E41"/>
<path opacity="0.1" d="M366.37 345.09C357.289 351.913 345.531 358.185 336.531 365.188C333.46 367.578 282.255 396.377 281.531 400.202C289.928 401.617 343.414 364.184 351.067 360.449C358.72 356.714 365.503 351.446 372.225 346.218C373.939 344.885 381.199 340.88 376.281 339.391C373.511 338.552 368.415 343.726 366.37 345.09Z" fill="black"/>
<path opacity="0.17" d="M189.587 198.621L190.788 189.347C190.788 189.347 235.587 192.619 228.587 203.623C221.587 214.627 204.587 215.628 204.587 215.628L189.587 198.621Z" fill="#2F2E41"/>
<path d="M223.403 158.297C225.969 158.58 228.441 159.427 230.641 160.779C232.841 162.13 234.714 163.952 236.127 166.114V166.114C237.415 168.086 238.29 170.299 238.702 172.618C239.113 174.938 239.051 177.317 238.52 179.612C237.99 181.907 237.001 184.071 235.613 185.974C234.225 187.877 232.467 189.48 230.444 190.687C229.703 191.125 228.929 191.505 228.129 191.825L200.593 276.087C199.795 277.749 198.676 279.238 197.301 280.466C195.927 281.695 194.323 282.64 192.582 283.246C190.841 283.853 188.997 284.109 187.156 284C185.316 283.892 183.515 283.42 181.858 282.613C180.2 281.806 178.718 280.679 177.498 279.296C176.277 277.914 175.342 276.305 174.745 274.559C174.148 272.814 173.902 270.969 174.021 269.128C174.14 267.288 174.621 265.489 175.437 263.835L204.721 180.509C203.923 177.752 203.817 174.841 204.412 172.033C205.007 169.225 206.284 166.608 208.132 164.412C209.979 162.215 212.338 160.509 215.002 159.442C217.666 158.376 220.551 157.983 223.403 158.297Z" fill="#FFB7B7"/>
<path d="M189.998 190.137C189.998 190.137 205.776 217.106 228.587 203.623L206.48 288.255H187.854L168.587 284.656L173.981 249.689L189.998 190.137Z" fill="#467599"/>
<path d="M302.657 208.57L289.587 190.618C289.587 190.618 295.869 171.997 320.228 178.807C320.228 178.807 335.728 213.517 302.657 208.57Z" fill="#E5E5E5"/>
<path opacity="0.17" d="M302.657 208.57L289.587 190.618C289.587 190.618 295.869 171.997 320.228 178.807C320.228 178.807 335.728 213.517 302.657 208.57Z" fill="#2F2E41"/>
<path d="M306.118 145.849C309.889 147.602 312.905 150.652 314.618 154.442C316.331 158.233 316.627 162.513 315.452 166.504L344.736 249.83C345.553 251.483 346.034 253.282 346.153 255.123C346.272 256.963 346.026 258.809 345.429 260.554C344.832 262.3 343.897 263.909 342.676 265.292C341.455 266.674 339.973 267.801 338.316 268.608C336.658 269.416 334.857 269.887 333.017 269.996C331.176 270.105 329.333 269.848 327.592 269.242C325.851 268.635 324.246 267.69 322.872 266.461C321.497 265.232 320.378 263.744 319.581 262.081L292.044 177.82C291.245 177.5 290.47 177.119 289.729 176.681C287.706 175.475 285.948 173.872 284.56 171.969C283.173 170.065 282.183 167.901 281.653 165.606C281.122 163.311 281.06 160.932 281.472 158.613C281.883 156.293 282.758 154.081 284.046 152.108V152.108C285.459 149.947 287.333 148.125 289.533 146.773C291.733 145.422 294.204 144.574 296.771 144.292C299.971 143.929 303.208 144.468 306.118 145.849Z" fill="#FFB7B7"/>
<path d="M289.587 190.618C289.587 190.618 311.152 203.709 320.228 178.807L350.616 258.853L341.587 274.652L340.281 274.76C334.894 275.21 329.478 274.344 324.5 272.238C319.521 270.132 315.127 266.848 311.697 262.669V262.669C304.7 254.145 299.936 244.011 297.837 233.183L289.587 190.618Z" fill="#467599"/>
<path d="M86.2847 544.919V558H81.8784V524.586H94.2021C97.8587 524.586 100.72 525.519 102.785 527.386C104.866 529.252 105.906 531.723 105.906 534.798C105.906 538.042 104.889 540.543 102.854 542.303C100.834 544.047 97.9352 544.919 94.1562 544.919H86.2847ZM86.2847 541.316H94.2021C96.5583 541.316 98.3636 540.765 99.6182 539.664C100.873 538.547 101.5 536.94 101.5 534.844C101.5 532.855 100.873 531.264 99.6182 530.071C98.3636 528.877 96.6424 528.258 94.4546 528.212H86.2847V541.316ZM122.866 536.979C122.223 536.871 121.527 536.818 120.777 536.818C117.993 536.818 116.103 538.004 115.109 540.375V558H110.863V533.169H114.994L115.063 536.038C116.455 533.819 118.429 532.71 120.984 532.71C121.81 532.71 122.437 532.817 122.866 533.031V536.979ZM125.207 545.355C125.207 542.922 125.681 540.735 126.629 538.792C127.593 536.848 128.924 535.349 130.623 534.293C132.336 533.238 134.287 532.71 136.475 532.71C139.856 532.71 142.587 533.88 144.667 536.221C146.764 538.562 147.812 541.675 147.812 545.562V545.86C147.812 548.277 147.345 550.45 146.412 552.377C145.494 554.29 144.17 555.782 142.441 556.853C140.728 557.924 138.754 558.459 136.521 558.459C133.155 558.459 130.424 557.289 128.328 554.948C126.247 552.607 125.207 549.509 125.207 545.653V545.355ZM129.475 545.86C129.475 548.614 130.11 550.825 131.38 552.492C132.665 554.16 134.379 554.994 136.521 554.994C138.678 554.994 140.391 554.152 141.661 552.469C142.931 550.771 143.566 548.4 143.566 545.355C143.566 542.632 142.916 540.429 141.615 538.746C140.33 537.047 138.617 536.198 136.475 536.198C134.379 536.198 132.688 537.032 131.403 538.7C130.118 540.367 129.475 542.754 129.475 545.86ZM154.559 558V536.451H150.634V533.169H154.559V531.058C154.559 528.288 155.347 526.131 156.922 524.586C158.514 523.041 160.755 522.268 163.646 522.268C165.36 522.268 167.525 522.735 170.141 523.668L169.43 527.248C167.517 526.483 165.697 526.101 163.968 526.101C162.147 526.101 160.831 526.514 160.021 527.34C159.225 528.151 158.827 529.375 158.827 531.012V533.169H163.899V536.451H158.827V558H154.559ZM172.252 558H167.984V533.169H172.252V558ZM183.773 558H179.527V522.75H183.773V558ZM200.893 558.459C197.527 558.459 194.789 557.357 192.677 555.154C190.566 552.936 189.51 549.975 189.51 546.273V545.493C189.51 543.029 189.977 540.834 190.91 538.906C191.859 536.963 193.174 535.449 194.857 534.362C196.556 533.261 198.392 532.71 200.365 532.71C203.593 532.71 206.103 533.773 207.893 535.9C209.683 538.027 210.578 541.071 210.578 545.034V546.801H193.756C193.817 549.249 194.528 551.23 195.89 552.745C197.267 554.244 199.011 554.994 201.123 554.994C202.622 554.994 203.892 554.688 204.932 554.076C205.972 553.464 206.883 552.653 207.663 551.643L210.256 553.663C208.176 556.86 205.055 558.459 200.893 558.459ZM200.365 536.198C198.652 536.198 197.214 536.826 196.051 538.08C194.888 539.319 194.169 541.063 193.894 543.312H206.332V542.991C206.21 540.834 205.628 539.166 204.588 537.988C203.548 536.795 202.14 536.198 200.365 536.198ZM231.186 533.169L231.324 536.29C233.221 533.903 235.699 532.71 238.759 532.71C244.007 532.71 246.654 535.67 246.7 541.591V558H242.454V541.568C242.439 539.778 242.026 538.455 241.215 537.598C240.419 536.741 239.172 536.313 237.474 536.313C236.097 536.313 234.889 536.68 233.848 537.415C232.808 538.149 231.997 539.113 231.416 540.306V558H227.17V533.169H231.186ZM251.978 545.355C251.978 542.922 252.452 540.735 253.401 538.792C254.365 536.848 255.696 535.349 257.394 534.293C259.108 533.238 261.058 532.71 263.246 532.71C266.627 532.71 269.358 533.88 271.439 536.221C273.535 538.562 274.583 541.675 274.583 545.562V545.86C274.583 548.277 274.116 550.45 273.183 552.377C272.265 554.29 270.942 555.782 269.213 556.853C267.499 557.924 265.526 558.459 263.292 558.459C259.926 558.459 257.195 557.289 255.099 554.948C253.018 552.607 251.978 549.509 251.978 545.653V545.355ZM256.247 545.86C256.247 548.614 256.882 550.825 258.151 552.492C259.437 554.16 261.15 554.994 263.292 554.994C265.449 554.994 267.163 554.152 268.433 552.469C269.702 550.771 270.337 548.4 270.337 545.355C270.337 542.632 269.687 540.429 268.387 538.746C267.102 537.047 265.388 536.198 263.246 536.198C261.15 536.198 259.459 537.032 258.174 538.7C256.889 540.367 256.247 542.754 256.247 545.86ZM285.667 527.156V533.169H290.303V536.451H285.667V551.85C285.667 552.844 285.874 553.594 286.287 554.099C286.7 554.588 287.404 554.833 288.398 554.833C288.888 554.833 289.561 554.741 290.418 554.558V558C289.301 558.306 288.215 558.459 287.159 558.459C285.262 558.459 283.832 557.885 282.868 556.738C281.904 555.59 281.422 553.961 281.422 551.85V536.451H276.901V533.169H281.422V527.156H285.667ZM309.03 558V536.451H305.105V533.169H309.03V530.622C309.03 527.959 309.741 525.902 311.164 524.448C312.587 522.995 314.599 522.268 317.2 522.268C318.179 522.268 319.15 522.398 320.114 522.658L319.885 526.101C319.166 525.963 318.401 525.894 317.59 525.894C316.213 525.894 315.15 526.299 314.4 527.11C313.65 527.906 313.275 529.053 313.275 530.553V533.169H318.577V536.451H313.275V558H309.03ZM322.157 545.355C322.157 542.922 322.631 540.735 323.58 538.792C324.543 536.848 325.875 535.349 327.573 534.293C329.286 533.238 331.237 532.71 333.425 532.71C336.806 532.71 339.537 533.88 341.618 536.221C343.714 538.562 344.762 541.675 344.762 545.562V545.86C344.762 548.277 344.295 550.45 343.362 552.377C342.444 554.29 341.12 555.782 339.392 556.853C337.678 557.924 335.704 558.459 333.471 558.459C330.105 558.459 327.374 557.289 325.278 554.948C323.197 552.607 322.157 549.509 322.157 545.653V545.355ZM326.425 545.86C326.425 548.614 327.06 550.825 328.33 552.492C329.615 554.16 331.329 554.994 333.471 554.994C335.628 554.994 337.341 554.152 338.611 552.469C339.881 550.771 340.516 548.4 340.516 545.355C340.516 542.632 339.866 540.429 338.565 538.746C337.28 537.047 335.567 536.198 333.425 536.198C331.329 536.198 329.638 537.032 328.353 538.7C327.068 540.367 326.425 542.754 326.425 545.86ZM365.416 555.544C363.764 557.487 361.339 558.459 358.141 558.459C355.494 558.459 353.475 557.694 352.083 556.164C350.706 554.619 350.009 552.339 349.994 549.325V533.169H354.24V549.21C354.24 552.974 355.77 554.856 358.83 554.856C362.073 554.856 364.23 553.647 365.301 551.23V533.169H369.547V558H365.508L365.416 555.544ZM380.035 533.169L380.172 536.29C382.069 533.903 384.548 532.71 387.608 532.71C392.856 532.71 395.502 535.67 395.548 541.591V558H391.303V541.568C391.287 539.778 390.874 538.455 390.063 537.598C389.268 536.741 388.021 536.313 386.323 536.313C384.946 536.313 383.737 536.68 382.697 537.415C381.656 538.149 380.846 539.113 380.264 540.306V558H376.019V533.169H380.035ZM400.918 545.378C400.918 541.568 401.821 538.508 403.626 536.198C405.432 533.873 407.796 532.71 410.718 532.71C413.625 532.71 415.927 533.704 417.625 535.693V522.75H421.871V558H417.97L417.763 555.338C416.065 557.419 413.701 558.459 410.672 558.459C407.796 558.459 405.447 557.281 403.626 554.925C401.821 552.569 400.918 549.493 400.918 545.699V545.378ZM405.164 545.86C405.164 548.675 405.745 550.878 406.908 552.469C408.071 554.06 409.677 554.856 411.728 554.856C414.42 554.856 416.386 553.647 417.625 551.23V539.824C416.356 537.483 414.405 536.313 411.773 536.313C409.693 536.313 408.071 537.116 406.908 538.723C405.745 540.329 405.164 542.708 405.164 545.86Z" fill="#E9FFF9"/>
</svg>
