<svg width="348" height="580" viewBox="0 0 348 580" fill="none" xmlns="http://www.w3.org/2000/svg">
<path d="M104.427 266.598C118.871 258.702 123.972 240.211 115.82 225.297C107.667 210.383 89.3483 204.694 74.9035 212.591C60.4587 220.487 55.3579 238.978 63.5104 253.892C71.663 268.805 89.9817 274.494 104.427 266.598Z" fill="#2F2E41"/>
<path d="M89.665 272.062C103.23 272.062 114.226 261.066 114.226 247.501C114.226 233.936 103.23 222.94 89.665 222.94C76.1003 222.94 65.104 233.936 65.104 247.501C65.104 261.066 76.1003 272.062 89.665 272.062Z" fill="#FFB8B8"/>
<path d="M76.4957 285.07L73.3373 294.004L77.983 320.893L97.1292 336.801L112.333 313.291L105.013 291.047L99.5225 284.853C99.5764 284.296 99.5146 283.734 99.341 283.203C99.1675 282.671 98.8858 282.181 98.5139 281.763C98.1419 281.345 97.6876 281.009 97.1795 280.775C96.6713 280.541 96.1203 280.414 95.5611 280.404L83.5703 280.17C82.0258 280.14 80.5112 280.597 79.2412 281.477C77.9713 282.356 77.0107 283.613 76.4957 285.07Z" fill="#CCCCCC"/>
<path d="M127.376 568.297L139.636 568.295L141.329 521.007L127.372 521.009L127.376 568.297Z" fill="#FFB8B8"/>
<path d="M163.281 579.677L124.75 579.681L124.749 564.794L148.393 564.792C152.341 564.792 156.128 566.36 158.92 569.151C161.712 571.943 163.28 575.729 163.281 579.677Z" fill="#2F2E41"/>
<path d="M41.493 568.297L53.753 568.295L59.583 521.007L41.489 521.009L41.493 568.297Z" fill="#FFB8B8"/>
<path d="M77.3978 579.677L38.8671 579.681L38.8657 564.794L62.5096 564.792C66.4578 564.792 70.2445 566.36 73.0366 569.151C75.8287 571.943 77.3975 575.729 77.3978 579.677Z" fill="#2F2E41"/>
<path d="M149.289 236.207C150.547 236.968 151.622 237.995 152.44 239.217C153.258 240.438 153.798 241.824 154.022 243.277C154.247 244.73 154.15 246.214 153.738 247.626C153.327 249.037 152.611 250.341 151.641 251.446L161.781 272.067L150.752 281.285L136.842 251.963C135.094 250.211 134.05 247.878 133.907 245.407C133.764 242.936 134.533 240.499 136.067 238.556C137.601 236.614 139.795 235.302 142.231 234.869C144.668 234.436 147.179 234.912 149.289 236.207Z" fill="#FFB8B8"/>
<path d="M76.1927 397.68C70.216 397.602 64.2496 397.162 58.3262 396.362C57.3126 396.234 56.3382 395.89 55.4687 395.354C54.5993 394.818 53.8549 394.101 53.286 393.253C52.7171 392.404 52.3367 391.444 52.1706 390.436C52.0046 389.428 52.0567 388.396 52.3234 387.41L65.5947 338.269L54.907 308.285C53.7554 305.046 53.8845 301.491 55.2677 298.344C56.6509 295.198 59.1838 292.699 62.3484 291.359L77.029 285.152L81.4412 312.465L91.9533 325.72C92.3023 326.16 92.7545 326.507 93.2697 326.731C93.785 326.954 94.3474 327.048 94.9072 327.002C95.4671 326.957 96.0072 326.774 96.4796 326.471C96.9521 326.167 97.3425 325.751 97.6161 325.261L105.599 310.952L99.0783 284.66L108.8 285.81C111.938 286.192 114.906 287.447 117.366 289.434C119.826 291.42 121.678 294.057 122.712 297.045C125.699 305.733 125.96 315.127 123.458 323.968L119.43 338.28L126.504 384.001C126.697 385.247 126.636 386.519 126.323 387.741C126.01 388.962 125.453 390.107 124.684 391.107C123.916 392.106 122.953 392.94 121.853 393.556C120.753 394.172 119.54 394.559 118.286 394.692C113.766 395.213 109.214 395.403 104.666 395.262C100.54 395.086 97.6413 392.57 96.2844 387.985C96.2107 387.716 96.0512 387.479 95.8303 387.31C95.6094 387.141 95.3392 387.049 95.0609 387.047C94.7826 387.046 94.5115 387.135 94.2888 387.302C94.0662 387.469 93.9043 387.704 93.8278 387.972C93.4522 389.304 93.039 390.786 92.5883 392.42C91.4953 396.387 84.651 397.68 76.1927 397.68Z" fill="#2F2E41"/>
<path d="M118.849 308.979C117.63 308.983 116.423 308.744 115.297 308.278C113.974 307.73 112.807 306.865 111.897 305.76C110.987 304.655 110.362 303.343 110.078 301.94C109.65 299.714 109.948 297.41 110.929 295.367C111.91 293.324 113.522 291.65 115.526 290.593L144.173 275.039L142.606 268.844C142.389 267.894 142.456 266.901 142.799 265.988C143.141 265.076 143.743 264.284 144.531 263.71L151.918 258.223C152.479 257.793 153.13 257.493 153.822 257.347C154.514 257.201 155.23 257.212 155.918 257.378C156.523 257.531 157.088 257.817 157.569 258.215C158.05 258.614 158.435 259.115 158.697 259.683L162.535 267.968C165.571 274.523 162.975 282.597 156.496 286.747L124.367 307.33C122.723 308.395 120.808 308.968 118.849 308.979Z" fill="#2F2E41"/>
<path d="M58.4955 546.314C58.3958 546.314 58.2955 546.311 58.1947 546.305L42.5858 545.678C41.9804 545.64 41.3889 545.48 40.8468 545.208C40.3048 544.936 39.8233 544.557 39.4314 544.094C39.0395 543.631 38.7453 543.093 38.5663 542.514C38.3874 541.934 38.3275 541.324 38.3902 540.721L54.2323 388.31L95.8082 373.191L120.292 387.046L147.077 534.726C147.288 535.856 147.058 537.024 146.434 537.99C145.811 538.956 144.842 539.647 143.725 539.921L143.661 539.937L127.682 539.544C126.581 539.793 125.426 539.621 124.446 539.06C123.466 538.5 122.731 537.592 122.387 536.517L88.3583 417.103C88.2562 416.792 88.0546 416.522 87.7846 416.336C87.5146 416.149 87.1911 416.057 86.8634 416.072C86.5357 416.087 86.222 416.209 85.9704 416.42C85.7187 416.63 85.543 416.917 85.4701 417.237L62.8799 542.79C62.6605 543.79 62.1061 544.684 61.3087 545.325C60.5112 545.966 59.5186 546.315 58.4955 546.314Z" fill="#2F2E41"/>
<path d="M68.2134 231.996C64.3063 237.111 67.2798 245.817 73.4996 247.474C79.7195 249.131 86.6298 243.056 85.7845 236.675C84.4422 243.37 90.1719 250.376 96.9739 250.971C103.776 251.567 110.39 246.237 111.878 239.573C113.366 232.91 110.045 225.629 104.391 221.801C98.7368 217.972 91.1656 217.475 84.7683 219.862C78.2378 222.304 72.5088 226.503 68.2134 231.996Z" fill="#2F2E41"/>
<path d="M97.821 210.162C94.1829 202.527 90.4449 194.746 84.5647 188.667C78.6845 182.588 70.1782 178.401 61.843 179.834C53.5079 181.268 46.3301 189.68 48.1762 197.934C49.114 202.126 45.5242 206.28 41.3863 207.435C37.2485 208.59 32.8386 207.51 28.748 206.198C24.6574 204.885 20.5134 203.318 16.2213 203.503C7.61518 203.873 0.419858 212.02 0.117518 220.628C-0.184822 229.237 5.67131 237.432 13.5282 240.963C21.3851 244.495 30.7832 243.704 38.533 239.943C46.2827 236.182 52.4793 229.698 57.0105 222.372C63.7061 211.546 80.5318 208.876 90.2498 217.097C91.2905 217.914 92.6008 218.309 93.9197 218.203C95.2385 218.098 96.4691 217.499 97.3663 216.526C99.085 214.521 98.8359 211.138 97.821 210.162Z" fill="#2F2E41"/>
<path d="M77.3709 354.124C76.9032 352.73 76.1355 351.456 75.1221 350.391C74.1086 349.326 72.874 348.496 71.5052 347.96C70.1364 347.424 68.6667 347.195 67.1995 347.288C65.7324 347.381 64.3036 347.795 63.0137 348.5L45.0396 334.998L40.7008 347.35L59.2763 362.829C60.6046 364.917 62.653 366.446 65.033 367.125C67.4131 367.804 69.9596 367.586 72.19 366.513C74.4204 365.44 76.1797 363.587 77.1346 361.303C78.0895 359.02 78.1735 356.465 77.3709 354.124Z" fill="#FFB8B8"/>
<path d="M51.5991 358.383C50.8074 358.383 50.0319 358.158 49.3631 357.734L41.6442 352.855C35.5368 348.996 33.3375 340.806 36.5284 333.804L52.3518 299.082C52.9868 297.627 53.9646 296.347 55.2017 295.351C56.4388 294.356 57.8985 293.675 59.456 293.366C60.8643 293.108 62.3143 293.201 63.6784 293.635C65.0425 294.07 66.2788 294.833 67.2784 295.858C68.8458 297.495 69.8455 299.593 70.1299 301.841C70.4143 304.09 69.9684 306.37 68.858 308.346L53.232 336.954L57.9096 341.307C58.6072 341.988 59.0896 342.858 59.2973 343.81C59.5049 344.763 59.4285 345.755 59.0776 346.664L55.8496 355.281C55.6113 355.947 55.2271 356.551 54.725 357.05C54.2229 357.548 53.6158 357.928 52.948 358.161C52.5133 358.308 52.0578 358.382 51.5991 358.383Z" fill="#2F2E41"/>
<path d="M99 32.2857V145.286C99 163.043 113.006 177.571 130.125 177.571H192.375V226L254.625 177.571H316.875C334.009 177.571 348 163.043 348 145.286V32.2857C348 14.5286 334.009 0 316.875 0H130.125C113.006 0 99 14.5286 99 32.2857Z" fill="#9ED8DB"/>
<path d="M135.49 77.6719V92.1738C135.48 94.1855 134.846 95.8311 133.586 97.1104C132.336 98.3896 130.637 99.1074 128.488 99.2637L127.741 99.293C125.407 99.293 123.547 98.6631 122.16 97.4033C120.773 96.1436 120.07 94.4102 120.051 92.2031V77.6719H122.834V92.1152C122.834 93.6582 123.259 94.8594 124.108 95.7188C124.958 96.5684 126.169 96.9932 127.741 96.9932C129.333 96.9932 130.549 96.5684 131.389 95.7188C132.238 94.8691 132.663 93.6729 132.663 92.1299V77.6719H135.49ZM148.732 94.7959C148.732 94.0635 148.454 93.4971 147.897 93.0967C147.351 92.6865 146.389 92.335 145.012 92.042C143.645 91.749 142.556 91.3975 141.745 90.9873C140.944 90.5771 140.349 90.0889 139.958 89.5225C139.577 88.9561 139.387 88.2822 139.387 87.501C139.387 86.2021 139.934 85.1035 141.027 84.2051C142.131 83.3066 143.537 82.8574 145.246 82.8574C147.043 82.8574 148.498 83.3213 149.611 84.249C150.734 85.1768 151.296 86.3633 151.296 87.8086H148.571C148.571 87.0664 148.254 86.4268 147.619 85.8896C146.994 85.3525 146.203 85.084 145.246 85.084C144.26 85.084 143.488 85.2988 142.932 85.7285C142.375 86.1582 142.097 86.7197 142.097 87.4131C142.097 88.0674 142.355 88.5605 142.873 88.8926C143.391 89.2246 144.323 89.542 145.671 89.8447C147.028 90.1475 148.127 90.5088 148.967 90.9287C149.807 91.3486 150.427 91.8564 150.827 92.4521C151.237 93.0381 151.442 93.7559 151.442 94.6055C151.442 96.0215 150.876 97.1592 149.743 98.0186C148.61 98.8682 147.141 99.293 145.334 99.293C144.064 99.293 142.941 99.0684 141.965 98.6191C140.988 98.1699 140.222 97.5449 139.665 96.7441C139.118 95.9336 138.845 95.0596 138.845 94.1221H141.555C141.604 95.0303 141.965 95.7529 142.639 96.29C143.322 96.8174 144.221 97.0811 145.334 97.0811C146.359 97.0811 147.18 96.876 147.795 96.4658C148.42 96.0459 148.732 95.4893 148.732 94.7959ZM161.55 99.293C159.401 99.293 157.653 98.5898 156.306 97.1836C154.958 95.7676 154.284 93.8779 154.284 91.5146V91.0166C154.284 89.4443 154.582 88.043 155.178 86.8125C155.783 85.5723 156.623 84.6055 157.697 83.9121C158.781 83.209 159.953 82.8574 161.213 82.8574C163.273 82.8574 164.875 83.5361 166.018 84.8936C167.16 86.251 167.731 88.1943 167.731 90.7236V91.8516H156.994C157.033 93.4141 157.487 94.6787 158.356 95.6455C159.235 96.6025 160.349 97.0811 161.696 97.0811C162.653 97.0811 163.464 96.8857 164.128 96.4951C164.792 96.1045 165.373 95.5869 165.871 94.9424L167.526 96.2314C166.198 98.2725 164.206 99.293 161.55 99.293ZM161.213 85.084C160.119 85.084 159.201 85.4844 158.459 86.2852C157.717 87.0762 157.258 88.1895 157.082 89.625H165.021V89.4199C164.943 88.043 164.572 86.9785 163.908 86.2266C163.244 85.4648 162.346 85.084 161.213 85.084ZM178.542 85.582C178.132 85.5137 177.688 85.4795 177.209 85.4795C175.432 85.4795 174.226 86.2363 173.591 87.75V99H170.881V83.1504H173.518L173.562 84.9814C174.45 83.5654 175.71 82.8574 177.341 82.8574C177.868 82.8574 178.269 82.9258 178.542 83.0625V85.582ZM190.275 94.7959C190.275 94.0635 189.997 93.4971 189.44 93.0967C188.894 92.6865 187.932 92.335 186.555 92.042C185.188 91.749 184.099 91.3975 183.288 90.9873C182.487 90.5771 181.892 90.0889 181.501 89.5225C181.12 88.9561 180.93 88.2822 180.93 87.501C180.93 86.2021 181.477 85.1035 182.57 84.2051C183.674 83.3066 185.08 82.8574 186.789 82.8574C188.586 82.8574 190.041 83.3213 191.154 84.249C192.277 85.1768 192.839 86.3633 192.839 87.8086H190.114C190.114 87.0664 189.797 86.4268 189.162 85.8896C188.537 85.3525 187.746 85.084 186.789 85.084C185.803 85.084 185.031 85.2988 184.475 85.7285C183.918 86.1582 183.64 86.7197 183.64 87.4131C183.64 88.0674 183.898 88.5605 184.416 88.8926C184.934 89.2246 185.866 89.542 187.214 89.8447C188.571 90.1475 189.67 90.5088 190.51 90.9287C191.35 91.3486 191.97 91.8564 192.37 92.4521C192.78 93.0381 192.985 93.7559 192.985 94.6055C192.985 96.0215 192.419 97.1592 191.286 98.0186C190.153 98.8682 188.684 99.293 186.877 99.293C185.607 99.293 184.484 99.0684 183.508 98.6191C182.531 98.1699 181.765 97.5449 181.208 96.7441C180.661 95.9336 180.388 95.0596 180.388 94.1221H183.098C183.146 95.0303 183.508 95.7529 184.182 96.29C184.865 96.8174 185.764 97.0811 186.877 97.0811C187.902 97.0811 188.723 96.876 189.338 96.4658C189.963 96.0459 190.275 95.4893 190.275 94.7959ZM206.521 83.1504L206.608 85.1426C207.819 83.6191 209.401 82.8574 211.354 82.8574C214.704 82.8574 216.394 84.7471 216.423 88.5264V99H213.713V88.5117C213.703 87.3691 213.439 86.5244 212.922 85.9775C212.414 85.4307 211.618 85.1572 210.534 85.1572C209.655 85.1572 208.884 85.3916 208.22 85.8604C207.556 86.3291 207.038 86.9443 206.667 87.7061V99H203.957V83.1504H206.521ZM219.792 90.9287C219.792 89.376 220.095 87.9795 220.7 86.7393C221.315 85.499 222.165 84.542 223.249 83.8682C224.343 83.1943 225.588 82.8574 226.984 82.8574C229.143 82.8574 230.886 83.6045 232.214 85.0986C233.552 86.5928 234.221 88.5801 234.221 91.0605V91.251C234.221 92.7939 233.923 94.1807 233.327 95.4111C232.741 96.6318 231.896 97.584 230.793 98.2676C229.699 98.9512 228.439 99.293 227.014 99.293C224.865 99.293 223.122 98.5459 221.784 97.0518C220.456 95.5576 219.792 93.5801 219.792 91.1191V90.9287ZM222.517 91.251C222.517 93.0088 222.922 94.4199 223.732 95.4844C224.553 96.5488 225.646 97.0811 227.014 97.0811C228.391 97.0811 229.484 96.5439 230.295 95.4697C231.105 94.3857 231.511 92.8721 231.511 90.9287C231.511 89.1904 231.096 87.7842 230.266 86.71C229.445 85.626 228.352 85.084 226.984 85.084C225.646 85.084 224.567 85.6162 223.747 86.6807C222.927 87.7451 222.517 89.2686 222.517 91.251ZM241.296 79.3125V83.1504H244.255V85.2451H241.296V95.0742C241.296 95.709 241.428 96.1875 241.691 96.5098C241.955 96.8223 242.404 96.9785 243.039 96.9785C243.352 96.9785 243.781 96.9199 244.328 96.8027V99C243.615 99.1953 242.922 99.293 242.248 99.293C241.037 99.293 240.124 98.9268 239.509 98.1943C238.894 97.4619 238.586 96.4219 238.586 95.0742V85.2451H235.7V83.1504H238.586V79.3125H241.296ZM256.208 99V85.2451H253.703V83.1504H256.208V81.5244C256.208 79.8252 256.662 78.5117 257.57 77.584C258.479 76.6562 259.763 76.1924 261.423 76.1924C262.048 76.1924 262.668 76.2754 263.283 76.4414L263.137 78.6387C262.678 78.5508 262.189 78.5068 261.672 78.5068C260.793 78.5068 260.114 78.7656 259.636 79.2832C259.157 79.791 258.918 80.5234 258.918 81.4805V83.1504H262.302V85.2451H258.918V99H256.208ZM264.587 90.9287C264.587 89.376 264.89 87.9795 265.495 86.7393C266.11 85.499 266.96 84.542 268.044 83.8682C269.138 83.1943 270.383 82.8574 271.779 82.8574C273.938 82.8574 275.681 83.6045 277.009 85.0986C278.347 86.5928 279.016 88.5801 279.016 91.0605V91.251C279.016 92.7939 278.718 94.1807 278.122 95.4111C277.536 96.6318 276.691 97.584 275.588 98.2676C274.494 98.9512 273.234 99.293 271.809 99.293C269.66 99.293 267.917 98.5459 266.579 97.0518C265.251 95.5576 264.587 93.5801 264.587 91.1191V90.9287ZM267.312 91.251C267.312 93.0088 267.717 94.4199 268.527 95.4844C269.348 96.5488 270.441 97.0811 271.809 97.0811C273.186 97.0811 274.279 96.5439 275.09 95.4697C275.9 94.3857 276.306 92.8721 276.306 90.9287C276.306 89.1904 275.891 87.7842 275.061 86.71C274.24 85.626 273.146 85.084 271.779 85.084C270.441 85.084 269.362 85.6162 268.542 86.6807C267.722 87.7451 267.312 89.2686 267.312 91.251ZM292.199 97.4326C291.145 98.6729 289.597 99.293 287.556 99.293C285.866 99.293 284.577 98.8047 283.688 97.8281C282.81 96.8418 282.365 95.3867 282.355 93.4629V83.1504H285.065V93.3896C285.065 95.792 286.042 96.9932 287.995 96.9932C290.065 96.9932 291.442 96.2217 292.126 94.6787V83.1504H294.836V99H292.258L292.199 97.4326ZM301.53 83.1504L301.618 85.1426C302.829 83.6191 304.411 82.8574 306.364 82.8574C309.714 82.8574 311.403 84.7471 311.433 88.5264V99H308.723V88.5117C308.713 87.3691 308.449 86.5244 307.932 85.9775C307.424 85.4307 306.628 85.1572 305.544 85.1572C304.665 85.1572 303.894 85.3916 303.229 85.8604C302.565 86.3291 302.048 86.9443 301.677 87.7061V99H298.967V83.1504H301.53ZM314.86 90.9434C314.86 88.5117 315.437 86.5586 316.589 85.084C317.741 83.5996 319.25 82.8574 321.115 82.8574C322.971 82.8574 324.44 83.4922 325.524 84.7617V76.5H328.234V99H325.744L325.612 97.3008C324.528 98.6289 323.02 99.293 321.086 99.293C319.25 99.293 317.751 98.541 316.589 97.0371C315.437 95.5332 314.86 93.5703 314.86 91.1484V90.9434ZM317.57 91.251C317.57 93.0479 317.941 94.4541 318.684 95.4697C319.426 96.4854 320.451 96.9932 321.76 96.9932C323.479 96.9932 324.733 96.2217 325.524 94.6787V87.3984C324.714 85.9043 323.469 85.1572 321.789 85.1572C320.461 85.1572 319.426 85.6699 318.684 86.6953C317.941 87.7207 317.57 89.2393 317.57 91.251Z" fill="#1D3354"/>
</svg>
