<svg width="246" height="411" viewBox="0 0 246 411" fill="none" xmlns="http://www.w3.org/2000/svg">
<path d="M163.48 400.263H153.396L148.598 361.367H163.481L163.48 400.263Z" fill="#9F616A"/>
<path d="M166.051 410.038L133.536 410.037V409.626C133.536 406.269 134.87 403.05 137.243 400.677C139.616 398.304 142.835 396.97 146.192 396.97H146.193L166.052 396.971L166.051 410.038Z" fill="#2F2E41"/>
<path d="M65.195 399.464L55.634 396.259L63.449 357.855L77.56 362.586L65.195 399.464Z" fill="#9F616A"/>
<path d="M64.5264 409.55L33.6976 399.214L33.8283 398.824C34.8954 395.641 37.1829 393.013 40.1876 391.517C43.1923 390.022 46.6681 389.78 49.8506 390.847H49.8514L68.6805 397.161L64.5264 409.55Z" fill="#2F2E41"/>
<path d="M77.6261 199.245L55.7888 383.974L77.2068 385.78C77.2068 385.78 110.897 204.157 121.284 225.672C131.67 247.187 144.396 381.748 144.396 381.748H165.652C165.652 381.748 171.104 171.795 148.847 161.409L77.6261 199.245Z" fill="#2F2E41"/>
<path d="M134.228 47.0545C136.289 35.3525 128.474 24.195 116.772 22.1334C105.07 20.0719 93.9127 27.8869 91.8511 39.5889C89.7895 51.2909 97.6046 62.4484 109.307 64.51C121.009 66.5715 132.166 58.7564 134.228 47.0545Z" fill="#9F616A"/>
<path d="M100.253 72.7535L127.703 74.9791C127.703 74.9791 149.589 75.35 158.491 81.2851C167.394 87.2201 149.96 123.943 149.96 123.943C149.96 123.943 145.427 138.504 148.847 145.087C159.943 166.449 158.298 182.9 158.298 182.9C158.298 182.9 135.493 188.116 96.1732 198.503C96.1732 198.503 71.691 208.147 72.4329 202.954C73.1749 197.761 80.5936 138.41 80.5936 138.41V76.8338L100.253 72.7535Z" fill="#467599"/>
<path d="M148.273 40.9902C147.174 34.8634 144.714 26.1722 139.233 19.5826C139.406 19.5836 139.578 19.5912 139.751 19.5862C141.634 19.5312 143.778 18.9371 144.556 17.221C144.807 16.5336 144.869 15.7915 144.737 15.0717C144.605 14.3518 144.283 13.6804 143.804 13.127C142.833 12.0337 141.671 11.1259 140.375 10.4475C141.697 11.25 143.565 11.9954 144.62 10.8651C144.892 10.5243 145.06 10.1132 145.106 9.68012C145.152 9.24704 145.073 8.80986 144.879 8.41987C144.479 7.64613 143.916 6.96774 143.23 6.43082C141.008 4.46548 138.577 2.74996 135.98 1.31507C133.97 0.204422 131.326 -0.687445 129.521 0.733315C127.683 2.18069 127.978 4.99911 128.451 7.29066C127.421 6.68877 126.264 6.33948 125.073 6.27146C124.479 6.25447 123.896 6.44317 123.424 6.80573C122.952 7.16829 122.62 7.68254 122.483 8.2617C122.466 8.71872 122.567 9.17242 122.777 9.57887C122.986 9.98531 123.297 10.3308 123.68 10.5817C116.586 9.41517 107.522 10.7388 95.9344 16.1004C95.9344 16.1004 84.6988 19.8456 84.1281 34.6361C84.0702 37.0016 84.3327 39.3641 84.9081 41.6593C85.5411 44.3405 87.7931 57.4939 85.0921 62.8097L98.6229 67.6309L98.778 59.5259C88.2617 44.3456 93.4568 38.775 97.5514 29.645C97.5582 29.6283 97.5694 29.6139 97.5839 29.6033C97.5984 29.5928 97.6156 29.5865 97.6335 29.5851C97.6514 29.5838 97.6693 29.5874 97.6852 29.5957C97.7012 29.604 97.7145 29.6165 97.7237 29.632C98.4804 30.9304 101.38 35.3811 111.359 35.3811L107.503 31.5249C107.503 31.5249 124.47 38.466 130.64 38.466C130.64 38.466 135.267 41.5509 130.64 46.1782C126.012 50.8056 115.885 57.6165 121.284 66.0999C126.682 74.5834 126.217 77.5931 126.217 77.5931L138.557 70.6521C138.557 70.6521 146.094 55.7402 147.43 51.3489C148.529 48.0117 148.817 44.461 148.273 40.9902Z" fill="#2F2E41"/>
<path d="M0 208.182H245.479V344.244H214.298V381.661L180.707 344.244H0V208.182Z" fill="#467599"/>
<path d="M161.181 121L146.782 124.5L146.673 153.64L130.479 209.534C129.183 210.559 128.192 211.919 127.614 213.468C127.037 215.016 126.894 216.693 127.202 218.317C127.51 219.94 128.257 221.448 129.362 222.677C130.466 223.907 131.887 224.81 133.468 225.289C135.05 225.768 136.733 225.804 138.333 225.394C139.934 224.985 141.393 224.144 142.55 222.964C143.707 221.785 144.519 220.31 144.897 218.702C145.275 217.093 145.206 215.411 144.696 213.839L164.056 155.977L161.181 121Z" fill="#9F616A"/>
<path d="M65.3512 120.387L82.6245 125.323L82.7334 154.462L98.9278 210.356C100.224 211.381 101.215 212.742 101.792 214.29C102.37 215.839 102.513 217.515 102.205 219.139C101.897 220.763 101.15 222.271 100.045 223.5C98.9404 224.729 97.5201 225.632 95.9385 226.111C94.3569 226.59 92.6742 226.627 91.0733 226.217C89.4723 225.807 88.0142 224.967 86.8571 223.787C85.7 222.607 84.8883 221.133 84.5099 219.524C84.1315 217.915 84.2009 216.234 84.7107 214.662L65.3512 156.799V120.387Z" fill="#9F616A"/>
<path d="M139.573 78.3176L143.142 77.1541C145.145 76.5009 147.324 76.6521 149.218 77.5757C149.218 77.5757 159.604 78.3176 161.088 85.7365C162.572 93.1553 166.181 158 166.181 158L144.181 151L139.573 78.3176Z" fill="#467599"/>
<path d="M89.4962 78.3176L83.1805 78L81.1805 77C81.1805 77 69.4654 78.3176 67.9816 85.7365C66.4978 93.1553 62.1805 160 62.1805 160L84.1805 154L89.4962 78.3176Z" fill="#467599"/>
<path d="M45.2119 254.986H38.3564V274H35.5586V254.986H28.7178V252.672H45.2119V254.986ZM50.6611 260.069C51.8623 258.595 53.4248 257.857 55.3486 257.857C58.6982 257.857 60.3877 259.747 60.417 263.526V274H57.707V263.512C57.6973 262.369 57.4336 261.524 56.916 260.978C56.4082 260.431 55.6123 260.157 54.5283 260.157C53.6494 260.157 52.8779 260.392 52.2139 260.86C51.5498 261.329 51.0322 261.944 50.6611 262.706V274H47.9512V251.5H50.6611V260.069ZM67.4189 274H64.709V258.15H67.4189V274ZM64.4893 253.946C64.4893 253.507 64.6211 253.136 64.8848 252.833C65.1582 252.53 65.5586 252.379 66.0859 252.379C66.6133 252.379 67.0137 252.53 67.2871 252.833C67.5605 253.136 67.6973 253.507 67.6973 253.946C67.6973 254.386 67.5605 254.752 67.2871 255.045C67.0137 255.338 66.6133 255.484 66.0859 255.484C65.5586 255.484 65.1582 255.338 64.8848 255.045C64.6211 254.752 64.4893 254.386 64.4893 253.946ZM80.998 269.796C80.998 269.063 80.7197 268.497 80.1631 268.097C79.6162 267.687 78.6543 267.335 77.2773 267.042C75.9102 266.749 74.8213 266.397 74.0107 265.987C73.21 265.577 72.6143 265.089 72.2236 264.522C71.8428 263.956 71.6523 263.282 71.6523 262.501C71.6523 261.202 72.1992 260.104 73.293 259.205C74.3965 258.307 75.8027 257.857 77.5117 257.857C79.3086 257.857 80.7637 258.321 81.877 259.249C83 260.177 83.5615 261.363 83.5615 262.809H80.8369C80.8369 262.066 80.5195 261.427 79.8848 260.89C79.2598 260.353 78.4688 260.084 77.5117 260.084C76.5254 260.084 75.7539 260.299 75.1973 260.729C74.6406 261.158 74.3623 261.72 74.3623 262.413C74.3623 263.067 74.6211 263.561 75.1387 263.893C75.6562 264.225 76.5889 264.542 77.9365 264.845C79.2939 265.147 80.3926 265.509 81.2324 265.929C82.0723 266.349 82.6924 266.856 83.0928 267.452C83.5029 268.038 83.708 268.756 83.708 269.605C83.708 271.021 83.1416 272.159 82.0088 273.019C80.876 273.868 79.4062 274.293 77.5996 274.293C76.3301 274.293 75.207 274.068 74.2305 273.619C73.2539 273.17 72.4873 272.545 71.9307 271.744C71.3838 270.934 71.1104 270.06 71.1104 269.122H73.8203C73.8691 270.03 74.2305 270.753 74.9043 271.29C75.5879 271.817 76.4863 272.081 77.5996 272.081C78.625 272.081 79.4453 271.876 80.0605 271.466C80.6855 271.046 80.998 270.489 80.998 269.796ZM108.068 266.251C108.068 268.663 107.517 270.606 106.413 272.081C105.31 273.556 103.815 274.293 101.931 274.293C100.007 274.293 98.4932 273.683 97.3896 272.462V280.094H94.6797V258.15H97.1553L97.2871 259.908C98.3906 258.541 99.9238 257.857 101.887 257.857C103.791 257.857 105.295 258.575 106.398 260.011C107.512 261.446 108.068 263.443 108.068 266.002V266.251ZM105.358 265.943C105.358 264.156 104.978 262.745 104.216 261.71C103.454 260.675 102.409 260.157 101.081 260.157C99.4404 260.157 98.21 260.885 97.3896 262.34V269.913C98.2002 271.358 99.4404 272.081 101.11 272.081C102.409 272.081 103.439 271.568 104.201 270.543C104.973 269.508 105.358 267.975 105.358 265.943ZM110.808 265.929C110.808 264.376 111.11 262.979 111.716 261.739C112.331 260.499 113.181 259.542 114.265 258.868C115.358 258.194 116.604 257.857 118 257.857C120.158 257.857 121.901 258.604 123.229 260.099C124.567 261.593 125.236 263.58 125.236 266.061V266.251C125.236 267.794 124.938 269.181 124.343 270.411C123.757 271.632 122.912 272.584 121.809 273.268C120.715 273.951 119.455 274.293 118.029 274.293C115.881 274.293 114.138 273.546 112.8 272.052C111.472 270.558 110.808 268.58 110.808 266.119V265.929ZM113.532 266.251C113.532 268.009 113.938 269.42 114.748 270.484C115.568 271.549 116.662 272.081 118.029 272.081C119.406 272.081 120.5 271.544 121.311 270.47C122.121 269.386 122.526 267.872 122.526 265.929C122.526 264.19 122.111 262.784 121.281 261.71C120.461 260.626 119.367 260.084 118 260.084C116.662 260.084 115.583 260.616 114.763 261.681C113.942 262.745 113.532 264.269 113.532 266.251ZM137.863 269.796C137.863 269.063 137.585 268.497 137.028 268.097C136.481 267.687 135.52 267.335 134.143 267.042C132.775 266.749 131.687 266.397 130.876 265.987C130.075 265.577 129.479 265.089 129.089 264.522C128.708 263.956 128.518 263.282 128.518 262.501C128.518 261.202 129.064 260.104 130.158 259.205C131.262 258.307 132.668 257.857 134.377 257.857C136.174 257.857 137.629 258.321 138.742 259.249C139.865 260.177 140.427 261.363 140.427 262.809H137.702C137.702 262.066 137.385 261.427 136.75 260.89C136.125 260.353 135.334 260.084 134.377 260.084C133.391 260.084 132.619 260.299 132.062 260.729C131.506 261.158 131.228 261.72 131.228 262.413C131.228 263.067 131.486 263.561 132.004 263.893C132.521 264.225 133.454 264.542 134.802 264.845C136.159 265.147 137.258 265.509 138.098 265.929C138.938 266.349 139.558 266.856 139.958 267.452C140.368 268.038 140.573 268.756 140.573 269.605C140.573 271.021 140.007 272.159 138.874 273.019C137.741 273.868 136.271 274.293 134.465 274.293C133.195 274.293 132.072 274.068 131.096 273.619C130.119 273.17 129.353 272.545 128.796 271.744C128.249 270.934 127.976 270.06 127.976 269.122H130.686C130.734 270.03 131.096 270.753 131.77 271.29C132.453 271.817 133.352 272.081 134.465 272.081C135.49 272.081 136.311 271.876 136.926 271.466C137.551 271.046 137.863 270.489 137.863 269.796ZM147.78 254.312V258.15H150.739V260.245H147.78V270.074C147.78 270.709 147.912 271.188 148.176 271.51C148.439 271.822 148.889 271.979 149.523 271.979C149.836 271.979 150.266 271.92 150.812 271.803V274C150.1 274.195 149.406 274.293 148.732 274.293C147.521 274.293 146.608 273.927 145.993 273.194C145.378 272.462 145.07 271.422 145.07 270.074V260.245H142.185V258.15H145.07V254.312H147.78ZM175.393 270.265L178.439 258.15H181.149L176.535 274H174.338L170.485 261.988L166.735 274H164.538L159.938 258.15H162.634L165.754 270.016L169.445 258.15H171.628L175.393 270.265ZM193.703 274C193.547 273.688 193.42 273.131 193.322 272.33C192.062 273.639 190.559 274.293 188.811 274.293C187.248 274.293 185.964 273.854 184.958 272.975C183.962 272.086 183.464 270.963 183.464 269.605C183.464 267.955 184.089 266.676 185.339 265.768C186.599 264.85 188.366 264.391 190.642 264.391H193.278V263.146C193.278 262.198 192.995 261.446 192.429 260.89C191.862 260.323 191.027 260.04 189.924 260.04C188.957 260.04 188.146 260.284 187.492 260.772C186.838 261.261 186.511 261.852 186.511 262.545H183.786C183.786 261.754 184.064 260.992 184.621 260.26C185.188 259.518 185.949 258.932 186.906 258.502C187.873 258.072 188.933 257.857 190.085 257.857C191.911 257.857 193.342 258.316 194.377 259.234C195.412 260.143 195.949 261.397 195.988 262.999V270.294C195.988 271.749 196.174 272.906 196.545 273.766V274H193.703ZM189.206 271.935C190.056 271.935 190.861 271.715 191.623 271.275C192.385 270.836 192.937 270.265 193.278 269.562V266.31H191.154C187.834 266.31 186.174 267.281 186.174 269.225C186.174 270.074 186.457 270.738 187.023 271.217C187.59 271.695 188.317 271.935 189.206 271.935ZM209.465 269.796C209.465 269.063 209.187 268.497 208.63 268.097C208.083 267.687 207.121 267.335 205.744 267.042C204.377 266.749 203.288 266.397 202.478 265.987C201.677 265.577 201.081 265.089 200.69 264.522C200.31 263.956 200.119 263.282 200.119 262.501C200.119 261.202 200.666 260.104 201.76 259.205C202.863 258.307 204.27 257.857 205.979 257.857C207.775 257.857 209.23 258.321 210.344 259.249C211.467 260.177 212.028 261.363 212.028 262.809H209.304C209.304 262.066 208.986 261.427 208.352 260.89C207.727 260.353 206.936 260.084 205.979 260.084C204.992 260.084 204.221 260.299 203.664 260.729C203.107 261.158 202.829 261.72 202.829 262.413C202.829 263.067 203.088 263.561 203.605 263.893C204.123 264.225 205.056 264.542 206.403 264.845C207.761 265.147 208.859 265.509 209.699 265.929C210.539 266.349 211.159 266.856 211.56 267.452C211.97 268.038 212.175 268.756 212.175 269.605C212.175 271.021 211.608 272.159 210.476 273.019C209.343 273.868 207.873 274.293 206.066 274.293C204.797 274.293 203.674 274.068 202.697 273.619C201.721 273.17 200.954 272.545 200.397 271.744C199.851 270.934 199.577 270.06 199.577 269.122H202.287C202.336 270.03 202.697 270.753 203.371 271.29C204.055 271.817 204.953 272.081 206.066 272.081C207.092 272.081 207.912 271.876 208.527 271.466C209.152 271.046 209.465 270.489 209.465 269.796ZM29.3916 300.943C29.3916 298.512 29.9678 296.559 31.1201 295.084C32.2725 293.6 33.7812 292.857 35.6465 292.857C37.502 292.857 38.9717 293.492 40.0557 294.762V286.5H42.7656V309H40.2754L40.1436 307.301C39.0596 308.629 37.5508 309.293 35.6172 309.293C33.7812 309.293 32.2822 308.541 31.1201 307.037C29.9678 305.533 29.3916 303.57 29.3916 301.148V300.943ZM32.1016 301.251C32.1016 303.048 32.4727 304.454 33.2148 305.47C33.957 306.485 34.9824 306.993 36.291 306.993C38.0098 306.993 39.2646 306.222 40.0557 304.679V297.398C39.2451 295.904 38 295.157 36.3203 295.157C34.9922 295.157 33.957 295.67 33.2148 296.695C32.4727 297.721 32.1016 299.239 32.1016 301.251ZM53.5615 309.293C51.4131 309.293 49.665 308.59 48.3174 307.184C46.9697 305.768 46.2959 303.878 46.2959 301.515V301.017C46.2959 299.444 46.5938 298.043 47.1895 296.812C47.7949 295.572 48.6348 294.605 49.709 293.912C50.793 293.209 51.9648 292.857 53.2246 292.857C55.2852 292.857 56.8867 293.536 58.0293 294.894C59.1719 296.251 59.7432 298.194 59.7432 300.724V301.852H49.0059C49.0449 303.414 49.499 304.679 50.3682 305.646C51.2471 306.603 52.3604 307.081 53.708 307.081C54.665 307.081 55.4756 306.886 56.1396 306.495C56.8037 306.104 57.3848 305.587 57.8828 304.942L59.5381 306.231C58.21 308.272 56.2178 309.293 53.5615 309.293ZM53.2246 295.084C52.1309 295.084 51.2129 295.484 50.4707 296.285C49.7285 297.076 49.2695 298.189 49.0938 299.625H57.0332V299.42C56.9551 298.043 56.584 296.979 55.9199 296.227C55.2559 295.465 54.3574 295.084 53.2246 295.084ZM65.8369 309H63.127V286.5H65.8369V309ZM76.7646 309.293C74.6162 309.293 72.8682 308.59 71.5205 307.184C70.1729 305.768 69.499 303.878 69.499 301.515V301.017C69.499 299.444 69.7969 298.043 70.3926 296.812C70.998 295.572 71.8379 294.605 72.9121 293.912C73.9961 293.209 75.168 292.857 76.4277 292.857C78.4883 292.857 80.0898 293.536 81.2324 294.894C82.375 296.251 82.9463 298.194 82.9463 300.724V301.852H72.209C72.248 303.414 72.7021 304.679 73.5713 305.646C74.4502 306.603 75.5635 307.081 76.9111 307.081C77.8682 307.081 78.6787 306.886 79.3428 306.495C80.0068 306.104 80.5879 305.587 81.0859 304.942L82.7412 306.231C81.4131 308.272 79.4209 309.293 76.7646 309.293ZM76.4277 295.084C75.334 295.084 74.416 295.484 73.6738 296.285C72.9316 297.076 72.4727 298.189 72.2969 299.625H80.2363V299.42C80.1582 298.043 79.7871 296.979 79.123 296.227C78.459 295.465 77.5605 295.084 76.4277 295.084ZM89.7725 289.312V293.15H92.7314V295.245H89.7725V305.074C89.7725 305.709 89.9043 306.188 90.168 306.51C90.4316 306.822 90.8809 306.979 91.5156 306.979C91.8281 306.979 92.2578 306.92 92.8047 306.803V309C92.0918 309.195 91.3984 309.293 90.7246 309.293C89.5137 309.293 88.6006 308.927 87.9854 308.194C87.3701 307.462 87.0625 306.422 87.0625 305.074V295.245H84.1768V293.15H87.0625V289.312H89.7725ZM102.487 309.293C100.339 309.293 98.5908 308.59 97.2432 307.184C95.8955 305.768 95.2217 303.878 95.2217 301.515V301.017C95.2217 299.444 95.5195 298.043 96.1152 296.812C96.7207 295.572 97.5605 294.605 98.6348 293.912C99.7188 293.209 100.891 292.857 102.15 292.857C104.211 292.857 105.812 293.536 106.955 294.894C108.098 296.251 108.669 298.194 108.669 300.724V301.852H97.9316C97.9707 303.414 98.4248 304.679 99.2939 305.646C100.173 306.603 101.286 307.081 102.634 307.081C103.591 307.081 104.401 306.886 105.065 306.495C105.729 306.104 106.311 305.587 106.809 304.942L108.464 306.231C107.136 308.272 105.144 309.293 102.487 309.293ZM102.15 295.084C101.057 295.084 100.139 295.484 99.3965 296.285C98.6543 297.076 98.1953 298.189 98.0195 299.625H105.959V299.42C105.881 298.043 105.51 296.979 104.846 296.227C104.182 295.465 103.283 295.084 102.15 295.084ZM111.159 300.943C111.159 298.512 111.735 296.559 112.888 295.084C114.04 293.6 115.549 292.857 117.414 292.857C119.27 292.857 120.739 293.492 121.823 294.762V286.5H124.533V309H122.043L121.911 307.301C120.827 308.629 119.318 309.293 117.385 309.293C115.549 309.293 114.05 308.541 112.888 307.037C111.735 305.533 111.159 303.57 111.159 301.148V300.943ZM113.869 301.251C113.869 303.048 114.24 304.454 114.982 305.47C115.725 306.485 116.75 306.993 118.059 306.993C119.777 306.993 121.032 306.222 121.823 304.679V297.398C121.013 295.904 119.768 295.157 118.088 295.157C116.76 295.157 115.725 295.67 114.982 296.695C114.24 297.721 113.869 299.239 113.869 301.251Z" fill="#E9FFF9"/>
</svg>
