<svg width="176" height="294" viewBox="0 0 176 294" fill="none" xmlns="http://www.w3.org/2000/svg">
<path d="M59.0182 286.529L66.9187 286.529L70.6761 255.498L59.0155 255.499L59.0182 286.529Z" fill="#FFB8B8"/>
<path d="M82.1562 293.998L57.3259 294L57.325 284.231L72.5618 284.23C75.1062 284.23 77.5464 285.259 79.3457 287.09C81.145 288.922 82.156 291.407 82.1562 293.998V293.998V293.998Z" fill="#2F2E41"/>
<path d="M122.598 286.529L130.498 286.529L134.256 255.498L122.595 255.499L122.598 286.529Z" fill="#FFB8B8"/>
<path d="M145.736 293.998L120.905 294L120.904 284.231L136.141 284.23C138.686 284.23 141.126 285.259 142.925 287.09C144.724 288.922 145.735 291.407 145.736 293.998V293.998V293.998Z" fill="#2F2E41"/>
<path d="M57.3096 275.101C56.5885 275.102 55.8897 274.847 55.3329 274.38C54.7762 273.914 54.3964 273.264 54.2585 272.543L49.1851 207.63C43.7235 152.659 53.072 133.292 53.1671 133.103L53.2697 132.899L53.4945 132.912L97.3453 135.482L106.654 166.487L131.259 200.151C135.152 205.498 137.22 211.994 137.148 218.649L136.525 267.731C136.511 268.525 136.206 269.284 135.671 269.861C135.136 270.438 134.408 270.79 133.631 270.85L120.786 271.76C119.983 271.819 119.188 271.558 118.571 271.032C117.953 270.505 117.561 269.755 117.478 268.939L114.295 215.651C114.286 215.596 114.26 215.545 114.222 215.505L77.729 180.871C77.6087 180.74 77.4577 180.643 77.2904 180.588C77.123 180.533 76.9447 180.523 76.7722 180.558C76.5997 180.592 76.4387 180.671 76.3043 180.786C76.17 180.902 76.0666 181.05 76.004 181.217L72.3237 271.429C72.3644 271.858 72.3177 272.291 72.1865 272.7C72.0554 273.11 71.8426 273.487 71.5615 273.809C71.2757 274.138 70.9259 274.403 70.5343 274.587C70.1427 274.772 69.7177 274.871 69.2864 274.88L57.367 275.101C57.3478 275.101 57.3286 275.101 57.3096 275.101Z" fill="#2F2E41"/>
<path d="M88.1378 65.9415C98.8684 59.9685 102.812 46.2685 96.9461 35.3419C91.0803 24.4152 77.6261 20.3995 66.8955 26.3726C56.1649 32.3456 52.2213 46.0456 58.0872 56.9722C63.9531 67.8989 77.4072 71.9146 88.1378 65.9415Z" fill="#2F2E41"/>
<path d="M172.631 90.4162C171.806 89.9421 170.889 89.6579 169.944 89.5837C169 89.5096 168.051 89.6472 167.164 89.9869C166.277 90.3266 165.475 90.8602 164.812 91.55C164.15 92.2398 163.644 93.0691 163.331 93.9794L148.546 94.8233L146.858 104.098L167.721 102.607C169.258 103.042 170.898 102.888 172.33 102.174C173.763 101.459 174.888 100.235 175.494 98.7324C176.099 97.2297 176.142 95.5531 175.614 94.0204C175.087 92.4877 174.025 91.2053 172.631 90.4162V90.4162Z" fill="#FFB8B8"/>
<path d="M50.4565 166.939C50.8662 166.07 51.0836 165.119 51.0934 164.154C51.1032 163.19 50.9052 162.235 50.5133 161.356C50.1213 160.478 49.5451 159.698 48.8251 159.071C48.1051 158.444 47.2588 157.985 46.3459 157.728L44.5347 142.762L35.3347 141.664L38.1841 162.762C37.8602 164.353 38.1206 166.009 38.9157 167.417C39.7109 168.825 40.9856 169.887 42.4983 170.402C44.0111 170.916 45.6567 170.848 47.1235 170.21C48.5902 169.572 49.7762 168.408 50.4566 166.939H50.4565Z" fill="#FFB8B8"/>
<path d="M76.5472 70.3426C85.9215 70.3426 93.5209 62.6044 93.5209 53.0588C93.5209 43.5132 85.9215 35.775 76.5472 35.775C67.1729 35.775 59.5736 43.5132 59.5736 53.0588C59.5736 62.6044 67.1729 70.3426 76.5472 70.3426Z" fill="#FFB8B8"/>
<path d="M79.8938 141.59C70.8682 141.59 63.3049 140.846 55.804 138.115C52.7161 136.991 52.3861 135.597 51.9519 133.854C51.2702 131.118 50.8965 98.7631 54.4154 88.025C55.3701 85.1387 57.1085 82.5869 59.4292 80.6654C61.7498 78.7438 64.5576 77.5312 67.5273 77.1681C70.8779 76.766 80.9001 75.3236 86.5759 74.4996C89.3648 74.0726 92.2066 74.7814 94.486 76.4726C95.9905 77.623 96.7716 78.8586 96.8079 80.1454L98.3502 134.851C98.4005 136.432 97.8454 137.971 96.8022 139.143C95.759 140.315 94.3094 141.028 92.7593 141.132C89.2911 141.371 84.7833 141.59 79.8938 141.59Z" fill="#467599"/>
<path d="M34.9982 154.988C34.5797 154.987 34.1656 154.901 33.7806 154.734C33.3956 154.568 33.0476 154.323 32.7576 154.016C32.4675 153.709 32.2413 153.345 32.0925 152.947C31.9436 152.549 31.8752 152.124 31.8914 151.699L32.4305 126.608C32.5486 123.507 33.4578 120.491 35.0686 117.857L55.9845 83.6925C56.6399 82.6281 57.5503 81.7509 58.6301 81.1432C59.71 80.5356 60.9239 80.2176 62.1576 80.219C63.3929 80.2192 64.6073 80.5432 65.684 81.1597C66.7607 81.7763 67.6635 82.6646 68.3054 83.7393V83.7393C68.9722 84.8497 69.3392 86.1197 69.3692 87.4209C69.3992 88.7222 69.0913 90.0084 68.4764 91.1495L48.1878 128.696L49.5844 151.741C49.5918 152.162 49.5171 152.579 49.3646 152.969C49.212 153.359 48.9848 153.715 48.696 154.015C48.4072 154.315 48.0627 154.553 47.6825 154.717C47.3023 154.88 46.8941 154.964 46.4815 154.965L35.0051 154.988L34.9982 154.988Z" fill="#467599"/>
<path d="M158.955 107.835C158.678 108.154 158.34 108.412 157.961 108.593C157.583 108.775 157.172 108.876 156.754 108.89L132.13 110.22C129.087 110.331 126.067 109.633 123.369 108.195L88.3473 89.5121C87.2538 88.9288 86.3249 88.0706 85.6487 87.019C84.9726 85.9674 84.5716 84.7573 84.4838 83.5035C84.3961 82.2497 84.6244 80.9939 85.1473 79.8553C85.6702 78.7167 86.4702 77.733 87.4713 76.9977L87.6733 77.283L87.4713 76.9977C88.5088 76.2375 89.7251 75.7698 90.9972 75.642C92.2692 75.5142 93.5518 75.7308 94.7152 76.2698L133.003 94.0629L155.483 90.9193C155.893 90.8828 156.305 90.9294 156.697 91.0563C157.089 91.1832 157.452 91.388 157.766 91.6587C158.079 91.9295 158.337 92.2609 158.524 92.6337C158.711 93.0065 158.824 93.4135 158.855 93.8309L159.736 105.483C159.74 105.541 159.743 105.599 159.744 105.657C159.764 106.459 159.482 107.238 158.955 107.835V107.835Z" fill="#467599"/>
<path d="M63.974 50.6109L59.5705 38.5022L79.3713 32.6663L93.5239 37.0948V50.6109H63.974Z" fill="#2F2E41"/>
<path d="M84.789 23.312C84.3683 18.4538 82.5369 13.8331 79.5281 10.0385C76.5193 6.24391 72.4693 3.44721 67.8941 2.0047C63.3188 0.562188 58.4254 0.53917 53.8372 1.93856C49.2491 3.33796 45.1739 6.09642 42.1308 9.86255C37.968 15.0143 36.0446 21.6421 34.6368 28.1577C33.229 34.6734 32.2097 41.3607 29.4763 47.4238C26.7429 53.4868 21.9236 58.9953 15.561 60.5869C9.19839 62.1785 1.4708 58.5946 0 52.0934C0.228172 56.4872 1.31782 60.79 3.20473 64.7482C5.09163 68.7064 7.73762 72.24 10.9867 75.1405C16.4994 80.0087 25.5 78.2874 30.9269 73.3202C36.3538 68.3531 39.0399 61.0635 41.3635 54.02C43.6872 46.9764 45.9784 39.6323 50.9074 34.1534C55.8365 28.6745 69.8063 22.8512 76.1371 26.5461C81.102 29.4438 82.8835 27.6017 84.789 23.312Z" fill="#2F2E41"/>
</svg>
