<svg width="206" height="337" viewBox="0 0 206 337" fill="none" xmlns="http://www.w3.org/2000/svg">
<path d="M68.967 327.833L78.1992 327.832L82.59 292.221L68.9638 292.223L68.967 327.833Z" fill="#FFB8B8"/>
<path d="M96.0052 336.403L66.9893 336.406L66.9883 325.195L84.7936 325.194C87.7668 325.193 90.6184 326.374 92.721 328.477C94.8236 330.579 96.005 333.43 96.0052 336.403Z" fill="#2F2E41"/>
<path d="M143.264 327.833L152.496 327.832L156.887 292.221L143.261 292.223L143.264 327.833Z" fill="#FFB8B8"/>
<path d="M170.302 336.403L141.286 336.406L141.285 325.195L159.091 325.194C162.064 325.193 164.915 326.374 167.018 328.477C169.121 330.579 170.302 333.43 170.302 336.403Z" fill="#2F2E41"/>
<path d="M66.9702 314.717C66.1276 314.718 65.3109 314.426 64.6604 313.89C64.0098 313.355 63.5659 312.609 63.4048 311.782L57.4762 237.287C51.094 174.202 62.0184 151.977 62.1295 151.76L62.2494 151.526L62.5121 151.541L113.755 154.49L124.632 190.072L153.385 228.705C157.934 234.841 160.351 242.296 160.267 249.933L159.539 306.26C159.522 307.171 159.166 308.042 158.541 308.704C157.915 309.366 157.065 309.771 156.157 309.839L141.147 310.883C140.208 310.951 139.28 310.652 138.558 310.047C137.837 309.443 137.379 308.582 137.281 307.646L133.562 246.493C133.551 246.429 133.521 246.371 133.476 246.325L90.8318 206.579C90.6912 206.429 90.5148 206.317 90.3192 206.254C90.1236 206.192 89.9152 206.179 89.7137 206.219C89.5121 206.259 89.324 206.349 89.1669 206.482C89.0099 206.614 88.8891 206.785 88.8159 206.977L84.5153 310.504C84.5628 310.996 84.5082 311.492 84.355 311.962C84.2017 312.432 83.953 312.865 83.6245 313.235C83.2906 313.612 82.8818 313.916 82.4242 314.128C81.9666 314.34 81.47 314.454 80.9659 314.463L67.0373 314.717C67.0149 314.717 66.9924 314.717 66.9702 314.717Z" fill="#2F2E41"/>
<path d="M102.995 74.6856C115.535 67.8309 120.143 52.1088 113.288 39.5694C106.434 27.0299 90.7115 22.4215 78.172 29.2762C65.6326 36.1309 61.0241 51.853 67.8788 64.3924C74.7335 76.9319 90.4556 81.5403 102.995 74.6856Z" fill="#2F2E41"/>
<path d="M201.731 102.773C200.767 102.229 199.696 101.903 198.592 101.817C197.488 101.732 196.379 101.89 195.343 102.28C194.307 102.67 193.369 103.282 192.595 104.074C191.821 104.866 191.23 105.817 190.864 106.862L173.586 107.83L171.614 118.474L195.994 116.763C197.79 117.262 199.706 117.085 201.38 116.266C203.054 115.446 204.369 114.041 205.077 112.316C205.784 110.592 205.834 108.668 205.217 106.909C204.601 105.15 203.361 103.678 201.731 102.773Z" fill="#FFB8B8"/>
<path d="M58.962 190.591C59.4407 189.593 59.6947 188.502 59.7062 187.395C59.7176 186.288 59.4862 185.192 59.0282 184.184C58.5702 183.176 57.8969 182.281 57.0555 181.561C56.2141 180.842 55.2252 180.315 54.1584 180.019L52.0419 162.845L41.2911 161.585L44.6207 185.797C44.2423 187.623 44.5465 189.523 45.4757 191.139C46.4049 192.754 47.8945 193.973 49.6622 194.564C51.43 195.155 53.353 195.077 55.067 194.345C56.781 193.612 58.1669 192.277 58.962 190.591H58.962Z" fill="#FFB8B8"/>
<path d="M89.4507 79.7363C100.405 79.7363 109.286 70.8559 109.286 59.9014C109.286 48.9469 100.405 40.0665 89.4507 40.0665C78.4962 40.0665 69.6158 48.9469 69.6158 59.9014C69.6158 70.8559 78.4962 79.7363 89.4507 79.7363Z" fill="#FFB8B8"/>
<path d="M93.3615 161.5C82.8145 161.5 73.9763 160.646 65.2109 157.512C61.6025 156.222 61.2168 154.623 60.7094 152.623C59.9129 149.483 59.4762 112.352 63.5882 100.029C64.7039 96.7163 66.7354 93.7879 69.4472 91.5828C72.159 89.3776 75.4402 87.9861 78.9104 87.5693C82.8258 87.1079 94.5374 85.4525 101.17 84.5069C104.429 84.0169 107.75 84.8303 110.414 86.7711C112.172 88.0913 113.084 89.5093 113.127 90.9861L114.929 153.766C114.988 155.581 114.339 157.347 113.12 158.692C111.901 160.037 110.207 160.855 108.396 160.975C104.343 161.249 99.0752 161.5 93.3615 161.5Z" fill="#D64045"/>
<path d="M40.8978 176.875C40.4088 176.875 39.9249 176.776 39.475 176.585C39.0251 176.393 38.6185 176.113 38.2795 175.76C37.9405 175.408 37.6762 174.991 37.5023 174.534C37.3283 174.077 37.2484 173.589 37.2673 173.101L37.8973 144.307C38.0353 140.748 39.0978 137.287 40.9801 134.264L65.4218 95.0567C66.1876 93.8352 67.2515 92.8285 68.5134 92.1312C69.7753 91.4339 71.1938 91.0689 72.6355 91.0705C74.079 91.0708 75.4982 91.4426 76.7564 92.1501C78.0146 92.8576 79.0695 93.8771 79.8196 95.1104C80.5989 96.3847 81.0277 97.8422 81.0628 99.3355C81.0979 100.829 80.738 102.305 80.0195 103.614L56.3108 146.703L57.9428 173.15C57.9515 173.632 57.8642 174.111 57.6859 174.559C57.5077 175.007 57.2421 175.415 56.9047 175.759C56.5672 176.103 56.1646 176.377 55.7203 176.564C55.2761 176.751 54.799 176.848 54.3169 176.849L40.9059 176.875L40.8978 176.875Z" fill="#D64045"/>
<path d="M185.75 122.762C185.426 123.128 185.031 123.424 184.588 123.633C184.146 123.841 183.666 123.957 183.177 123.973L154.403 125.499C150.847 125.627 147.318 124.826 144.165 123.176L103.24 101.735C101.962 101.066 100.877 100.081 100.087 98.8742C99.2964 97.6674 98.8278 96.2786 98.7252 94.8398C98.6227 93.401 98.8896 91.9598 99.5006 90.6531C100.112 89.3464 101.046 88.2176 102.216 87.3737L102.452 87.7012L102.216 87.3737C103.429 86.5013 104.85 85.9646 106.337 85.8179C107.823 85.6712 109.322 85.9198 110.681 86.5384L155.423 106.958L181.693 103.35C182.172 103.308 182.654 103.362 183.112 103.507C183.569 103.653 183.994 103.888 184.36 104.199C184.727 104.51 185.028 104.89 185.246 105.318C185.465 105.746 185.596 106.212 185.633 106.692L186.662 120.063C186.668 120.13 186.671 120.197 186.672 120.263C186.696 121.183 186.366 122.078 185.75 122.762Z" fill="#D64045"/>
<path d="M74.7581 57.0921L69.6123 43.1962L92.7509 36.4989L109.289 41.581V57.0921H74.7581Z" fill="#2F2E41"/>
<path d="M99.0819 25.764C98.5903 20.1887 96.4502 14.8859 92.9342 10.5312C89.4182 6.17652 84.6855 2.96702 79.3389 1.31159C73.9924 -0.34384 68.2742 -0.370256 62.9126 1.23569C57.551 2.84164 52.7888 6.00726 49.2328 10.3293C44.3683 16.2415 42.1206 23.8475 40.4755 31.3248C38.8304 38.8022 37.6393 46.4766 34.4451 53.4346C31.2509 60.3926 25.6192 66.7141 18.1841 68.5406C10.749 70.3672 1.71873 66.2543 0 58.7935C0.266635 63.8358 1.53997 68.7737 3.74495 73.3162C5.94993 77.8586 9.04194 81.9137 12.8387 85.2424C19.2807 90.8292 29.7986 88.8538 36.1403 83.1535C42.482 77.4532 45.6208 69.0876 48.3362 61.0044C51.0516 52.9212 53.7289 44.4931 59.4889 38.2055C65.2488 31.918 81.5735 25.2351 88.9715 29.4754C94.7734 32.8007 96.8552 30.6868 99.0819 25.764Z" fill="#2F2E41"/>
</svg>
