<!-- Generated by IcoMoon.io -->
<svg version="1.1" xmlns="http://www.w3.org/2000/svg" width="768" height="768" viewBox="0 0 768 768">
<title></title>
<g id="icomoon-ignore">
</g>
<path fill="#000" d="M521.376 73.376l-432 432c-3.744 3.712-6.72 8.576-8.256 14.208l-48 176c-1.472 5.216-1.568 11.072 0 16.832 4.64 17.056 22.24 27.104 39.296 22.464l176-48c5.088-1.344 10.080-4.128 14.208-8.256l432-432c23.904-23.904 35.872-55.328 35.872-86.624s-11.968-62.72-35.872-86.624-55.328-35.872-86.624-35.872-62.72 11.968-86.624 35.872zM566.624 118.624c11.424-11.424 26.368-17.12 41.376-17.12s29.952 5.696 41.376 17.152 17.12 26.336 17.12 41.344-5.696 29.952-17.12 41.376l-425.984 425.984-113.792 31.040 31.040-113.76z"></path>
</svg>
