<!-- Generated by IcoMoon.io -->
<svg version="1.1" xmlns="http://www.w3.org/2000/svg" width="640" height="640" viewBox="0 0 640 640">
<title></title>
<g id="icomoon-ignore">
</g>
<path fill="#000" d="M320 12.8c-169.664 0-307.2 137.536-307.2 307.2s137.536 307.2 307.2 307.2c169.632 0 307.2-137.536 307.2-307.232 0-169.632-137.568-307.168-307.2-307.168zM320 563.168c-134.304 0-243.2-108.864-243.2-243.2s108.864-243.168 243.2-243.168c134.304 0 243.232 108.864 243.232 243.2s-108.928 243.168-243.232 243.168zM240.032 312c26.496 0 47.968-25.056 47.968-56s-21.504-56-48-56-48 25.056-48 56 21.504 56 48.032 56zM400 312c26.528 0 48-25.056 48-56s-21.504-56-48-56-48 25.088-48 56 21.504 56 48 56zM458.912 362.752c-11.616-5.952-26.080-1.376-32.256 10.24-1.088 2.112-27.808 50.976-106.624 50.976-78.432 0-105.312-48.416-106.656-50.944-6.016-11.68-20.224-16.448-32.128-10.528-11.84 5.952-16.64 20.352-10.72 32.224 1.6 3.168 39.936 77.248 149.504 77.248 109.6 0 147.872-74.112 149.44-77.28 5.888-11.744 1.152-25.92-10.56-31.936z"></path>
</svg>
