<!-- Generated by IcoMoon.io -->
<svg version="1.1" xmlns="http://www.w3.org/2000/svg" width="768" height="768" viewBox="0 0 768 768">
<title></title>
<g id="icomoon-ignore">
</g>
<path fill="#000" d="M480 128h128c8.832 0 16.8 3.552 22.624 9.376s9.376 13.792 9.376 22.624v448c0 8.832-3.552 16.8-9.376 22.624s-13.792 9.376-22.624 9.376h-128c-17.664 0-32 14.336-32 32s14.336 32 32 32h128c26.496 0 50.56-10.784 67.872-28.128s28.128-41.376 28.128-67.872v-448c0-26.496-10.784-50.56-28.128-67.872s-41.376-28.128-67.872-28.128h-128c-17.664 0-32 14.336-32 32s14.336 32 32 32zM402.752 352h-306.752c-17.664 0-32 14.336-32 32s14.336 32 32 32h306.752l-105.376 105.376c-12.512 12.512-12.512 32.768 0 45.248s32.768 12.512 45.248 0l160-160c3.072-3.072 5.376-6.592 6.944-10.368s2.432-7.904 2.432-12.256c0-4.16-0.8-8.352-2.432-12.256-1.568-3.776-3.872-7.296-6.944-10.368l-160-160c-12.512-12.512-32.768-12.512-45.248 0s-12.512 32.768 0 45.248z"></path>
</svg>
