<!-- Generated by IcoMoon.io -->
<svg version="1.1" xmlns="http://www.w3.org/2000/svg" width="768" height="768" viewBox="0 0 768 768">
<title></title>
<g id="icomoon-ignore">
</g>
<path fill="#000" d="M352 480c0-17.664-14.336-32-32-32h-181.728c-2.080-0.064-4.896-0.352-4.896-0.352-8.736-1.312-16.064-6.016-20.96-12.672s-7.2-15.040-5.888-23.744l44.16-287.936c1.184-7.648 4.992-14.336 10.4-19.2 5.728-5.152 13.28-8.192 21.952-8.096h328.96v313.216l-115.456 259.776c-9.824-3.136-18.624-8.576-25.792-15.744-11.616-11.616-18.752-27.552-18.752-45.248zM288 512v96c0 35.328 14.368 67.392 37.504 90.496s55.168 37.504 90.496 37.504c12.96 0 24.128-7.712 29.248-19.008l128-288c1.92-4.288 2.784-8.8 2.752-12.992v-352c0-17.664-14.336-32-32-32h-360.96c-24.544-0.288-47.424 8.992-64.672 24.416-16.16 14.464-27.424 34.432-30.944 57.056l-44.16 288.064c-4 26.24 3.072 51.648 17.6 71.392s36.704 34.016 62.88 37.984c5.28 0.8 10.656 1.184 15.744 1.088zM544 96h85.44c11.552-0.192 21.568 3.808 29.184 10.624 6.816 6.112 11.648 14.4 13.376 23.872v217.184c-1.184 10.88-6.656 20.16-14.56 26.656-7.52 6.208-17.184 9.792-27.552 9.632l-85.888 0.032c-17.664 0-32 14.336-32 32s14.336 32 32 32h84.992c25.92 0.384 50.208-8.64 69.12-24.192 19.904-16.352 33.888-40.032 37.632-67.52 0.16-1.28 0.256-2.784 0.256-4.288v-224c0-1.344-0.096-2.848-0.288-4.384-3.552-25.696-16.16-48.32-34.4-64.64-19.2-17.184-44.704-27.456-71.872-26.944h-85.44c-17.664 0-32 14.336-32 32s14.336 32 32 32z"></path>
</svg>
