<!-- Generated by IcoMoon.io -->
<svg version="1.1" xmlns="http://www.w3.org/2000/svg" width="768" height="768" viewBox="0 0 768 768">
<title></title>
<g id="icomoon-ignore">
</g>
<path fill="#000" d="M416 288c0 17.664 14.336 32 32 32h181.728c2.080 0.064 4.896 0.352 4.896 0.352 8.736 1.312 16.064 6.016 20.96 12.672s7.2 15.040 5.888 23.744l-44.16 287.936c-1.184 7.648-4.992 14.336-10.4 19.2-5.76 5.152-13.28 8.192-21.952 8.096h-328.96v-313.216l115.456-259.776c9.824 3.136 18.624 8.576 25.792 15.744 11.616 11.616 18.752 27.552 18.752 45.248zM480 256v-96c0-35.328-14.368-67.392-37.504-90.496s-55.168-37.504-90.496-37.504c-12.96 0-24.128 7.712-29.248 19.008l-128 288c-1.92 4.288-2.784 8.8-2.752 12.992v352c0 17.664 14.336 32 32 32h360.96c24.544 0.288 47.424-8.992 64.672-24.416 16.16-14.464 27.424-34.432 30.944-57.056l44.16-288.064c4-26.24-3.072-51.648-17.6-71.392s-36.704-34.016-62.88-37.984c-5.28-0.8-10.656-1.184-15.744-1.088zM224 672h-96c-8.832 0-16.8-3.552-22.624-9.376s-9.376-13.792-9.376-22.624v-224c0-8.832 3.552-16.8 9.376-22.624s13.792-9.376 22.624-9.376h96c17.664 0 32-14.336 32-32s-14.336-32-32-32h-96c-26.496 0-50.56 10.784-67.872 28.128s-28.128 41.376-28.128 67.872v224c0 26.496 10.784 50.56 28.128 67.872s41.376 28.128 67.872 28.128h96c17.664 0 32-14.336 32-32s-14.336-32-32-32z"></path>
</svg>
